<svg width="53" height="52" viewBox="0 0 53 52" fill="none" xmlns="http://www.w3.org/2000/svg">
<rect x="0.5" width="52" height="52" rx="13.879" fill="#D02B20" fill-opacity="0.1"/>
<path d="M37.6031 15.2698H30.9238L30.5248 13.6737C30.3755 13.0714 30.0286 12.5365 29.5396 12.1544C29.0506 11.7723 28.4477 11.5651 27.8271 11.5659H25.1727C24.5533 11.5646 23.9513 11.7706 23.4624 12.151C22.9735 12.5313 22.626 13.0643 22.475 13.6651L22.076 15.2698H15.3967C15.2678 15.2573 15.1378 15.2719 15.015 15.3127C14.8921 15.3534 14.7791 15.4194 14.6832 15.5064C14.5874 15.5934 14.5108 15.6995 14.4584 15.8178C14.406 15.9362 14.3789 16.0642 14.3789 16.1936C14.3789 16.3231 14.406 16.4511 14.4584 16.5695C14.5108 16.6878 14.5874 16.7939 14.6832 16.8809C14.7791 16.9679 14.8921 17.0339 15.015 17.0746C15.1378 17.1154 15.2678 17.13 15.3967 17.1175H37.6031C37.7319 17.13 37.862 17.1154 37.9848 17.0746C38.1077 17.0339 38.2207 16.9679 38.3165 16.8809C38.4124 16.7939 38.489 16.6878 38.5414 16.5695C38.5938 16.4511 38.6209 16.3231 38.6209 16.1936C38.6209 16.0642 38.5938 15.9362 38.5414 15.8178C38.489 15.6995 38.4124 15.5934 38.3165 15.5064C38.2207 15.4194 38.1077 15.3534 37.9848 15.3127C37.862 15.2719 37.7319 15.2573 37.6031 15.2698ZM23.9843 15.2698L24.2706 14.1161C24.3194 13.9208 24.4304 13.7466 24.5869 13.6198C24.7433 13.4931 24.9368 13.4207 25.138 13.4135H27.8011C28.0023 13.4207 28.1957 13.4931 28.3522 13.6198C28.5087 13.7466 28.6197 13.9208 28.6685 14.1161L28.9547 15.2698H23.9843Z" fill="#D02B20"/>
<path d="M35.7558 19.435H17.2447C17.1151 19.4355 16.987 19.4632 16.8687 19.5162C16.7505 19.5692 16.6446 19.6464 16.558 19.7429C16.4714 19.8393 16.4059 19.9528 16.3658 20.0761C16.3257 20.1993 16.3119 20.3296 16.3252 20.4585L17.8259 35.63C17.9384 36.7757 18.475 37.8379 19.3304 38.6082C20.1858 39.3786 21.2982 39.8014 22.4493 39.7937H30.5512C31.7023 39.8014 32.8148 39.3786 33.6702 38.6082C34.5256 37.8379 35.0622 36.7757 35.1747 35.63L36.6753 20.4585C36.6874 20.3303 36.6726 20.2009 36.6319 20.0787C36.5912 19.9565 36.5256 19.8441 36.4391 19.7486C36.3526 19.6532 36.2472 19.5767 36.1296 19.5242C36.0119 19.4717 35.8847 19.4443 35.7558 19.4436V19.435ZM33.3183 35.4565C33.2515 36.1414 32.9319 36.7767 32.4218 37.2387C31.9118 37.7006 31.248 37.9559 30.5599 37.9548H22.4493C21.7598 37.958 21.0938 37.7037 20.5819 37.2416C20.0701 36.7795 19.7492 36.1429 19.6822 35.4565L18.2683 21.2913H34.7496L33.3183 35.4565Z" fill="#D02B20"/>
</svg>
