<svg width="168" height="176" viewBox="0 0 168 176" fill="none" xmlns="http://www.w3.org/2000/svg">
<g filter="url(#filter0_d_3326_3471)">
<path d="M8.21191 11.967L31.5746 25.5158V102.764L8.21191 86.2579V11.967Z" fill="white"/>
</g>
<g filter="url(#filter1_d_3326_3471)">
<path d="M74.543 11.967L97.9041 26.9114V102.764L74.543 89.5329V11.967Z" fill="white"/>
</g>
<g filter="url(#filter2_d_3326_3471)">
<path d="M140.872 19.2899L164.235 31.7465V102.764L140.872 87.588V19.2899Z" fill="white"/>
</g>
<path d="M164.529 35.8557C163.973 35.8557 163.413 35.7008 162.913 35.375L120.946 8.05867L97.7699 28.7276C96.8038 29.5883 95.3938 29.7256 94.2809 29.0661L57.5115 7.26347L32.2502 27.811C31.1931 28.6701 29.6873 28.7004 28.5967 27.8829L8.68787 12.9513C7.3769 11.9676 7.11183 10.1074 8.09386 8.79639C9.07748 7.48542 10.9377 7.21876 12.2487 8.20238L30.3037 21.7432L55.3718 1.35213C56.3362 0.568106 57.6887 0.467509 58.7586 1.10144L95.4402 22.853L118.688 2.12019C119.687 1.22918 121.16 1.1174 122.282 1.84714L166.151 30.401C167.524 31.2952 167.914 33.1332 167.02 34.5064C166.451 35.3798 165.5 35.8557 164.53 35.8557H164.529Z" fill="url(#paint0_linear_3326_3471)"/>
<path opacity="0.26" d="M161.833 100.401L140.872 87.9473V26.897L146.675 82.4862" fill="#CCCCCC"/>
<path opacity="0.26" d="M95.5119 101.838L74.5508 89.3844V28.3341L80.3535 83.9234" fill="#CCCCCC"/>
<path opacity="0.26" d="M29.1746 99.845L8.21191 87.3916V26.3413L14.0147 81.9306" fill="#CCCCCC"/>
<path opacity="0.18" d="M164.528 32.101C163.973 32.101 163.412 31.9461 162.912 31.6203L120.945 4.30396L97.7696 24.9729C96.8035 25.8336 95.3936 25.9693 94.2806 25.3114L57.5112 3.50876L32.2499 24.0563C31.1928 24.9154 29.687 24.9457 28.5964 24.1282L8.68757 9.19654C8.46562 9.03048 8.2772 8.83726 8.11592 8.62808C8.10953 8.63766 8.10155 8.64565 8.09357 8.65363C7.10994 9.9646 7.37661 11.8249 8.68757 12.8085L28.5964 27.7401C29.687 28.5577 31.1928 28.5273 32.2499 27.6683L57.5112 7.12071L94.2806 28.9233C95.3936 29.5828 96.8035 29.4471 97.7696 28.5848L120.945 7.91591L162.912 35.2323C163.412 35.558 163.973 35.7129 164.528 35.7129C165.499 35.7129 166.449 35.2371 167.018 34.3636C167.722 33.281 167.628 31.911 166.884 30.9401C166.307 31.6922 165.426 32.101 164.528 32.101Z" fill="#CCCCCC"/>
<path d="M41.3047 142.764V125.491H43.4844L48.5234 135.065H48.6055L53.6328 125.491H55.8125V142.764H52.9766V135.158L53.0703 131.42H52.9766L51.6523 134.057L48.9688 139.131H48.1484L45.4648 134.057L44.1289 131.42H44.0352L44.1289 135.158V142.764H41.3047ZM62.0352 142.951C61.2852 142.951 60.6289 142.78 60.0664 142.436C59.5039 142.084 59.0664 141.616 58.7539 141.03C58.4414 140.444 58.2852 139.795 58.2852 139.084C58.2852 137.858 58.7266 136.901 59.6094 136.213C60.5 135.518 61.6641 135.17 63.1016 135.17H65.2578V137.08H63.3594C62.6094 137.08 62 137.244 61.5312 137.573C61.0703 137.893 60.8398 138.354 60.8398 138.955C60.8398 139.51 61.0078 139.955 61.3438 140.291C61.6875 140.627 62.1094 140.795 62.6094 140.795C62.9922 140.795 63.3594 140.694 63.7109 140.491C64.0625 140.28 64.3477 139.987 64.5664 139.612C64.793 139.229 64.9062 138.776 64.9062 138.252V136.741L64.8242 136.131V134.033C64.8242 133.448 64.6289 132.994 64.2383 132.674C63.8555 132.346 63.375 132.182 62.7969 132.182C62.2891 132.182 61.75 132.287 61.1797 132.498C60.6094 132.701 60.1328 132.963 59.75 133.283L58.8242 131.08C59.3633 130.729 60.0195 130.436 60.793 130.201C61.5664 129.959 62.3398 129.838 63.1133 129.838C64.4102 129.838 65.4414 130.182 66.207 130.869C66.9805 131.549 67.3672 132.502 67.3672 133.729V139.073C67.3672 139.455 67.4258 139.764 67.543 139.998C67.668 140.233 67.8438 140.405 68.0703 140.514L68.293 140.619L67.3086 142.951L66.9805 142.811C66.4492 142.584 66.0156 142.272 65.6797 141.873C65.3516 141.475 65.1641 141.092 65.1172 140.725L65.7031 141.217H64.6016L65.4336 140.83C65.168 141.448 64.7344 141.955 64.1328 142.354C63.5391 142.752 62.8398 142.951 62.0352 142.951ZM73.8594 142.951C73.0469 142.951 72.2422 142.776 71.4453 142.424C70.6562 142.073 70 141.635 69.4766 141.112L70.5078 138.768C70.9688 139.315 71.4883 139.76 72.0664 140.104C72.6523 140.44 73.1953 140.608 73.6953 140.608C74.1797 140.608 74.5664 140.463 74.8555 140.174C75.1445 139.877 75.2891 139.522 75.2891 139.108C75.2891 138.655 75.1016 138.276 74.7266 137.971C74.3516 137.666 73.8203 137.405 73.1328 137.186C72.5 136.975 71.9375 136.694 71.4453 136.342C70.9609 135.991 70.5781 135.569 70.2969 135.076C70.0156 134.576 69.875 134.006 69.875 133.366C69.875 132.639 70.0508 132.014 70.4023 131.491C70.7617 130.959 71.2383 130.553 71.832 130.272C72.4258 129.983 73.082 129.838 73.8008 129.838C74.4961 129.838 75.1719 129.967 75.8281 130.225C76.4922 130.475 77.0469 130.807 77.4922 131.221L76.4609 133.436C76.1641 133.084 75.7773 132.783 75.3008 132.533C74.8242 132.283 74.3594 132.158 73.9062 132.158C73.5 132.158 73.1523 132.28 72.8633 132.522C72.582 132.756 72.4414 133.076 72.4414 133.483C72.4414 133.881 72.6016 134.221 72.9219 134.502C73.25 134.783 73.8047 135.053 74.5859 135.311C75.1484 135.498 75.6797 135.764 76.1797 136.108C76.6875 136.444 77.0977 136.866 77.4102 137.373C77.7227 137.881 77.8789 138.487 77.8789 139.19C77.8789 139.932 77.6992 140.584 77.3398 141.147C76.9883 141.709 76.5078 142.151 75.8984 142.471C75.2891 142.791 74.6094 142.951 73.8594 142.951ZM79.9648 142.764V124.717H82.6836V131.408H83.1055L82.3906 132.147C82.5859 131.436 83 130.873 83.6328 130.459C84.2734 130.045 85.0156 129.838 85.8594 129.838C86.9375 129.838 87.7969 130.205 88.4375 130.94C89.0781 131.666 89.3984 132.639 89.3984 133.858V142.764H86.6797V134.315C86.6797 133.674 86.5 133.158 86.1406 132.768C85.7891 132.377 85.3281 132.182 84.7578 132.182C84.3438 132.182 83.9805 132.272 83.668 132.451C83.3555 132.631 83.1133 132.885 82.9414 133.213C82.7695 133.533 82.6836 133.908 82.6836 134.338V142.764H79.9648ZM91.9648 142.764V130.026H94.625V131.748H94.9648L94.3203 132.58C94.4688 132.104 94.6992 131.658 95.0117 131.244C95.332 130.83 95.7266 130.494 96.1953 130.237C96.6641 129.971 97.2188 129.838 97.8594 129.838C98.1094 129.838 98.3555 129.862 98.5977 129.908C98.8398 129.948 99.0039 129.994 99.0898 130.049L97.9648 132.733C97.9023 132.694 97.7852 132.655 97.6133 132.616C97.4414 132.576 97.2695 132.557 97.0977 132.557C96.7383 132.557 96.3711 132.666 95.9961 132.885C95.6289 133.104 95.3164 133.451 95.0586 133.928C94.8086 134.397 94.6836 135.018 94.6836 135.791V142.764H91.9648ZM104.633 142.951C103.555 142.951 102.617 142.682 101.82 142.143C101.031 141.596 100.418 140.83 99.9805 139.846C99.5508 138.854 99.3359 137.69 99.3359 136.354C99.3359 135.026 99.5508 133.877 99.9805 132.908C100.418 131.932 101.031 131.178 101.82 130.647C102.617 130.108 103.555 129.838 104.633 129.838C105.711 129.838 106.645 130.108 107.434 130.647C108.23 131.178 108.844 131.932 109.273 132.908C109.711 133.877 109.93 135.026 109.93 136.354C109.93 137.69 109.711 138.854 109.273 139.846C108.844 140.83 108.23 141.596 107.434 142.143C106.645 142.682 105.711 142.951 104.633 142.951ZM104.633 140.549C105.453 140.549 106.102 140.174 106.578 139.424C107.055 138.674 107.293 137.651 107.293 136.354C107.293 135.088 107.055 134.088 106.578 133.354C106.102 132.612 105.453 132.241 104.633 132.241C103.812 132.241 103.164 132.612 102.688 133.354C102.211 134.088 101.973 135.088 101.973 136.354C101.973 137.635 102.211 138.655 102.688 139.412C103.164 140.17 103.812 140.549 104.633 140.549ZM115.836 142.951C115.102 142.951 114.441 142.772 113.855 142.412C113.27 142.045 112.805 141.541 112.461 140.901C112.125 140.26 111.957 139.526 111.957 138.698V130.026H114.676V138.498C114.676 139.1 114.852 139.604 115.203 140.01C115.555 140.416 116.027 140.619 116.621 140.619C117.004 140.619 117.352 140.53 117.664 140.35C117.977 140.162 118.223 139.912 118.402 139.6C118.59 139.28 118.684 138.92 118.684 138.522V130.026H121.402V139.213C121.402 139.533 121.477 139.807 121.625 140.033C121.781 140.26 122.02 140.451 122.34 140.608L121.285 142.951C120.621 142.694 120.098 142.35 119.715 141.92C119.34 141.483 119.137 141.018 119.105 140.526L119.656 141.135H118.613L119.539 140.479C119.242 141.205 118.762 141.799 118.098 142.26C117.434 142.721 116.68 142.951 115.836 142.951ZM129.031 142.951C128.016 142.951 127.121 142.737 126.348 142.307C125.582 141.877 124.98 141.283 124.543 140.526C124.105 139.76 123.887 138.877 123.887 137.877L126.699 137.854C126.699 138.627 126.914 139.264 127.344 139.764C127.773 140.256 128.336 140.502 129.031 140.502C129.5 140.502 129.91 140.385 130.262 140.151C130.613 139.908 130.887 139.584 131.082 139.178C131.277 138.764 131.375 138.303 131.375 137.795C131.375 137.225 131.25 136.729 131 136.307C130.758 135.877 130.422 135.549 129.992 135.323C129.562 135.088 129.066 134.971 128.504 134.971H127.766L127.789 132.698H128.609C129.289 132.698 129.848 132.451 130.285 131.959C130.73 131.459 130.957 130.834 130.965 130.084C130.973 129.358 130.801 128.787 130.449 128.373C130.098 127.959 129.633 127.752 129.055 127.752C128.461 127.752 127.98 127.959 127.613 128.373C127.246 128.78 127.062 129.319 127.062 129.991H124.332C124.324 129.045 124.516 128.221 124.906 127.518C125.305 126.815 125.859 126.272 126.57 125.889C127.289 125.498 128.121 125.303 129.066 125.303C129.996 125.303 130.805 125.491 131.492 125.866C132.188 126.241 132.727 126.764 133.109 127.436C133.492 128.108 133.684 128.889 133.684 129.78C133.684 130.647 133.5 131.416 133.133 132.088C132.766 132.752 132.254 133.272 131.598 133.647C130.941 134.014 130.184 134.186 129.324 134.162V133.448C130.285 133.408 131.129 133.576 131.855 133.951C132.582 134.319 133.148 134.85 133.555 135.545C133.961 136.233 134.164 137.045 134.164 137.983C134.164 138.951 133.945 139.811 133.508 140.561C133.07 141.303 132.465 141.889 131.691 142.319C130.926 142.741 130.039 142.951 129.031 142.951Z" fill="white"/>
<path d="M67.2444 161.849C65.112 162.679 63.0987 163.558 61.4904 164.523C59.7822 165.554 58.648 166.943 58.648 168.263C58.648 171.106 61.7621 173.052 66.382 173.052C68.0569 173.052 69.5793 172.85 70.6968 172.562L70.8161 172.867C69.9537 173.51 69.0219 174.17 67.9737 174.761C67.433 175.066 66.4347 175.251 65.0814 175.251C60.969 175.251 57.5 173.305 57.5 168.94C57.5 166.724 58.6841 164.897 60.3091 163.474C58.4817 162.171 57.7718 161.259 57.7718 159.786C57.7718 159.06 58.0269 158.061 58.5343 157.196C59.3136 155.91 60.4644 155.216 61.6817 155.216C63.1708 155.216 64.2884 155.96 65.3199 157.349L65.0482 157.704C64.1691 157.299 63.3234 157.146 62.4249 157.146C60.5476 157.146 59.0418 158.095 59.0418 158.788C59.0418 159.551 59.4827 160.158 60.5143 160.937C61.1243 161.378 61.9701 161.849 62.3084 161.849C62.6467 161.849 62.9518 161.68 63.2402 161.544C64.7626 160.818 66.2849 160.158 67.8101 159.581L67.8961 159.631L67.2527 161.847L67.2444 161.849Z" fill="white"/>
<path d="M77.1944 165.371C75.2144 165.371 73.5062 164.439 73.5062 162.191C73.5062 161.073 73.9305 160.127 74.5905 159.279C75.3697 158.433 76.2155 157.876 77.0113 157.876C77.993 157.876 78.9053 158.569 79.5653 159.786C80.2086 160.954 80.6495 162.562 80.6495 164.439C80.6495 166.015 80.2613 167.501 79.3628 168.89C77.8571 171.175 76.4179 172.104 75.0147 172.104C73.4591 172.104 71.8507 171.597 70.1592 170.446L70.4143 169.905C71.2434 170.329 72.0559 170.479 72.8851 170.479C74.5932 170.479 76.3042 169.617 77.8599 167.889C78.6225 167.06 79.3323 166.062 79.4516 165.063C78.7251 165.266 77.9625 165.368 77.1999 165.368L77.1944 165.371ZM76.4484 160.005C75.6526 160.005 74.5544 160.884 74.5544 161.511C74.5544 162.559 76.0435 163.305 77.4301 163.305C78.0734 163.305 78.7334 163.239 79.3407 163.086C78.8831 161.378 77.9015 160.005 76.4484 160.005Z" fill="white"/>
<path d="M94.2509 161.614L94.2842 161.733C94.1982 162.071 94.1816 162.41 94.1816 162.748C94.1816 163.899 95.1965 164.98 96.3307 164.98C96.9074 164.98 97.3123 164.878 97.7532 164.539C98.2108 164.218 98.5657 163.66 99.0898 161.949L100.224 161.356L100.291 161.422C100.035 162.759 99.833 163.486 99.833 163.996C99.833 164.453 100.121 164.977 100.781 164.977C101.339 164.977 101.694 164.775 101.949 164.606C102.456 164.268 102.728 163.71 102.93 162.981C102.997 162.709 103.1 162.387 103.269 161.644L104.555 160.782L104.622 160.832C104.403 161.578 104.198 162.523 104.198 163.15C104.198 164.487 105.365 164.977 106.974 164.977H107.345V167.143H106.921C104.822 167.143 103.859 166.5 103.435 165.551H103.333C102.384 166.669 101.419 167.143 100.44 167.143C99.7304 167.143 98.9179 166.924 98.6129 165.74H98.5269C97.817 166.705 96.9712 167.143 95.9896 167.143C94.3812 167.143 93.2138 165.856 93.2304 163.91C91.5721 164.434 90.3714 164.805 89.3038 165.332C89.4397 165.757 89.5062 166.195 89.5062 166.586C89.5062 167.296 89.473 168.008 89.4397 168.718C89.3898 169.919 88.9988 170.884 88.1364 171.932C86.6805 173.455 85.4965 173.995 84.3956 173.995C83.2115 173.995 81.8416 173.438 80.2998 172.354L80.5549 171.879C81.2648 172.201 81.9414 172.32 82.6181 172.32C84.2264 172.32 85.6462 171.577 86.9828 170.443C88.0671 169.326 88.6577 168.496 88.6577 167.684C88.6577 167.127 88.0809 166.381 87.4209 165.654C87.5235 165.044 87.6927 164.351 87.9284 163.608C89.8917 162.795 92.0075 162.102 94.2398 161.611L94.2509 161.614ZM98.3966 158.738C97.7033 158.078 97.0932 157.537 96.4166 156.977C96.8575 156.367 97.3289 155.81 97.7532 155.369C98.4465 155.91 99.0233 156.47 99.6832 157.18C99.2091 157.856 98.8707 158.297 98.3966 158.735V158.738ZM99.3089 155.133C98.6156 154.473 98.0056 153.932 97.329 153.372C97.7699 152.762 98.2413 152.205 98.6655 151.764C99.3588 152.305 99.9356 152.865 100.596 153.575C100.121 154.251 99.7831 154.692 99.3089 155.13V155.133ZM101.66 158.516C100.967 157.856 100.357 157.316 99.6805 156.755C100.121 156.145 100.593 155.588 101.017 155.147C101.71 155.688 102.287 156.248 102.947 156.958C102.473 157.634 102.135 158.075 101.66 158.513V158.516Z" fill="white"/>
<path d="M107.72 164.98C108.973 164.98 109.952 164.118 110.562 161.985C110.748 161.309 111.189 160.615 111.815 159.939C112.442 159.362 113.135 158.957 113.948 158.957C116.011 158.957 117.231 161.8 117.5 164.761C117.145 166.3 116.518 166.943 115.706 166.943C114.031 166.943 112.356 166.181 110.681 164.947H110.562C110.121 166.436 109.159 167.146 107.634 167.146H107.345C106.413 167.146 106.161 166.469 106.161 166.012C106.161 165.607 106.433 164.98 107.345 164.98H107.717H107.72ZM113.643 164.304C114.286 164.575 114.979 164.794 115.656 164.794C115.911 164.794 116.13 164.761 116.197 164.609C115.706 162.055 114.588 160.92 113.523 160.92C112.558 160.92 111.746 161.461 111.255 162.579C111.763 163.341 112.625 163.882 113.64 164.304H113.643Z" fill="white"/>
<defs>
<filter id="filter0_d_3326_3471" x="0.210373" y="6.17221" width="34.3994" height="101.834" filterUnits="userSpaceOnUse" color-interpolation-filters="sRGB">
<feFlood flood-opacity="0" result="BackgroundImageFix"/>
<feColorMatrix in="SourceAlpha" type="matrix" values="0 0 0 0 0 0 0 0 0 0 0 0 0 0 0 0 0 0 127 0" result="hardAlpha"/>
<feOffset dx="-2.48302" dy="-0.276246"/>
<feGaussianBlur stdDeviation="2.75926"/>
<feColorMatrix type="matrix" values="0 0 0 0 0 0 0 0 0 0 0 0 0 0 0 0 0 0 0.47 0"/>
<feBlend mode="normal" in2="BackgroundImageFix" result="effect1_dropShadow_3326_3471"/>
<feBlend mode="normal" in="SourceGraphic" in2="effect1_dropShadow_3326_3471" result="shape"/>
</filter>
<filter id="filter1_d_3326_3471" x="66.5414" y="6.17221" width="34.3984" height="101.834" filterUnits="userSpaceOnUse" color-interpolation-filters="sRGB">
<feFlood flood-opacity="0" result="BackgroundImageFix"/>
<feColorMatrix in="SourceAlpha" type="matrix" values="0 0 0 0 0 0 0 0 0 0 0 0 0 0 0 0 0 0 127 0" result="hardAlpha"/>
<feOffset dx="-2.48302" dy="-0.276246"/>
<feGaussianBlur stdDeviation="2.75926"/>
<feColorMatrix type="matrix" values="0 0 0 0 0 0 0 0 0 0 0 0 0 0 0 0 0 0 0.47 0"/>
<feBlend mode="normal" in2="BackgroundImageFix" result="effect1_dropShadow_3326_3471"/>
<feBlend mode="normal" in="SourceGraphic" in2="effect1_dropShadow_3326_3471" result="shape"/>
</filter>
<filter id="filter2_d_3326_3471" x="132.871" y="13.4951" width="34.3994" height="94.5111" filterUnits="userSpaceOnUse" color-interpolation-filters="sRGB">
<feFlood flood-opacity="0" result="BackgroundImageFix"/>
<feColorMatrix in="SourceAlpha" type="matrix" values="0 0 0 0 0 0 0 0 0 0 0 0 0 0 0 0 0 0 127 0" result="hardAlpha"/>
<feOffset dx="-2.48302" dy="-0.276246"/>
<feGaussianBlur stdDeviation="2.75926"/>
<feColorMatrix type="matrix" values="0 0 0 0 0 0 0 0 0 0 0 0 0 0 0 0 0 0 0.47 0"/>
<feBlend mode="normal" in2="BackgroundImageFix" result="effect1_dropShadow_3326_3471"/>
<feBlend mode="normal" in="SourceGraphic" in2="effect1_dropShadow_3326_3471" result="shape"/>
</filter>
<linearGradient id="paint0_linear_3326_3471" x1="98.4054" y1="68.689" x2="62.1374" y2="-87.4648" gradientUnits="userSpaceOnUse">
<stop offset="0.01" stop-color="#E8D2A2"/>
<stop offset="0.18" stop-color="#E5CFA0"/>
<stop offset="0.29" stop-color="#DCC79A"/>
<stop offset="0.38" stop-color="#CDBA90"/>
<stop offset="0.46" stop-color="#B8A782"/>
<stop offset="0.54" stop-color="#9D8E71"/>
<stop offset="0.61" stop-color="#7C705B"/>
<stop offset="0.67" stop-color="#544C40"/>
<stop offset="0.74" stop-color="#231F20"/>
</linearGradient>
</defs>
</svg>
