<?xml version="1.0" encoding="UTF-8"?>
<svg xmlns="http://www.w3.org/2000/svg" version="1.1" xmlns:xlink="http://www.w3.org/1999/xlink" viewBox="0 0 160 176">
  <defs>
    <style>
      .cls-1 {
        fill: url(#linear-gradient);
      }

      .cls-1, .cls-2, .cls-3, .cls-4, .cls-5, .cls-6, .cls-7 {
        stroke-width: 0px;
      }

      .cls-8 {
        isolation: isolate;
      }

      .cls-2 {
        fill: url(#linear-gradient-5);
      }

      .cls-3 {
        fill: url(#linear-gradient-2);
      }

      .cls-9 {
        mix-blend-mode: soft-light;
        opacity: .5;
      }

      .cls-4 {
        fill: #347278;
      }

      .cls-5 {
        fill: url(#linear-gradient-3);
      }

      .cls-6 {
        fill: #357177;
        opacity: .3;
      }

      .cls-7 {
        fill: url(#linear-gradient-4);
      }
    </style>
    <linearGradient id="linear-gradient" x1="102.1" y1="109.6" x2="19.6" y2="24.2" gradientUnits="userSpaceOnUse">
      <stop offset="0" stop-color="#357177" stop-opacity=".1"/>
      <stop offset="1" stop-color="#fff" stop-opacity="0"/>
    </linearGradient>
    <linearGradient id="linear-gradient-2" x1="43.9" y1="21.7" x2="-24.5" y2="107.5" gradientUnits="userSpaceOnUse">
      <stop offset="0" stop-color="#357177"/>
      <stop offset=".6" stop-color="#6ca8a7"/>
    </linearGradient>
    <linearGradient id="linear-gradient-3" x1="104.6" y1="22.2" x2="34.6" y2="110.1" xlink:href="#linear-gradient-2"/>
    <linearGradient id="linear-gradient-4" x1="164.6" y1="27.1" x2="100.4" y2="107.7" xlink:href="#linear-gradient-2"/>
    <linearGradient id="linear-gradient-5" x1="90.1" y1="64" x2="56.6" y2="-80.1" gradientUnits="userSpaceOnUse">
      <stop offset="0" stop-color="#e8d2a2"/>
      <stop offset=".2" stop-color="#e5cfa0"/>
      <stop offset=".3" stop-color="#dcc79a"/>
      <stop offset=".4" stop-color="#cdba90"/>
      <stop offset=".5" stop-color="#b8a782"/>
      <stop offset=".5" stop-color="#9d8e71"/>
      <stop offset=".6" stop-color="#7c705b"/>
      <stop offset=".7" stop-color="#544c40"/>
      <stop offset=".7" stop-color="#282323"/>
      <stop offset=".7" stop-color="#231f20"/>
    </linearGradient>
  </defs>
  <g class="cls-8">
    <g id="Layer_1" data-name="Layer 1">
      <path class="cls-1" d="M147.5,89.1l-46.4-33.5c-1.1-.7-2.4-1.1-3.7-1l-80.7,1.7c-5.5.1-8.5,6.4-5.2,10.8l10,26.5c1.3,1.7,3.3,2.7,5.4,2.6l122.8.8c3-5.7-19.3-20.6-2.2-7.9Z"/>
      <g>
        <image class="cls-9" width="126" height="189" transform="translate(-60.8 -41.8)" xlink:href="Frame 1984078094-1.png"/>
        <polygon class="cls-3" points="6.9 12.7 28.4 25.2 28.4 96.5 6.9 81.2 6.9 12.7"/>
      </g>
      <g>
        <image class="cls-9" width="127" height="189" transform="translate(.2 -41.8)" xlink:href="Frame 1984078094-2.png"/>
        <polygon class="cls-5" points="68 12.7 89.6 26.5 89.6 96.5 68 84.2 68 12.7"/>
      </g>
      <g>
        <image class="cls-9" width="127" height="182" transform="translate(61.2 -34.8)" xlink:href="Frame 1984078094-3.png"/>
        <polygon class="cls-7" points="129.2 19.5 150.8 30.9 150.8 96.5 129.2 82.5 129.2 19.5"/>
      </g>
      <path class="cls-2" d="M151,33.7c-.5,0-1-.1-1.5-.4l-38.7-25.2-21.4,19.1c-.9.8-2.2.9-3.2.3L52.3,7.3l-23.3,19c-1,.8-2.4.8-3.4,0L7.3,12.6c-1.2-.9-1.5-2.6-.5-3.8s2.6-1.5,3.8-.5l16.7,12.5L50.4,1.9c.9-.7,2.1-.8,3.1-.2l33.8,20.1L108.8,2.6c.9-.8,2.3-.9,3.3-.3l40.5,26.3c1.3.8,1.6,2.5.8,3.8-.5.8-1.4,1.2-2.3,1.2Z"/>
      <polyline class="cls-6" points="148.6 94.3 129.2 82.8 129.2 26.5 134.6 77.7"/>
      <polyline class="cls-6" points="87.4 94.3 68.1 82.8 68.1 26.5 73.4 77.7"/>
      <polyline class="cls-6" points="26.2 93.8 6.9 82.3 6.9 26 12.2 77.2"/>
      <path class="cls-4" d="M33.8,142.8v-17.3h2.2l5,9.6h0l5-9.6h2.2v17.3h-2.8v-11.3c0,0,0,0,0,0l-1.3,2.6-2.7,5.1h-.8l-2.7-5.1-1.3-2.6h0v3.7c0,0,0,7.6,0,7.6h-2.8ZM54.5,142.9c-.8,0-1.4-.2-2-.5-.6-.4-1-.8-1.3-1.4s-.5-1.2-.5-1.9c0-1.2.4-2.2,1.3-2.9.9-.7,2.1-1,3.5-1h2.2v1.9h-1.9c-.8,0-1.4.2-1.8.5-.5.3-.7.8-.7,1.4s.2,1,.5,1.3c.3.3.8.5,1.3.5s.8-.1,1.1-.3c.4-.2.6-.5.9-.9.2-.4.3-.8.3-1.4v-2.1c0,0,0-2.1,0-2.1,0-.6-.2-1-.6-1.4-.4-.3-.9-.5-1.4-.5s-1,.1-1.6.3c-.6.2-1,.5-1.4.8l-.9-2.2c.5-.4,1.2-.6,2-.9.8-.2,1.5-.4,2.3-.4,1.3,0,2.3.3,3.1,1,.8.7,1.2,1.6,1.2,2.9v5.3c0,.4,0,.7.2.9.1.2.3.4.5.5h.2c0,.1-1,2.4-1,2.4h-.3c-.5-.4-1-.7-1.3-1.1-.3-.4-.5-.8-.6-1.1l.6.5h-1.1l.8-.4c-.3.6-.7,1.1-1.3,1.5-.6.4-1.3.6-2.1.6ZM66.4,142.9c-.8,0-1.6-.2-2.4-.5-.8-.4-1.4-.8-2-1.3l1-2.3c.5.5,1,1,1.6,1.3.6.3,1.1.5,1.6.5s.9-.1,1.2-.4c.3-.3.4-.7.4-1.1s-.2-.8-.6-1.1c-.4-.3-.9-.6-1.6-.8-.6-.2-1.2-.5-1.7-.8-.5-.4-.9-.8-1.1-1.3-.3-.5-.4-1.1-.4-1.7s.2-1.4.5-1.9c.4-.5.8-.9,1.4-1.2.6-.3,1.2-.4,2-.4s1.4.1,2,.4c.7.2,1.2.6,1.7,1l-1,2.2c-.3-.4-.7-.7-1.2-.9-.5-.2-.9-.4-1.4-.4s-.8.1-1,.4c-.3.2-.4.6-.4,1s.2.7.5,1c.3.3.9.6,1.7.8.6.2,1.1.5,1.6.8.5.3.9.8,1.2,1.3.3.5.5,1.1.5,1.8s-.2,1.4-.5,2c-.4.6-.8,1-1.4,1.3-.6.3-1.3.5-2,.5ZM72.5,142.8v-18h2.7v6.7h.4l-.7.7c.2-.7.6-1.3,1.2-1.7.6-.4,1.4-.6,2.2-.6s1.9.4,2.6,1.1c.6.7,1,1.7,1,2.9v8.9h-2.7v-8.4c0-.6-.2-1.2-.5-1.5-.4-.4-.8-.6-1.4-.6s-.8,0-1.1.3c-.3.2-.6.4-.7.8-.2.3-.3.7-.3,1.1v8.4h-2.7ZM84.5,142.8v-12.7h2.7v1.7h.3l-.6.8c.1-.5.4-.9.7-1.3.3-.4.7-.8,1.2-1,.5-.3,1-.4,1.7-.4s.5,0,.7,0c.2,0,.4,0,.5.1l-1.1,2.7c0,0-.2,0-.4-.1-.2,0-.3,0-.5,0-.4,0-.7.1-1.1.3-.4.2-.7.6-.9,1-.2.5-.4,1.1-.4,1.9v7h-2.7ZM97.1,142.9c-1.1,0-2-.3-2.8-.8-.8-.5-1.4-1.3-1.8-2.3-.4-1-.6-2.2-.6-3.5s.2-2.5.6-3.4c.4-1,1.1-1.7,1.8-2.3.8-.5,1.7-.8,2.8-.8s2,.3,2.8.8c.8.5,1.4,1.3,1.8,2.3.4,1,.7,2.1.7,3.4s-.2,2.5-.7,3.5c-.4,1-1,1.8-1.8,2.3-.8.5-1.7.8-2.8.8ZM97.1,140.5c.8,0,1.5-.4,1.9-1.1.5-.8.7-1.8.7-3.1s-.2-2.3-.7-3c-.5-.7-1.1-1.1-1.9-1.1s-1.5.4-1.9,1.1c-.5.7-.7,1.7-.7,3s.2,2.3.7,3.1,1.1,1.1,1.9,1.1ZM108.3,142.9c-.7,0-1.4-.2-2-.5-.6-.4-1.1-.9-1.4-1.5-.3-.6-.5-1.4-.5-2.2v-8.7h2.7v8.5c0,.6.2,1.1.5,1.5.4.4.8.6,1.4.6s.7,0,1-.3c.3-.2.6-.4.7-.8.2-.3.3-.7.3-1.1v-8.5h2.7v9.2c0,.3,0,.6.2.8.2.2.4.4.7.6l-1.1,2.3c-.7-.3-1.2-.6-1.6-1-.4-.4-.6-.9-.6-1.4l.6.6h-1l.9-.7c-.3.7-.8,1.3-1.4,1.8s-1.4.7-2.3.7ZM121.5,142.9c-1,0-1.9-.2-2.7-.6-.8-.4-1.4-1-1.8-1.8-.4-.8-.7-1.6-.7-2.6h2.8c0,.8.2,1.4.6,1.9.4.5,1,.7,1.7.7s.9-.1,1.2-.4c.4-.2.6-.6.8-1,.2-.4.3-.9.3-1.4s-.1-1.1-.4-1.5c-.2-.4-.6-.8-1-1-.4-.2-.9-.4-1.5-.4h-.7v-2.3h.8c.7,0,1.2-.2,1.7-.7.4-.5.7-1.1.7-1.9,0-.7-.2-1.3-.5-1.7-.4-.4-.8-.6-1.4-.6s-1.1.2-1.4.6c-.4.4-.6.9-.6,1.6h-2.7c0-.9.2-1.8.6-2.5.4-.7,1-1.2,1.7-1.6.7-.4,1.6-.6,2.5-.6s1.7.2,2.4.6c.7.4,1.2.9,1.6,1.6.4.7.6,1.5.6,2.3s-.2,1.6-.6,2.3c-.4.7-.9,1.2-1.5,1.6-.7.4-1.4.5-2.3.5v-.7c1,0,1.8.1,2.5.5.7.4,1.3.9,1.7,1.6.4.7.6,1.5.6,2.4s-.2,1.8-.7,2.6c-.4.7-1,1.3-1.8,1.8-.8.4-1.7.6-2.7.6Z"/>
      <g>
        <path class="cls-4" d="M59.7,161.8c-2.1.8-4.1,1.7-5.8,2.7-1.7,1-2.8,2.4-2.8,3.7,0,2.8,3.1,4.8,7.7,4.8s3.2-.2,4.3-.5v.3c-.7.6-1.7,1.3-2.7,1.9-.5.3-1.5.5-2.9.5-4.1,0-7.6-1.9-7.6-6.3s1.2-4,2.8-5.5c-1.8-1.3-2.5-2.2-2.5-3.7s.3-1.7.8-2.6c.8-1.3,1.9-2,3.1-2s2.6.7,3.6,2.1l-.3.4c-.9-.4-1.7-.6-2.6-.6-1.9,0-3.4.9-3.4,1.6s.4,1.4,1.5,2.1c.6.4,1.5.9,1.8.9s.6-.2.9-.3c1.5-.7,3-1.4,4.6-2h0c0,0-.6,2.3-.6,2.3h0Z"/>
        <path class="cls-4" d="M69.7,165.4c-2,0-3.7-.9-3.7-3.2s.4-2.1,1.1-2.9c.8-.8,1.6-1.4,2.4-1.4s1.9.7,2.6,1.9c.6,1.2,1.1,2.8,1.1,4.7s-.4,3.1-1.3,4.4c-1.5,2.3-2.9,3.2-4.3,3.2s-3.2-.5-4.9-1.7l.3-.5c.8.4,1.6.6,2.5.6,1.7,0,3.4-.9,5-2.6.8-.8,1.5-1.8,1.6-2.8-.7.2-1.5.3-2.3.3h0ZM68.9,160c-.8,0-1.9.9-1.9,1.5,0,1,1.5,1.8,2.9,1.8s1.3,0,1.9-.2c-.5-1.7-1.4-3.1-2.9-3.1Z"/>
        <path class="cls-4" d="M86.8,161.6h0c0,.5-.1.8-.1,1.1,0,1.2,1,2.2,2.1,2.2s1-.1,1.4-.4c.5-.3.8-.9,1.3-2.6l1.1-.6h0c-.3,1.4-.5,2.1-.5,2.6s.3,1,.9,1,.9-.2,1.2-.4c.5-.3.8-.9,1-1.6,0-.3.2-.6.3-1.3l1.3-.9h0c-.2.8-.4,1.7-.4,2.4,0,1.3,1.2,1.8,2.8,1.8h.4v2.2h-.4c-2.1,0-3.1-.6-3.5-1.6h-.1c-.9,1.1-1.9,1.6-2.9,1.6s-1.5-.2-1.8-1.4h0c-.7,1-1.6,1.4-2.5,1.4-1.6,0-2.8-1.3-2.8-3.2-1.7.5-2.9.9-3.9,1.4.1.4.2.9.2,1.3,0,.7,0,1.4,0,2.1,0,1.2-.4,2.2-1.3,3.2-1.5,1.5-2.6,2.1-3.7,2.1s-2.6-.6-4.1-1.6l.3-.5c.7.3,1.4.4,2.1.4,1.6,0,3-.7,4.4-1.9,1.1-1.1,1.7-1.9,1.7-2.8s-.6-1.3-1.2-2c.1-.6.3-1.3.5-2,2-.8,4.1-1.5,6.3-2h0ZM90.9,158.7c-.7-.7-1.3-1.2-2-1.8.4-.6.9-1.2,1.3-1.6.7.5,1.3,1.1,1.9,1.8-.5.7-.8,1.1-1.3,1.6h0ZM91.8,155.1c-.7-.7-1.3-1.2-2-1.8.4-.6.9-1.2,1.3-1.6.7.5,1.3,1.1,1.9,1.8-.5.7-.8,1.1-1.3,1.6h0ZM94.2,158.5c-.7-.7-1.3-1.2-2-1.8.4-.6.9-1.2,1.3-1.6.7.5,1.3,1.1,1.9,1.8-.5.7-.8,1.1-1.3,1.6h0Z"/>
        <path class="cls-4" d="M100.2,165c1.3,0,2.2-.9,2.8-3,.2-.7.6-1.4,1.3-2,.6-.6,1.3-1,2.1-1,2.1,0,3.3,2.8,3.6,5.8-.4,1.5-1,2.2-1.8,2.2-1.7,0-3.3-.8-5-2h-.1c-.4,1.5-1.4,2.2-2.9,2.2h-.3c-.9,0-1.2-.7-1.2-1.1s.3-1,1.2-1h.4ZM106.1,164.3c.6.3,1.3.5,2,.5s.5,0,.5-.2c-.5-2.6-1.6-3.7-2.7-3.7s-1.8.5-2.3,1.7c.5.8,1.4,1.3,2.4,1.7h0Z"/>
      </g>
    </g>
  </g>
</svg>