<svg width="101" height="100" viewBox="0 0 101 100" fill="none" xmlns="http://www.w3.org/2000/svg">
<mask id="mask0_2734_16526" style="mask-type:luminance" maskUnits="userSpaceOnUse" x="0" y="0" width="101" height="101">
<path d="M100.498 0.000732422H0.498047V100.001H100.498V0.000732422Z" fill="white"/>
</mask>
<g mask="url(#mask0_2734_16526)">
<path d="M100.494 0.0012207H0.494141V100.001H100.494V0.0012207Z" fill="white"/>
<path d="M100.494 0.0012207H0.494141V100.001H100.494V0.0012207Z" fill="url(#paint0_linear_2734_16526)"/>
<path opacity="0.3" d="M48.8052 -58.3479L-58.668 49.1252L-3.81896 103.974L103.654 -3.49891L48.8052 -58.3479Z" fill="url(#paint1_linear_2734_16526)"/>
<path opacity="0.3" d="M32.9439 -74.2095L-74.5293 33.2637L-17.9608 89.8322L89.5124 -17.6409L32.9439 -74.2095Z" fill="url(#paint2_linear_2734_16526)"/>
<path opacity="0.3" d="M32.9439 -74.2095L-74.5293 33.2637L-32.1029 75.6901L75.3703 -31.7831L32.9439 -74.2095Z" fill="url(#paint3_linear_2734_16526)"/>
</g>
<defs>
<linearGradient id="paint0_linear_2734_16526" x1="0.494141" y1="50.0012" x2="100.494" y2="50.0012" gradientUnits="userSpaceOnUse">
<stop stop-color="#347278"/>
<stop offset="1" stop-color="#1D5055"/>
</linearGradient>
<linearGradient id="paint1_linear_2734_16526" x1="103.654" y1="-3.49877" x2="-33.5335" y2="-45.1545" gradientUnits="userSpaceOnUse">
<stop stop-color="white" stop-opacity="0.6"/>
<stop offset="1" stop-color="white" stop-opacity="0"/>
</linearGradient>
<linearGradient id="paint2_linear_2734_16526" x1="89.5125" y1="-17.6409" x2="-51.5267" y2="-58.4807" gradientUnits="userSpaceOnUse">
<stop stop-color="white" stop-opacity="0.6"/>
<stop offset="1" stop-color="white" stop-opacity="0"/>
</linearGradient>
<linearGradient id="paint3_linear_2734_16526" x1="75.3703" y1="-31.7831" x2="-31.9474" y2="-76.3461" gradientUnits="userSpaceOnUse">
<stop stop-color="white" stop-opacity="0.6"/>
<stop offset="1" stop-color="white" stop-opacity="0"/>
</linearGradient>
</defs>
</svg>
