<svg width="93" height="69" viewBox="0 0 93 69" fill="none" xmlns="http://www.w3.org/2000/svg">
<path d="M20.5408 19.6739L3.28906 31.2142L20.2819 56.6169L37.5336 45.0766L20.5408 19.6739Z" fill="#E8E8E8"/>
<path d="M28.6195 43.8764L28.4242 45.088L19.8477 43.8518L20.0429 42.6402L28.6195 43.8764Z" fill="#3D3D3D"/>
<path d="M24.299 39.5533L25.529 39.7301L24.1652 48.1744L22.9336 47.9961L24.299 39.5533Z" fill="#3D3D3D"/>
<path d="M16.407 28.8211C16.4193 28.838 14.691 30.0173 12.5461 31.4503C10.4012 32.8833 8.65299 34.0334 8.64069 34.015C8.62839 33.9965 10.3566 32.8187 12.5015 31.3842C14.6465 29.9496 16.387 28.8026 16.407 28.8211Z" fill="#3D3D3D"/>
<path d="M22.7454 27.2282C22.7577 27.2466 19.8824 29.1901 16.3245 31.5703C12.7665 33.9505 9.86667 35.8647 9.85744 35.8478C9.84822 35.8309 12.7173 33.8843 16.2799 31.5042C19.8424 29.124 22.7331 27.2097 22.7454 27.2282Z" fill="#3D3D3D"/>
<path d="M24.0169 29.1286C24.0292 29.147 21.1539 31.0921 17.596 33.4722C14.038 35.8524 11.1382 37.7667 11.1289 37.7482C11.1197 37.7297 13.9919 35.7863 17.5514 33.4046C21.1109 31.0229 24.0046 29.1101 24.0169 29.1286Z" fill="#3D3D3D"/>
<path d="M25.2889 31.0309C25.3012 31.0494 22.4259 32.9944 18.868 35.373C15.31 37.7516 12.4102 39.669 12.4102 39.6505C12.4102 39.6321 15.2716 37.6871 18.8311 35.3069C22.3905 32.9268 25.2766 31.0125 25.2889 31.0309Z" fill="#3D3D3D"/>
<path d="M26.5544 32.9324C26.5667 32.9509 23.6914 34.8944 20.1335 37.2745C16.5755 39.6547 13.6757 41.569 13.668 41.5505C13.6603 41.5321 16.534 39.5886 20.0966 37.2084C23.6591 34.8283 26.5544 32.914 26.5544 32.9324Z" fill="#3D3D3D"/>
<path d="M78.2289 36.6953L63.7402 46.3872L78.0111 67.7208L92.4997 58.0289L78.2289 36.6953Z" fill="#E8E8E8"/>
<path d="M85.0126 57.0247L84.8481 58.0426L77.6445 57.0047L77.8106 55.9869L85.0126 57.0247Z" fill="#3D3D3D"/>
<path d="M81.3873 53.3951L82.4205 53.5442L81.275 60.6355L80.2402 60.4863L81.3873 53.3951Z" fill="#3D3D3D"/>
<path d="M74.7525 44.3887C74.7648 44.4072 73.3149 45.3989 71.5128 46.6028C69.7108 47.8068 68.2409 48.7693 68.2286 48.7554C68.2163 48.7416 69.6678 47.7468 71.4683 46.5413C73.2688 45.3359 74.7402 44.3626 74.7525 44.3887Z" fill="#3D3D3D"/>
<path d="M80.079 43.0444C80.0913 43.0629 77.6789 44.6988 74.6975 46.6961C71.7161 48.6934 69.276 50.3017 69.2637 50.2833C69.2514 50.2648 71.6639 48.6289 74.6452 46.63C77.6266 44.6312 80.0621 43.026 80.079 43.0444Z" fill="#3D3D3D"/>
<path d="M81.1474 44.6403C81.1597 44.6588 78.7472 46.2947 75.7659 48.2936C72.7845 50.2924 70.3444 51.8976 70.3321 51.8792C70.3198 51.8607 72.7245 50.2324 75.7136 48.2336C78.7026 46.2348 81.1381 44.6234 81.1474 44.6403Z" fill="#3D3D3D"/>
<path d="M82.2157 46.234C82.228 46.2525 79.814 47.8885 76.8342 49.8873C73.8544 51.8861 71.4127 53.4914 71.4004 53.4729C71.3881 53.4545 73.8006 51.82 76.7819 49.8196C79.7633 47.8193 82.205 46.2187 82.2157 46.234Z" fill="#3D3D3D"/>
<path d="M83.2919 47.8347C83.3042 47.8531 80.8918 49.4876 77.9104 51.4864C74.929 53.4852 72.4889 55.0905 72.4766 55.0735C72.4643 55.0566 74.8768 53.4191 77.8581 51.4203C80.8395 49.4214 83.2719 47.8162 83.2919 47.8347Z" fill="#3D3D3D"/>
<path d="M55.307 20.6082L39.498 12.1529L27.0477 35.431L42.8567 43.8864L55.307 20.6082Z" fill="#E8E8E8"/>
<path d="M40.1503 36.6038L39.1478 36.9467L36.6016 29.9092L37.6056 29.5648L40.1503 36.6038Z" fill="#3D3D3D"/>
<path d="M41.689 31.5553L42.055 32.5655L35.0652 34.9595L34.6992 33.9493L41.689 31.5553Z" fill="#3D3D3D"/>
<path d="M46.6546 21.1707C46.6423 21.1938 45.0402 20.3604 43.0736 19.3103C41.107 18.2601 39.5249 17.3883 39.5372 17.3652C39.5495 17.3422 41.1532 18.1755 43.1197 19.2257C45.0863 20.2759 46.6669 21.1461 46.6546 21.1707Z" fill="#3D3D3D"/>
<path d="M50.4492 25.3591C50.4369 25.3822 47.7831 23.9861 44.5219 22.2425C41.2607 20.4989 38.6284 19.0659 38.6407 19.0428C38.653 19.0197 41.3053 20.4143 44.5665 22.1595C47.8277 23.9046 50.4615 25.3361 50.4492 25.3591Z" fill="#3D3D3D"/>
<path d="M49.5176 27.1003C49.5053 27.1234 46.8514 25.7288 43.5902 23.9836C40.3291 22.2385 37.6967 20.807 37.709 20.784C37.7213 20.7609 40.3736 22.157 43.6348 23.9006C46.896 25.6442 49.5299 27.0772 49.5176 27.1003Z" fill="#3D3D3D"/>
<path d="M48.5859 28.8421C48.5736 28.8652 45.9198 27.4706 42.6586 25.727C39.3974 23.9834 36.7651 22.555 36.7774 22.5273C36.7897 22.4996 39.442 23.8988 42.7032 25.6424C45.9644 27.386 48.5982 28.819 48.5859 28.8421Z" fill="#3D3D3D"/>
<path d="M47.6543 30.5841C47.642 30.6071 44.9882 29.2126 41.727 27.469C38.4658 25.7254 35.8319 24.2923 35.8458 24.2693C35.8596 24.2462 38.5104 25.6408 41.7716 27.3844C45.0328 29.128 47.6666 30.561 47.6543 30.5841Z" fill="#3D3D3D"/>
<path opacity="0.2" d="M47.7346 0.875542H47.3379V7.63778H47.7346V0.875542Z" fill="#141414"/>
<path d="M38.2754 15.8195H56.797C56.797 15.8195 55.0872 7.64115 47.3963 7.64115C40.5556 7.64115 38.2754 15.8195 38.2754 15.8195Z" fill="url(#paint0_linear_4734_1858)"/>
<path d="M47.7346 0.875542H47.3379V7.63778H47.7346V0.875542Z" fill="url(#paint1_linear_4734_1858)"/>
<path d="M88.7761 68.5036C88.7761 68.5251 68.903 68.5436 44.3925 68.5436C19.8821 68.5436 0.00585938 68.5297 0.00585938 68.5036C0.00585938 68.4774 19.8759 68.4636 44.3925 68.4636C68.9091 68.4636 88.7761 68.4805 88.7761 68.5036Z" fill="#6CA8A8"/>
<path d="M4.91987 58.8722C5.17983 58.8909 5.43334 58.9619 5.66528 59.0807C5.89722 59.1996 6.10284 59.364 6.26986 59.5641C6.60195 59.9666 6.8371 60.4401 6.95716 60.9479C7.21701 61.9196 7.0571 63.0682 6.78034 64.0353C5.72864 63.6586 5.07824 62.5362 4.78149 61.9458C4.32022 61.014 4.04499 59.0459 4.91526 58.8706" fill="url(#paint2_linear_4734_1858)"/>
<path d="M8.29671 65.2147C8.13878 64.9698 8.04848 64.6874 8.03498 64.3963C8.02147 64.1052 8.08525 63.8157 8.21983 63.5572C8.35863 63.3012 8.54705 63.0753 8.77408 62.8929C9.00112 62.7105 9.26222 62.5751 9.54215 62.4947C9.79892 62.4148 10.0972 62.3825 10.3202 62.5316C10.4207 62.6076 10.4989 62.7092 10.5468 62.8258C10.5947 62.9423 10.6104 63.0696 10.5923 63.1943C10.552 63.4441 10.4458 63.6787 10.2848 63.8739C9.77278 64.5674 9.1516 65.144 8.28595 65.2147" fill="url(#paint3_linear_4734_1858)"/>
<path d="M8.41307 68.4628C8.39025 68.3975 8.37428 68.33 8.3654 68.2614C8.33773 68.1168 8.30083 67.9308 8.25624 67.7078C8.11822 67.0974 8.0798 66.4686 8.14246 65.8458C8.21495 65.2201 8.45329 64.625 8.83283 64.1222C8.94879 63.9719 9.0825 63.8361 9.23106 63.7178C9.27142 63.6858 9.31351 63.6561 9.35714 63.6287C9.37101 63.6171 9.38657 63.6078 9.40327 63.601C9.20877 63.7671 9.0311 63.952 8.8728 64.153C8.51328 64.6563 8.2869 65.2423 8.21472 65.8566C8.11632 66.5731 8.23779 67.2296 8.30852 67.7017C8.34542 67.9369 8.37617 68.1276 8.39308 68.2598C8.40519 68.3268 8.41188 68.3947 8.41307 68.4628Z" fill="#6CA8A8"/>
<path d="M5.25977 60.3532C5.27732 60.3774 5.29178 60.4038 5.30282 60.4316C5.33049 60.4931 5.3674 60.57 5.41045 60.6668C5.50424 60.8713 5.63493 61.1681 5.7933 61.5356C6.11004 62.2721 6.53442 63.2961 6.97724 64.437C7.42006 65.5778 7.79676 66.6188 8.05354 67.3768C8.18577 67.755 8.28879 68.0625 8.36105 68.2763C8.39334 68.3777 8.41794 68.4592 8.43793 68.5223C8.4489 68.5505 8.45664 68.5799 8.46099 68.6099C8.4454 68.5838 8.43301 68.556 8.42409 68.5269C8.40103 68.4654 8.37181 68.3854 8.33337 68.2855L8.00895 67.3937C7.73372 66.6418 7.34933 65.6024 6.90805 64.4631C6.46676 63.3238 6.04854 62.2967 5.7441 61.5556C5.59034 61.1911 5.47195 60.8944 5.38431 60.6776C5.34433 60.5792 5.31204 60.5008 5.28744 60.4377C5.27589 60.4104 5.26663 60.3821 5.25977 60.3532Z" fill="#6CA8A8"/>
<path d="M7.16247 66.3152C6.84609 65.7885 6.40888 65.3446 5.88699 65.0203C5.36509 64.696 4.7735 64.5005 4.16112 64.4501C3.85361 64.4286 3.47536 64.4809 3.33698 64.7577C3.1986 65.0344 3.38311 65.3727 3.5953 65.5972C4.04612 66.0688 4.62648 66.3964 5.26321 66.5387C5.89993 66.681 6.56453 66.6316 7.17323 66.3967" fill="url(#paint4_linear_4734_1858)"/>
<path d="M4.63477 65.2821C4.69996 65.2789 4.76531 65.2815 4.83004 65.2898C4.90585 65.2939 4.98133 65.3026 5.05607 65.316C5.14371 65.3329 5.24673 65.3421 5.35436 65.3728C5.47466 65.3983 5.59328 65.4312 5.70954 65.4713C5.84422 65.5145 5.97618 65.5659 6.10469 65.625C6.40028 65.7574 6.67987 65.923 6.93806 66.1186C7.19326 66.3188 7.42442 66.5478 7.62689 66.8012C7.71432 66.9115 7.79494 67.0271 7.86829 67.1472C7.93459 67.2509 7.99516 67.3582 8.04972 67.4686C8.09592 67.5584 8.13699 67.6508 8.17273 67.7453C8.20356 67.8153 8.22975 67.8872 8.25114 67.9606C8.27392 68.0219 8.29091 68.0852 8.30188 68.1497C8.28497 68.1497 8.21117 67.8852 8.0036 67.4916C7.94707 67.3859 7.88497 67.2832 7.81755 67.1841C7.74262 67.0676 7.66152 66.9552 7.57461 66.8474C7.17245 66.3504 6.65958 65.9544 6.07702 65.6911C5.94325 65.6327 5.81563 65.5773 5.69109 65.5374C5.57675 65.4957 5.46023 65.4603 5.34206 65.4313C4.91153 65.3129 4.63323 65.299 4.63477 65.2821Z" fill="#6CA8A8"/>
<path d="M35.6874 36.9379L30.2444 64.8909L29.5371 68.5503L65.8238 68.3751C67.4537 68.3674 68.899 66.9205 69.4202 64.771L75.8565 38.3817C76.2547 36.7503 75.3814 35.0528 74.1452 35.0544L37.4095 35.0928C36.6099 35.0913 35.8934 35.8478 35.6874 36.9379Z" fill="url(#paint5_linear_4734_1858)"/>
<g opacity="0.5">
<path d="M35.6874 36.937L30.2444 64.89L29.5371 68.5494L65.8238 68.3741C67.4537 68.3664 68.899 66.9196 69.4202 64.7701L75.8565 38.3807C76.2547 36.7494 75.3814 35.0519 74.1452 35.0534L37.4095 35.0919C36.6099 35.0903 35.8934 35.8468 35.6874 36.937Z" fill="#141414"/>
</g>
<path d="M62.3474 62.9934L58.5034 32.0252C58.3497 30.7567 57.3364 29.8095 56.1417 29.8141L47.7158 29.8403C47.4027 29.8438 47.0936 29.9111 46.8073 30.038C46.521 30.1648 46.2635 30.3487 46.0506 30.5783L42.0529 34.8328L18.6203 34.9589C17.1888 34.9665 16.0879 36.3227 16.277 37.8449L19.8458 66.4667C19.9995 67.7337 21.0128 68.6793 22.2044 68.6778L63.05 68.5963C67.5982 68.6901 68.0333 67.3478 68.0333 67.3478C62.8117 68.5025 62.3474 63.0011 62.3474 62.9934Z" fill="url(#paint6_linear_4734_1858)"/>
<g opacity="0.5">
<path d="M44.735 56.8005L43.3573 58.2796L32.748 48.7344L34.1257 47.2553L44.735 56.8005Z" fill="white"/>
<path d="M42.7803 46.9282L44.3025 48.2982L34.7034 58.6076L33.1797 57.2376L42.7803 46.9282Z" fill="white"/>
</g>
<defs>
<linearGradient id="paint0_linear_4734_1858" x1="38.2754" y1="11.7303" x2="56.797" y2="11.7303" gradientUnits="userSpaceOnUse">
<stop stop-color="#347278"/>
<stop offset="1" stop-color="#1D5055"/>
</linearGradient>
<linearGradient id="paint1_linear_4734_1858" x1="47.3379" y1="4.25666" x2="47.7346" y2="4.25666" gradientUnits="userSpaceOnUse">
<stop stop-color="#347278"/>
<stop offset="1" stop-color="#1D5055"/>
</linearGradient>
<linearGradient id="paint2_linear_4734_1858" x1="4.34766" y1="61.453" x2="7.08875" y2="61.453" gradientUnits="userSpaceOnUse">
<stop stop-color="#347278"/>
<stop offset="1" stop-color="#1D5055"/>
</linearGradient>
<linearGradient id="paint3_linear_4734_1858" x1="8.0332" y1="63.821" x2="10.5996" y2="63.821" gradientUnits="userSpaceOnUse">
<stop stop-color="#347278"/>
<stop offset="1" stop-color="#1D5055"/>
</linearGradient>
<linearGradient id="paint4_linear_4734_1858" x1="3.28906" y1="65.532" x2="7.17323" y2="65.532" gradientUnits="userSpaceOnUse">
<stop stop-color="#347278"/>
<stop offset="1" stop-color="#1D5055"/>
</linearGradient>
<linearGradient id="paint5_linear_4734_1858" x1="29.5371" y1="51.8024" x2="75.9539" y2="51.8024" gradientUnits="userSpaceOnUse">
<stop stop-color="#347278"/>
<stop offset="1" stop-color="#1D5055"/>
</linearGradient>
<linearGradient id="paint6_linear_4734_1858" x1="16.2559" y1="49.246" x2="68.0333" y2="49.246" gradientUnits="userSpaceOnUse">
<stop stop-color="#347278"/>
<stop offset="1" stop-color="#1D5055"/>
</linearGradient>
</defs>
</svg>
