<svg width="343" height="343" viewBox="0 0 343 343" fill="none" xmlns="http://www.w3.org/2000/svg">
<rect width="343" height="343" fill="#F3FEFF"/>
<g clip-path="url(#clip0_4389_4473)">
<path d="M171.522 162.835C173.711 160.647 177.286 160.625 179.496 162.835L181.749 165.088C182.247 165.587 183.092 165.587 183.591 165.088L196.482 152.197C194.749 148.535 191.001 146 186.689 146H167.167C161.187 146 156.334 150.853 156.334 156.833V169.833C156.334 172.152 157.071 174.297 158.306 176.052L171.522 162.835ZM166.084 152.5C167.882 152.5 169.334 153.952 169.334 155.75C169.334 157.548 167.882 159 166.084 159C164.286 159 162.834 157.548 162.834 155.75C162.834 153.952 164.286 152.5 166.084 152.5ZM172.216 197.61L153.431 192.388C147.667 190.785 144.287 184.805 145.891 179.042L149.379 166.518C149.877 164.742 150.787 163.182 152.001 161.925V169.855C152.001 178.24 158.782 185.022 167.167 185.022H186.971L185.562 190.092C183.959 195.855 177.979 199.235 172.216 197.632V197.61ZM197.501 157.288V169.833C197.501 175.813 192.647 180.667 186.667 180.667H167.167C165.066 180.667 163.116 180.06 161.447 179.042L174.577 165.912C175.076 165.413 175.921 165.413 176.419 165.912L178.672 168.165C180.796 170.288 184.501 170.288 186.624 168.165L197.501 157.288Z" fill="url(#paint0_linear_4389_4473)"/>
</g>
<defs>
<linearGradient id="paint0_linear_4389_4473" x1="145.492" y1="172.015" x2="197.501" y2="172.015" gradientUnits="userSpaceOnUse">
<stop stop-color="#347278"/>
<stop offset="1" stop-color="#1D5055"/>
</linearGradient>
<clipPath id="clip0_4389_4473">
<rect width="52" height="52" fill="white" transform="translate(145.5 146)"/>
</clipPath>
</defs>
</svg>
