<svg width="331" height="235" viewBox="0 0 331 235" fill="none" xmlns="http://www.w3.org/2000/svg">
<path d="M330.512 204.571H0.511719V204.736H330.512V204.571Z" fill="#347278"/>
<path d="M52.1365 211.94H34.5996V212.105H52.1365V211.94Z" fill="#347278"/>
<path d="M58.4825 208.64H43.3672V208.805H58.4825V208.64Z" fill="#347278"/>
<path d="M215.281 209.125H174.727V209.29H215.281V209.125Z" fill="#347278"/>
<path d="M228.81 209.125H219.082V209.29H228.81V209.125Z" fill="#347278"/>
<path d="M284.125 210.253H252.012V210.418H284.125V210.253Z" fill="#347278"/>
<path d="M128.001 212.889H70.8262V213.054H128.001V212.889Z" fill="#347278"/>
<path d="M294.597 210.253H289.92V210.418H294.597V210.253Z" fill="#347278"/>
<path d="M188.333 84.6765C186.486 80.6868 187.952 77.8462 192.466 77.8462C195.296 77.8462 198.806 78.9642 202.224 80.7845C202.61 79.747 203.697 79.1246 205.446 79.1246C208.525 79.1246 212.769 81.0459 216.099 83.7571C216.905 83.1526 218.07 82.7823 219.568 82.7229C222.515 82.6008 226.084 83.705 229.187 85.5002C229.455 85.1999 229.917 85.0111 230.552 84.9834C232.25 84.9135 234.549 86.0282 235.69 87.471C235.762 87.562 235.824 87.6492 235.888 87.7363H232.361H229.555H219.807H215.011H211.281H205.536H204.493H190.243H186.04C184.464 86.3232 186.205 84.7478 188.333 84.6765Z" fill="#F3F8FF"/>
<path d="M91.2148 115.322L132.055 105.968V204.571H91.2148V115.322Z" fill="#F3F8FF"/>
<path d="M153.252 105.968H132.057V204.57H153.252V105.968Z" fill="#E3EEFF"/>
<path d="M146.326 204.57H181.086L181.086 82.3852H146.326V204.57Z" fill="#F3F8FF"/>
<path d="M199.126 82.3845H181.086V204.57H199.126V82.3845Z" fill="#E3EEFF"/>
<path d="M151.003 82.3845H181.086V73.3062H151.003V82.3845Z" fill="#F3F8FF"/>
<path d="M151.003 82.3848H181.086V80.346H151.003V82.3848Z" fill="#E3EEFF"/>
<path d="M194.449 73.3069H181.086V82.3852H194.449V73.3069Z" fill="#E3EEFF"/>
<path d="M155.681 73.3071H181.086V64.2288H155.681V73.3071Z" fill="#F3F8FF"/>
<path d="M155.681 73.3069H181.086V71.2681H155.681V73.3069Z" fill="#E3EEFF"/>
<path d="M189.772 64.2278H181.086V73.3061H189.772V64.2278Z" fill="#E3EEFF"/>
<path d="M173.568 51.5405H171.881V64.2277H173.568V51.5405Z" fill="#E3EEFF"/>
<path d="M193.366 204.571H218.75V98.2679H193.366V204.571Z" fill="#F3F8FF"/>
<path d="M231.924 98.2676H218.75V204.57H231.924V98.2676Z" fill="#E3EEFF"/>
<path d="M225.336 119.828L244.585 136.328V204.571H225.336V119.828Z" fill="#F3F8FF"/>
<path d="M254.578 136.328H244.588V204.57H254.578V136.328Z" fill="#E3EEFF"/>
<path d="M254.575 136.328H244.585L225.336 119.828H235.326L254.575 136.328Z" fill="#E3EEFF"/>
<path d="M290.84 204.57C290.84 204.57 291.324 199.808 296.586 197.356C294.429 200.808 294.899 204.57 294.899 204.57H290.84Z" fill="url(#paint0_linear_4489_3588)"/>
<path d="M123.467 204.57C123.467 204.57 122.983 199.808 117.721 197.356C119.878 200.808 119.408 204.57 119.408 204.57H123.467Z" fill="#E3EEFF"/>
<path d="M39.3642 204.571C39.3642 204.571 39.0395 196.122 35.5078 193.671C36.9559 197.123 36.6397 204.571 36.6397 204.571H39.3642Z" fill="url(#paint1_linear_4489_3588)"/>
<path d="M38.0371 204.571C38.0371 204.571 38.3618 199.72 41.8935 198.312C40.4455 200.294 40.7616 204.571 40.7616 204.571H38.0371Z" fill="url(#paint2_linear_4489_3588)"/>
<path d="M126.488 204.571C126.488 204.571 126.136 196.573 119.73 193.671C122.593 197.773 122.429 204.571 122.429 204.571H126.488Z" fill="#E3EEFF"/>
<path d="M62.334 150.72L66.9949 183.588L67.4609 186.878H70.4454L69.9794 183.588L65.3185 150.72H62.334Z" fill="#347278"/>
<path d="M190.363 150.72L195.024 183.588L195.49 186.878H198.475L198.009 183.588L193.348 150.72H190.363Z" fill="#347278"/>
<path d="M81.4688 183.588L81.9354 186.878L84.4539 204.598H87.4391L84.9291 186.878L84.4632 183.588H81.4688Z" fill="#347278"/>
<path d="M209.508 183.588L209.974 186.878L212.484 204.598H215.468L212.958 186.878L212.492 183.588H209.508Z" fill="#347278"/>
<path d="M194.419 183.588L193.952 186.878L191.434 204.598H188.449L190.959 186.878L191.425 183.588H194.419Z" fill="#347278"/>
<path d="M66.3784 183.588L65.9125 186.878L63.4025 204.598H60.418L62.9273 186.878L63.3939 183.588H66.3784Z" fill="#347278"/>
<path d="M58.0345 155.294H194.875L192.335 146.141H55.4941L58.0345 155.294Z" fill="#6CA8A8"/>
<path d="M61.1562 155.294H197.997L195.456 146.141H58.6152L61.1562 155.294Z" fill="#AED7D8"/>
<path d="M59.9394 166.709H196.779L194.239 157.557H57.3984L59.9394 166.709Z" fill="#6CA8A8"/>
<path d="M63.0605 166.709H199.901L197.36 157.557H60.5195L63.0605 166.709Z" fill="#AED7D8"/>
<path d="M61.8437 178.14H198.684L196.143 168.987H59.3027L61.8437 178.14Z" fill="#6CA8A8"/>
<path d="M64.9642 178.14H201.805L199.264 168.987H62.4238L64.9642 178.14Z" fill="#AED7D8"/>
<path d="M214.259 183.588H78.0254V186.878H214.259V183.588Z" fill="#347278"/>
<path d="M78.0269 183.588H59.3027V186.878H78.0269V183.588Z" fill="#347278"/>
<path d="M49.0191 9.51936C46.4649 3.99978 48.4925 0.0708008 54.7361 0.0708008C58.6512 0.0708008 63.5061 1.61717 68.2337 4.13507C68.7677 2.69957 70.2725 1.8396 72.692 1.8396C76.951 1.8396 82.8217 4.49742 87.4272 8.2482C88.5419 7.41198 90.1543 6.89982 92.2267 6.81798C96.3022 6.64902 101.24 8.17626 105.532 10.6605C105.903 10.2447 106.541 9.984 107.421 9.94506C109.769 9.8487 112.949 11.3898 114.529 13.3863C114.627 13.5117 114.714 13.6325 114.802 13.7533H109.923H106.042H92.558H85.9224H80.7625H72.8154H71.3733H51.6605H45.8472C43.6685 11.797 46.0769 9.6177 49.0191 9.51936Z" fill="#F3F8FF"/>
<path d="M230.128 60.8988C230.299 60.8803 230.473 60.8711 230.649 60.8711C230.487 59.066 231.423 57.9143 233.421 57.9143C234.862 57.9143 236.63 58.5162 238.433 59.5339C237.918 56.0307 239.569 53.7537 243.309 53.7537C246.326 53.7537 250.146 55.2347 253.918 57.6503C254.249 56.2762 255.36 55.4519 257.228 55.4519C260.509 55.4519 265.171 57.9968 268.909 61.5879C268.909 61.5879 268.911 61.5925 268.914 61.5879C269.722 60.7873 270.935 60.2923 272.53 60.2131C275.654 60.0514 279.533 61.5133 282.973 63.8965C283.235 63.4939 283.711 63.2438 284.392 63.2115C286.101 63.1237 288.455 64.4377 289.822 66.1966H285.836H283.134H272.744H267.878H263.545H257.39H245.763H241.231H239.619H233.168H227.38C225.913 63.5316 227.081 61.1998 230.128 60.8988Z" fill="#F3F8FF"/>
<path d="M125.098 20.9804C125.269 20.962 125.442 20.9527 125.618 20.9527C125.457 19.1483 126.392 17.9959 128.39 17.9959C129.831 17.9959 131.599 18.5978 133.402 19.6156C132.887 16.1123 134.538 13.8359 138.278 13.8359C141.295 13.8359 145.114 15.317 148.887 17.7326C149.217 16.3585 150.329 15.5341 152.197 15.5341C155.477 15.5341 160.14 18.0791 163.878 21.6701C163.878 21.6701 163.879 21.6748 163.882 21.6701C164.69 20.8696 165.903 20.3746 167.499 20.296C170.623 20.1343 174.502 21.5962 177.941 23.9795C178.203 23.5769 178.679 23.3267 179.361 23.2944C181.07 23.2066 183.424 24.5207 184.791 26.2789H180.805H178.103H167.712H162.846H158.513H152.359H140.732H136.199H134.587H128.136H122.348C120.882 23.6132 122.05 21.2814 125.098 20.9804Z" fill="#F3F8FF"/>
<path d="M280.859 193.156L269.13 181.427H259.996L270.134 191.565H267.347V204.57H278.069V193.156H280.859Z" fill="#347278"/>
<path d="M271.725 193.156L259.996 181.427L248.268 193.156H252.644V204.569H267.346V193.156H271.725Z" fill="#6CA8A8"/>
<path d="M165.502 234.379C236.176 234.379 293.469 231.033 293.469 226.906C293.469 222.778 236.176 219.432 165.502 219.432C94.8278 219.432 37.5352 222.778 37.5352 226.906C37.5352 231.033 94.8278 234.379 165.502 234.379Z" fill="#AED7D8"/>
<path d="M186.884 45.2175V72.5547H159.547V45.2175L173.218 31.9429L173.359 32.0835L174.568 33.2536L186.884 45.2175Z" fill="#6CA8A8"/>
<path d="M186.89 72.5557H206.826V48.3733H186.89V72.5557Z" fill="#347278"/>
<path d="M196.378 52.6832H186.914L185.563 51.3329L174.568 30.8735L196.378 52.6832Z" fill="#347278"/>
<path d="M174.568 30.8735V40.3373L162.223 52.6832H159.547V45.8951L173.359 32.0833L174.568 30.8735Z" fill="#347278"/>
<path d="M195.026 51.3331H185.562L173.217 38.9872V29.5234L195.026 51.3331Z" fill="#6CA8A8"/>
<path d="M195.026 51.3331H212.009L190.2 29.5234H173.217L195.026 51.3331Z" fill="#347278"/>
<path d="M151.41 51.3331H160.874L173.22 38.9872V29.5234L151.41 51.3331Z" fill="#6CA8A8"/>
<path d="M269.689 98.0524L252.099 80.4614H238.4L253.605 95.6652H249.424V115.17H265.505V98.0524H269.689Z" fill="#347278"/>
<path d="M255.99 98.0524L238.399 80.4614L220.809 98.0524H227.372V115.169H249.422V98.0524H255.99Z" fill="#AED7D8"/>
<path d="M198.107 111.945L180.517 94.355H166.818L182.023 109.559H177.843V129.064H193.923V111.945H198.107Z" fill="#347278"/>
<path d="M184.709 111.912L167.118 94.321L149.527 111.912H156.091V129.028H178.14V111.912H184.709Z" fill="#AED7D8"/>
<path d="M264.191 22.2131L246.601 4.62207H232.902L248.106 19.8258H243.926V39.3308H260.007V22.2131H264.191Z" fill="#347278"/>
<path d="M250.492 22.213L232.902 4.62207L215.311 22.213H221.875V39.3295H243.924V22.213H250.492Z" fill="#AED7D8"/>
<path opacity="0.2" d="M217.058 30.6152C229.244 50.1321 223.305 75.8364 203.783 88.026C184.262 100.215 158.559 94.2683 146.372 74.7514C134.183 55.2299 140.123 29.5256 159.644 17.336C179.166 5.14715 204.868 11.0938 217.058 30.6152Z" fill="#D4E8FF"/>
<path opacity="0.1" d="M222.97 46.783L158.298 87.1605C152.971 83.5456 148.607 78.7672 145.486 73.2694L216.108 29.1729C219.678 34.3908 222.056 40.41 222.97 46.783Z" fill="#D4E8FF"/>
<path d="M222.471 27.2304C208.415 4.7211 178.772 -2.13366 156.262 11.9217C133.753 25.9764 126.898 55.6203 140.953 78.1303C155.011 100.644 184.655 107.498 207.164 93.4429C229.674 79.3876 236.528 49.7437 222.471 27.2304ZM149.551 72.7612C138.462 55.0012 143.867 31.6108 161.631 20.5189C179.394 9.4269 202.784 14.8389 213.873 32.5982C224.965 50.3621 219.56 73.7525 201.796 84.8445C184.032 95.9364 160.643 90.5251 149.551 72.7612Z" fill="url(#paint3_linear_4489_3588)"/>
<path d="M148.347 79.1619C142.712 83.7258 136.909 88.0198 131.063 92.2464C125.213 96.4638 119.296 100.578 113.333 104.615C107.356 108.631 101.354 112.607 95.2869 116.478C92.2687 118.439 89.2069 120.329 86.1683 122.257C84.6688 123.253 83.067 124.085 81.2559 124.581C80.3544 124.837 79.3987 125.004 78.3869 125.083C77.3685 125.151 76.3079 125.15 75.0922 124.902C71.517 124.171 69.2116 120.681 69.9415 117.106C69.9627 117.002 69.9924 116.878 70.0181 116.776C70.3283 115.575 70.7936 114.621 71.3018 113.736C71.8166 112.862 72.3868 112.076 73.0112 111.378C74.2527 109.969 75.7033 108.896 77.2557 107.985C80.322 106.102 83.3646 104.181 86.4508 102.329C92.5921 98.5765 98.7994 94.9287 105.032 91.3224C111.277 87.736 117.57 84.2267 123.928 80.8211C130.292 77.4241 136.697 74.0951 143.271 71.036C145.688 69.9114 148.559 70.9588 149.683 73.3757C150.638 75.4243 150.027 77.801 148.347 79.1619Z" fill="url(#paint4_linear_4489_3588)"/>
<path d="M87.67 71.1428C86.9302 73.7953 86.2101 76.5581 85.5244 79.2779C84.8532 82.0123 84.2248 84.7546 83.6711 87.5002C83.3827 88.8684 83.1345 90.2696 82.9127 91.5559C82.7068 92.8732 82.5735 94.2045 82.4897 95.5449C82.4277 96.8854 82.4204 98.2344 82.4897 99.5841C82.5286 100.258 82.5761 100.934 82.6468 101.605C82.7134 102.262 82.8303 102.975 82.9246 103.546L80.3071 104.54C79.9243 103.761 79.6695 103.087 79.4181 102.35C79.1666 101.626 78.9508 100.893 78.7746 100.152C78.4149 98.6707 78.1713 97.16 78.04 95.6373C77.9067 94.1141 77.908 92.5815 77.9713 91.0477C78.0756 89.4888 78.2611 88.0585 78.4657 86.6059C78.8821 83.7065 79.4141 80.8375 80.0536 77.9962C80.6747 75.1397 81.3888 72.3552 82.2587 69.5112L87.67 71.1428Z" fill="#E9D2A1"/>
<path d="M80.6445 104.114L77.3867 106.33L77.8494 108.223C77.8494 108.223 84.6401 104.7 82.8245 103.291L80.6445 104.114Z" fill="#E9D2A1"/>
<path d="M95.4327 221.586C94.9219 221.586 94.3635 221.481 93.9734 221.388C93.9226 221.376 93.8837 221.335 93.8751 221.283C93.8659 221.232 93.8883 221.18 93.9319 221.151C94.1206 221.027 95.7964 219.942 96.4432 220.235C96.5448 220.28 96.6728 220.382 96.7039 220.603C96.7454 220.895 96.6722 221.13 96.4867 221.298C96.2511 221.512 95.8584 221.586 95.4327 221.586ZM94.3444 221.201C95.308 221.394 96.0307 221.359 96.3105 221.104C96.4293 220.996 96.4735 220.844 96.4445 220.638C96.4286 220.528 96.3778 220.492 96.3356 220.473C95.9996 220.318 95.0288 220.788 94.3444 221.201Z" fill="#141414"/>
<path d="M94.0037 221.391C93.9806 221.391 93.9582 221.385 93.9377 221.374C93.8975 221.35 93.873 221.307 93.873 221.261C93.873 221.193 93.8803 219.601 94.4816 219.069C94.6406 218.927 94.8267 218.869 95.0353 218.894C95.3633 218.934 95.4518 219.14 95.4755 219.259C95.6003 219.882 94.5951 221.076 94.0677 221.375C94.0479 221.385 94.0262 221.391 94.0037 221.391ZM94.9442 219.15C94.8366 219.15 94.7416 219.188 94.6545 219.265C94.2961 219.582 94.1727 220.476 94.1423 221.006C94.6677 220.586 95.2953 219.69 95.2188 219.311C95.2062 219.248 95.1706 219.174 95.0036 219.155C94.9838 219.151 94.964 219.15 94.9442 219.15Z" fill="#141414"/>
<path d="M129.846 219.142C129.8 219.142 129.757 219.119 129.733 219.078C129.705 219.03 129.71 218.97 129.745 218.927C129.921 218.717 131.46 216.908 132.247 216.908C132.264 216.908 132.281 216.909 132.297 216.911C132.447 216.927 132.563 217.008 132.636 217.147C132.757 217.379 132.767 217.608 132.662 217.826C132.315 218.553 130.765 218.961 129.871 219.138C129.862 219.142 129.853 219.142 129.846 219.142ZM132.239 217.17C131.805 217.17 130.855 218.069 130.201 218.8C131.41 218.519 132.231 218.122 132.425 217.714C132.493 217.572 132.486 217.426 132.404 217.269C132.372 217.208 132.33 217.177 132.269 217.172C132.259 217.17 132.249 217.17 132.239 217.17Z" fill="#141414"/>
<path d="M129.845 219.142C129.835 219.142 129.826 219.142 129.817 219.139C129.772 219.129 129.735 219.096 129.72 219.051C129.701 218.991 129.248 217.568 129.668 216.767C129.797 216.522 129.993 216.359 130.251 216.281C130.602 216.178 130.768 216.306 130.847 216.434C131.182 216.974 130.435 218.574 129.94 219.102C129.915 219.127 129.881 219.142 129.845 219.142ZM130.482 216.504C130.443 216.504 130.392 216.512 130.327 216.531C130.135 216.589 129.996 216.706 129.9 216.889C129.625 217.414 129.797 218.308 129.904 218.733C130.368 218.1 130.826 216.895 130.625 216.572C130.612 216.553 130.583 216.504 130.482 216.504Z" fill="#141414"/>
<path d="M94.4904 49.9131C95.1339 53.1933 96.4888 59.8375 94.1934 62.0267C94.1934 62.0267 95.0903 65.3544 101.185 65.3544C107.888 65.3544 104.388 62.0274 104.388 62.0274C100.731 61.1535 100.825 58.4396 101.462 55.8907L94.4904 49.9131Z" fill="#E9D2A1"/>
<path d="M104.77 63.099C105.678 63.2336 104.836 61.1705 104.461 60.9481C103.595 60.4339 92.5931 59.401 92.7059 60.5633C92.7686 61.0636 93.0729 62.0463 93.5646 62.3921C94.0576 62.738 96.8415 61.8252 104.77 63.099Z" fill="#347278"/>
<path d="M123.99 221.221L129.376 219.974L126.851 207.418L121.465 208.664L123.99 221.221Z" fill="#E9D2A1"/>
<path d="M87.5723 221.26H93.1011L92.6675 208.458H87.1387L87.5723 221.26Z" fill="#E9D2A1"/>
<path d="M93.5389 220.621H87.3283C87.1026 220.621 86.9191 220.778 86.8874 220.998L86.1799 225.912C86.1066 226.421 86.5449 226.904 87.0663 226.895C89.2318 226.858 90.2752 226.731 93.0063 226.731C94.6867 226.731 97.1418 226.905 99.4617 226.905C101.731 226.905 101.906 224.61 100.939 224.403C96.6072 223.471 95.9228 222.186 94.4629 220.96C94.1996 220.739 93.8696 220.621 93.5389 220.621Z" fill="#141414"/>
<path d="M129.27 218.559L123.533 220.94C123.324 221.026 123.215 221.241 123.27 221.458L124.5 226.268C124.628 226.767 125.218 227.044 125.696 226.836C127.682 225.971 128.596 225.454 131.119 224.407C132.671 223.763 135.948 222.592 138.091 221.703C140.187 220.833 139.469 218.647 138.497 218.825C134.138 219.625 132.071 219.092 130.253 218.519C129.925 218.415 129.574 218.432 129.27 218.559Z" fill="#141414"/>
<path d="M126.855 207.422L128.209 214.149L122.77 215.14L121.467 208.668L126.855 207.422Z" fill="#3D3D3D"/>
<path d="M87.1406 208.462H92.6708L92.8919 215.061H87.3611L87.1406 208.462Z" fill="#3D3D3D"/>
<path d="M116.781 68.8662C117.857 71.4019 119.021 73.9977 120.196 76.5209C120.788 77.7861 121.409 79.0315 122.046 80.2558C122.675 81.4848 123.334 82.6866 124.028 83.8324C124.375 84.3967 124.725 84.9702 125.092 85.487L125.629 86.2407C125.743 86.3978 125.87 86.5417 126.007 86.679C126.545 87.2248 127.448 87.6003 128.573 87.7732C130.827 88.098 133.647 87.6379 136.175 86.9634L137.352 89.5037C136.644 89.9321 135.991 90.2575 135.283 90.5789C134.584 90.899 133.865 91.1841 133.12 91.423C131.631 91.9015 130.045 92.2467 128.305 92.246C127.437 92.2454 126.524 92.1536 125.597 91.8929C124.673 91.6369 123.725 91.2125 122.885 90.5848C122.469 90.2674 122.081 89.9129 121.731 89.5249C121.434 89.1863 121.215 88.8998 120.954 88.583C120.454 87.9626 120.017 87.3383 119.575 86.7106C117.876 84.1888 116.446 81.6102 115.139 78.9867C113.812 76.3632 112.629 73.7363 111.535 70.9762L116.781 68.8662Z" fill="#E9D2A1"/>
<path d="M113.731 63.4425C116.479 64.1124 119.86 71.6561 119.86 71.6561L113.319 80.0348C113.319 80.0348 106.563 70.4761 107.466 67.5549C108.406 64.513 110.398 62.6293 113.731 63.4425Z" fill="#6CA8A8"/>
<path d="M135.614 89.8138L141.643 88.864L140.045 85.4399C140.045 85.4399 135.372 86.2517 134.471 88.3657L135.614 89.8138Z" fill="#E9D2A1"/>
<path d="M141.639 86.196L140.976 84.738L140.041 85.4396L141.639 88.863V86.196Z" fill="#E9D2A1"/>
<path d="M93.9785 43.1314C94.0999 48.6167 94.034 50.9412 96.6878 53.8584C100.679 58.2467 107.39 56.8977 108.91 51.487C110.279 46.6162 109.85 38.4646 104.579 36.0767C99.3866 33.7231 93.8577 37.6462 93.9785 43.1314Z" fill="#E9D2A1"/>
<path d="M89.5624 33.2217C95.2021 29.141 101.498 31.4523 104.938 34.2758C108.544 37.2359 107.968 42.9178 105.763 45.2694C105.763 45.2694 106.505 46.237 106.135 47.6513L106.137 47.6652C106.713 51.3018 104.437 54.7853 100.875 55.7179C100.771 55.7449 100.666 55.7713 100.562 55.7957C93.5231 57.4688 85.4038 52.7043 84.157 45.5783C83.3947 41.2143 84.5781 36.8286 89.5624 33.2217Z" fill="#141414"/>
<path d="M105.164 96.8086C105.164 96.8086 101.955 134.753 98.6264 156.137C95.9376 173.41 93.8177 213.783 93.8177 213.783H86.2791C86.2791 213.783 82.6868 174.792 84.0516 157.709C87.5054 114.48 81.4479 106.829 88.6406 96.8093H105.164V96.8086Z" fill="#3D3D3D"/>
<path d="M97.5122 114.548C96.8852 125.887 99.6136 134.449 100.861 139.459C101.745 132.053 102.557 124.325 103.237 117.507C100.92 109.785 97.9808 106.015 97.5122 114.548Z" fill="#141414"/>
<path d="M111.092 96.8086C111.092 96.8086 117.323 139.379 119.512 156.1C121.789 173.491 128.445 212.483 128.445 212.483L121.056 213.612C121.056 213.612 109.372 176.425 106.117 159.501C102.568 141.051 95.5527 96.8086 95.5527 96.8086H111.092Z" fill="#3D3D3D"/>
<path d="M129.533 212.514L120.067 214.122L118.992 210.55L129.123 208.817L129.533 212.514Z" fill="#AED7D8"/>
<path d="M94.8462 213.932H85.2445L84.7402 210.564L94.9016 210.22L94.8462 213.932Z" fill="#AED7D8"/>
<path d="M79.9043 72.0489L85.4549 76.471L88.7879 79.1307C88.7879 79.1307 89.1377 78.2001 89.5601 76.8669C90.3653 74.2929 91.4147 70.2141 90.6887 68.3397C89.5469 65.3697 87.3689 62.6901 84.6563 63.2841C82.3595 63.7857 79.9043 72.0489 79.9043 72.0489Z" fill="#6CA8A8"/>
<path d="M85.4551 76.4714L88.7881 79.1312C88.7881 79.1312 89.1379 78.2006 89.5603 76.8674L87.5803 67.0664L85.4551 76.4714Z" fill="#141414"/>
<path d="M113.734 63.4427C113.734 63.4427 116.368 64.37 111.092 96.809C102.183 96.809 92.9748 96.809 88.64 96.809C89.0168 87.6706 89.0274 82.0362 84.6602 63.2823C84.6602 63.2823 89.3646 62.2587 94.1945 62.0263C97.973 61.8442 101.068 61.7234 104.39 62.027C108.768 62.4263 113.734 63.4427 113.734 63.4427Z" fill="#6CA8A8"/>
<path d="M88.3002 95.4907L87.2878 97.5004C87.2092 97.6562 87.394 97.8153 87.6534 97.8153H111.2C111.403 97.8153 111.571 97.7163 111.583 97.5889L111.786 95.5792C111.8 95.4399 111.624 95.3218 111.403 95.3218H88.6665C88.4989 95.3224 88.351 95.3904 88.3002 95.4907Z" fill="url(#paint5_linear_4489_3588)"/>
<path d="M91.3541 98.0332H90.7449C90.6234 98.0332 90.531 97.9705 90.5396 97.8946L90.8254 95.2836C90.834 95.2071 90.9396 95.145 91.061 95.145H91.6702C91.7916 95.145 91.884 95.2077 91.8755 95.2836L91.5897 97.8946C91.5811 97.9711 91.4748 98.0332 91.3541 98.0332Z" fill="#AED7D8"/>
<path d="M106.114 98.0332H105.505C105.383 98.0332 105.291 97.9705 105.299 97.8946L105.585 95.2836C105.594 95.2071 105.699 95.145 105.821 95.145H106.43C106.551 95.145 106.644 95.2077 106.635 95.2836L106.349 97.8946C106.342 97.9711 106.235 98.0332 106.114 98.0332Z" fill="#AED7D8"/>
<path d="M92.7012 34.1383C94.4271 32.2356 100.279 29.325 105.299 31.6086C110.319 33.8915 110.093 39.0778 110.093 39.0778L105.567 42.1098L92.7012 34.1383Z" fill="#141414"/>
<path d="M88.0805 39.1528C90.5707 37.1114 93.3908 29.7174 88.0455 32.294C82.6995 34.8707 81.198 44.7951 88.0805 39.1528Z" fill="#3D3D3D"/>
<path d="M88.6397 34.4096C89.7155 31.266 82.6238 25.0191 77.8374 30.9605C73.0518 36.9018 85.5443 43.4536 88.6397 34.4096Z" fill="#141414"/>
<path d="M99.7453 38.7948C95.6176 37.0372 93.5703 30.3857 100.652 30.5758C107.734 30.7659 107.529 42.1099 99.7453 38.7948Z" fill="#3D3D3D"/>
<path d="M98.4106 35.3203C95.9098 32.1992 98.6732 24.1716 105.849 26.7615C113.025 29.352 104.152 42.4853 98.4106 35.3203Z" fill="#141414"/>
<defs>
<linearGradient id="paint0_linear_4489_3588" x1="290.84" y1="200.963" x2="296.586" y2="200.963" gradientUnits="userSpaceOnUse">
<stop stop-color="#347278"/>
<stop offset="1" stop-color="#1D5055"/>
</linearGradient>
<linearGradient id="paint1_linear_4489_3588" x1="35.5078" y1="199.121" x2="39.3642" y2="199.121" gradientUnits="userSpaceOnUse">
<stop stop-color="#347278"/>
<stop offset="1" stop-color="#1D5055"/>
</linearGradient>
<linearGradient id="paint2_linear_4489_3588" x1="38.0371" y1="201.442" x2="41.8935" y2="201.442" gradientUnits="userSpaceOnUse">
<stop stop-color="#347278"/>
<stop offset="1" stop-color="#1D5055"/>
</linearGradient>
<linearGradient id="paint3_linear_4489_3588" x1="133.654" y1="52.6822" x2="229.771" y2="52.6822" gradientUnits="userSpaceOnUse">
<stop stop-color="#347278"/>
<stop offset="1" stop-color="#1D5055"/>
</linearGradient>
<linearGradient id="paint4_linear_4489_3588" x1="69.8066" y1="97.8527" x2="150.135" y2="97.8527" gradientUnits="userSpaceOnUse">
<stop stop-color="#347278"/>
<stop offset="1" stop-color="#1D5055"/>
</linearGradient>
<linearGradient id="paint5_linear_4489_3588" x1="87.2695" y1="96.5685" x2="111.786" y2="96.5685" gradientUnits="userSpaceOnUse">
<stop stop-color="#347278"/>
<stop offset="1" stop-color="#1D5055"/>
</linearGradient>
</defs>
</svg>
