<svg width="343" height="209" viewBox="0 0 343 209" fill="none" xmlns="http://www.w3.org/2000/svg">
<g clip-path="url(#clip0_4390_3057)">
<rect width="343" height="209" fill="#F3FEFF"/>
<path d="M305.23 95.1196C283.467 113.56 267.224 140.222 216.261 133.317C165.299 126.412 132.377 135.512 101.248 150.39C94.4128 153.658 86.1261 158.721 78.18 165.128C76.3042 166.546 60.5707 177.988 41.9283 177.988H-1V204.675C-1 207.053 0.853971 209 3.11994 209H338.881C341.148 209 343 207.053 343 204.675V84.9619C335.109 83.233 320.174 82.4563 305.23 95.1196Z" fill="white"/>
<path d="M141.137 49.2187H187.507C187.139 48.3064 184.388 47.4886 180.167 46.9022C180.248 46.6433 180.291 46.3755 180.291 46.1023C180.291 43.8677 177.444 42.0562 173.932 42.0562C173.817 42.0562 173.704 42.0636 173.59 42.0673C173.203 38.5668 169.206 35.8145 164.322 35.8145C159.443 35.8145 155.45 38.5621 155.056 42.0557C155.053 42.0557 155.051 42.0557 155.049 42.0557C151.537 42.0557 148.691 43.8672 148.691 46.1018C148.691 46.3591 148.732 46.6116 148.805 46.8562C144.397 47.4463 141.514 48.2821 141.137 49.2187Z" fill="#E9D2A1"/>
<path d="M212.775 34.2256H248.151C247.87 33.5298 245.772 32.9054 242.551 32.4584C242.613 32.2608 242.646 32.0569 242.646 31.8483C242.646 30.1435 240.475 28.7615 237.795 28.7615C237.707 28.7615 237.621 28.7667 237.534 28.7699C237.238 26.0994 234.189 24 230.464 24C226.741 24 223.695 26.0957 223.394 28.7615C223.392 28.7615 223.391 28.7615 223.388 28.7615C220.71 28.7615 218.537 30.1429 218.537 31.8483C218.537 32.0448 218.569 32.2371 218.625 32.4236C215.263 32.8731 213.064 33.5108 212.775 34.2256Z" fill="#E9D2A1"/>
<path d="M246.033 71.416H284.385C284.081 70.6616 281.805 69.9848 278.314 69.5004C278.381 69.2859 278.417 69.0646 278.417 68.8384C278.417 66.99 276.063 65.4917 273.158 65.4917C273.062 65.4917 272.97 65.4976 272.875 65.5013C272.554 62.6068 269.249 60.3298 265.21 60.3298C261.174 60.3298 257.871 62.6025 257.545 65.4917C257.544 65.4917 257.542 65.4917 257.539 65.4917C254.635 65.4917 252.281 66.9894 252.281 68.8384C252.281 69.0513 252.315 69.26 252.376 69.4624C248.73 69.9494 246.346 70.641 246.033 71.416Z" fill="#E9D2A1"/>
<path d="M119.542 152.827C116.118 149.467 109.968 156.223 109.968 156.223C109.968 156.223 123.783 139.164 114.969 135.788C108.253 133.216 105.681 146.791 105.681 146.791C105.681 146.791 109.111 118.711 99.2506 119.354C89.3906 118.711 92.8203 146.791 92.8203 146.791C92.8203 146.791 90.2486 133.216 83.5319 135.788C74.7185 139.164 88.5332 156.223 88.5332 156.223C88.5332 156.223 82.3829 149.467 78.9591 152.827C74.3355 157.365 86.4386 169.584 86.4386 169.584H111.247C111.247 169.584 124.166 157.365 119.542 152.827Z" fill="url(#paint0_linear_4390_3057)"/>
<path d="M79.0505 172.057C79.0505 172.057 76.4783 167.715 79.6221 166.028C82.766 164.34 84.7666 168.651 84.7666 168.651C84.7666 168.651 82.0935 157.381 88.1963 156.339C94.055 155.338 94.6266 164.357 94.6266 164.357C94.6266 164.357 95.7698 153.766 101.343 155.052C106.916 156.339 102.772 167.913 102.772 167.913C102.772 167.913 104.88 163.505 107.924 165.151C112.203 167.465 107.631 172.057 107.631 172.057H79.0505V172.057Z" fill="#AED7D8"/>
<path d="M252.487 112.812H174.31V172.465H252.487V112.812Z" fill="#E8E8E8"/>
<path d="M102.446 109.304V172.465H174.337V110.507L138.608 68.0063L102.446 109.304Z" fill="white"/>
<path d="M252.489 112.448L214.006 65.8728H136.92L174.753 112.448H252.489Z" fill="#6CA8A8"/>
<mask id="mask0_4390_3057" style="mask-type:luminance" maskUnits="userSpaceOnUse" x="136" y="65" width="69" height="29">
<path d="M204.621 93.157L182.077 65.873H136.92L159.082 93.157H204.621Z" fill="white"/>
</mask>
<g mask="url(#mask0_4390_3057)">
<path d="M225.249 77.4018H146.18C145.864 77.4018 145.608 77.1455 145.608 76.8307C145.608 76.5148 145.864 76.2585 146.18 76.2585H225.249C225.565 76.2585 225.821 76.5148 225.821 76.8307C225.821 77.1455 225.565 77.4018 225.249 77.4018Z" fill="url(#paint1_linear_4390_3057)"/>
</g>
<mask id="mask1_4390_3057" style="mask-type:luminance" maskUnits="userSpaceOnUse" x="136" y="65" width="69" height="29">
<path d="M204.621 93.157L182.077 65.873H136.92L159.082 93.157H204.621Z" fill="white"/>
</mask>
<g mask="url(#mask1_4390_3057)">
<path d="M234.888 90.0121H155.819C155.503 90.0121 155.247 89.7559 155.247 89.44C155.247 89.1246 155.503 88.8689 155.819 88.8689H234.888C235.204 88.8689 235.459 89.1251 235.459 89.44C235.459 89.7559 235.203 90.0121 234.888 90.0121Z" fill="url(#paint2_linear_4390_3057)"/>
</g>
<path d="M99.0146 113.02H102.444L138.384 69.1582L136.918 66.7207L99.0146 113.02Z" fill="url(#paint3_linear_4390_3057)"/>
<path d="M99.0149 113.021C98.887 113.021 98.7581 112.978 98.652 112.89C98.4079 112.69 98.373 112.33 98.5738 112.085L136.442 66.0724C136.659 65.8082 137.108 65.8082 137.324 66.0724L175.021 111.878H252.488C252.804 111.878 253.06 112.133 253.06 112.449C253.06 112.765 252.804 113.021 252.488 113.021H174.751C174.581 113.021 174.419 112.944 174.31 112.812L136.883 67.335L99.456 112.812C99.343 112.95 99.1797 113.021 99.0149 113.021Z" fill="#AED7D8"/>
<path d="M145.223 142.291H142.936V122.654C142.936 119.338 140.239 116.64 136.923 116.64C133.607 116.64 130.909 119.338 130.909 122.654V142.291H128.623V122.654C128.623 118.077 132.346 114.354 136.923 114.354C141.5 114.354 145.223 118.077 145.223 122.654V142.291Z" fill="#E8E8E8"/>
<path d="M136.922 115.496C132.97 115.496 129.766 118.7 129.766 122.654V142.291H144.079V122.654C144.079 118.701 140.876 115.496 136.922 115.496Z" fill="#6CA8A8"/>
<path d="M136.923 117.142C133.802 117.142 131.272 119.672 131.272 122.792V140.872H142.573V122.792C142.573 119.672 140.043 117.142 136.923 117.142Z" fill="#AED7D8"/>
<path d="M131.272 140.872L129.766 142.291H144.079L142.573 140.872H131.272Z" fill="url(#paint4_linear_4390_3057)"/>
<path d="M143.495 126.715V125.571H137.494V116.76H136.35V125.571H130.706V126.715H136.35V133.288H130.706V134.431H136.35V140.872H137.494V134.431H143.495V133.288H137.494V126.715H143.495Z" fill="#6CA8A8"/>
<path d="M205.487 172.43H203.743V132.944C203.743 128.83 200.396 125.482 196.28 125.482C192.165 125.482 188.818 128.83 188.818 132.944V172.43H187.073V132.944C187.073 127.868 191.203 123.737 196.28 123.737C201.357 123.737 205.487 127.867 205.487 132.944V172.43Z" fill="white"/>
<path d="M196.281 124.869C191.756 124.869 188.088 128.537 188.088 133.062V172.429H204.474V133.062C204.475 128.538 200.806 124.869 196.281 124.869Z" fill="#6CA8A8"/>
<path d="M196.28 127.224C193.067 127.224 190.462 129.828 190.462 133.042V154.496H202.099V133.042C202.1 129.828 199.494 127.224 196.28 127.224Z" fill="#AED7D8"/>
<path d="M202.099 156.353H190.462V170.644H202.099V156.353Z" fill="#AED7D8"/>
<path d="M232.339 151.53H230.053V131.893C230.053 128.578 227.355 125.879 224.039 125.879C220.724 125.879 218.026 128.577 218.026 131.893V151.53H215.739V131.893C215.739 127.317 219.463 123.594 224.039 123.594C228.616 123.594 232.339 127.317 232.339 131.893V151.53Z" fill="#E8E8E8"/>
<path d="M224.039 124.736C220.086 124.736 216.882 127.94 216.882 131.893V151.53H231.195V131.893C231.195 127.941 227.992 124.736 224.039 124.736Z" fill="#6CA8A8"/>
<path d="M224.039 126.381C220.919 126.381 218.389 128.912 218.389 132.032V150.112H229.689V132.032C229.689 128.912 227.159 126.381 224.039 126.381Z" fill="#AED7D8"/>
<path d="M218.389 150.112L216.882 151.53H231.195L229.689 150.112H218.389Z" fill="url(#paint5_linear_4390_3057)"/>
<path d="M230.613 135.955V134.811H224.611V126H223.467V134.811H217.823V135.955H223.467V142.528H217.823V143.671H223.467V150.112H224.611V143.671H230.613V142.528H224.611V135.955H230.613Z" fill="#6CA8A8"/>
<path d="M271.776 158.893C268.546 155.605 262.955 162.288 262.955 162.288C262.955 162.288 275.684 145.229 267.563 141.854C261.375 139.281 259.004 152.857 259.004 152.857C259.004 152.857 262.165 124.777 253.08 125.42C243.994 124.777 247.154 152.857 247.154 152.857C247.154 152.857 244.784 139.281 238.595 141.854C230.476 145.229 243.205 162.288 243.205 162.288C243.205 162.288 237.574 155.568 234.382 158.893C229.707 163.764 241.275 175.65 241.275 175.65H264.133C264.133 175.65 276.562 163.764 271.776 158.893Z" fill="#AED7D8"/>
<path d="M261.609 156.048C261.854 155.849 261.892 155.489 261.693 155.244C261.494 154.999 261.135 154.961 260.889 155.16L253.628 161.041V137.17C253.628 136.854 253.372 136.599 253.057 136.599C252.74 136.599 252.485 136.854 252.485 137.17V161.041L245.224 155.16C244.977 154.961 244.618 154.999 244.42 155.244C244.221 155.49 244.258 155.849 244.504 156.048L252.484 162.512V172.752L245.608 169.08C245.331 168.931 244.984 169.036 244.835 169.315C244.686 169.593 244.792 169.939 245.07 170.088L252.484 174.046V175.65C252.484 175.965 252.739 176.221 253.055 176.221C253.371 176.221 253.627 175.965 253.627 175.65V174.049L261.18 170.09C261.459 169.944 261.568 169.597 261.421 169.319C261.275 169.039 260.929 168.932 260.65 169.078L253.627 172.758V162.512L261.609 156.048Z" fill="url(#paint6_linear_4390_3057)"/>
<path d="M70.6651 152.634C69.0581 152.634 67.7559 153.937 67.7559 155.544V176.138H73.5744V155.544C73.5744 153.937 72.2717 152.634 70.6651 152.634Z" fill="#E9D2A1"/>
<path d="M62.2804 152.634C60.6733 152.634 59.3711 153.937 59.3711 155.544V176.138H65.1897V155.544C65.1897 153.937 63.8874 152.634 62.2804 152.634Z" fill="#E9D2A1"/>
<path d="M65.1897 163.764H59.3711V169.583H65.1897V163.764Z" fill="#E9D2A1"/>
<path d="M73.5744 163.764H67.7559V169.583H73.5744V163.764Z" fill="#E9D2A1"/>
<path d="M75.2974 162.24L57.6124 162.241C56.0059 162.241 54.7031 163.543 54.7031 165.15C54.7031 166.758 56.0059 168.059 57.6124 168.059L75.2974 168.058C76.9039 168.058 78.2067 166.756 78.2067 165.148C78.2072 163.541 76.9039 162.24 75.2974 162.24Z" fill="#E9D2A1"/>
<path d="M164.955 152.634C163.348 152.634 162.046 153.937 162.046 155.544V176.138H167.864V155.544C167.864 153.937 166.562 152.634 164.955 152.634Z" fill="#E9D2A1"/>
<path d="M156.57 152.634C154.964 152.634 153.661 153.937 153.661 155.544V176.138H159.48V155.544C159.48 153.937 158.177 152.634 156.57 152.634Z" fill="#E9D2A1"/>
<path opacity="0.5" d="M159.48 163.764H153.661V169.583H159.48V163.764Z" fill="#E9D2A1"/>
<path opacity="0.5" d="M167.864 163.764H162.046V169.583H167.864V163.764Z" fill="#E9D2A1"/>
<path d="M173.53 152.634C171.923 152.634 170.621 153.937 170.621 155.544V176.138H176.44V155.544C176.44 153.937 175.137 152.634 173.53 152.634Z" fill="#E9D2A1"/>
<path opacity="0.5" d="M176.44 163.764H170.621V169.583H176.44V163.764Z" fill="#E9D2A1"/>
<path d="M177.985 162.24L151.903 162.241C150.296 162.241 148.993 163.543 148.993 165.15C148.993 166.758 150.296 168.059 151.903 168.059L177.985 168.058C179.591 168.058 180.894 166.756 180.894 165.148C180.894 163.541 179.591 162.24 177.985 162.24Z" fill="#E9D2A1"/>
<path d="M281.168 152.634C279.562 152.634 278.259 153.937 278.259 155.544V176.138H284.078V155.544C284.078 153.937 282.776 152.634 281.168 152.634Z" fill="#E9D2A1"/>
<path d="M272.784 152.634C271.177 152.634 269.874 153.937 269.874 155.544V176.138H275.693V155.544C275.693 153.937 274.39 152.634 272.784 152.634Z" fill="#E9D2A1"/>
<path opacity="0.5" d="M275.693 163.764H269.874V169.583H275.693V163.764Z" fill="#E9D2A1"/>
<path opacity="0.5" d="M284.078 163.764H278.259V169.583H284.078V163.764Z" fill="#E9D2A1"/>
<path d="M285.801 162.24L268.115 162.241C266.509 162.241 265.206 163.543 265.206 165.15C265.206 166.758 266.509 168.059 268.115 168.059L285.801 168.058C287.407 168.058 288.71 166.756 288.71 165.148C288.71 163.541 287.407 162.24 285.801 162.24Z" fill="#E9D2A1"/>
<path d="M111.729 152.634C110.122 152.634 108.819 153.937 108.819 155.544V176.138H114.638V155.544C114.637 153.937 113.335 152.634 111.729 152.634Z" fill="#E9D2A1"/>
<path d="M103.347 152.634C101.74 152.634 100.438 153.937 100.438 155.544V176.138H106.256V155.544C106.256 153.937 104.954 152.634 103.347 152.634Z" fill="#E9D2A1"/>
<path opacity="0.5" d="M106.256 163.764H100.438V169.583H106.256V163.764Z" fill="#E9D2A1"/>
<path opacity="0.5" d="M114.638 163.764H108.819V169.583H114.638V163.764Z" fill="#E9D2A1"/>
<path d="M120.304 152.634C118.697 152.634 117.395 153.937 117.395 155.544V176.138H123.213V155.544C123.213 153.937 121.911 152.634 120.304 152.634Z" fill="#E9D2A1"/>
<path opacity="0.5" d="M123.213 163.764H117.395V169.583H123.213V163.764Z" fill="#E9D2A1"/>
<path d="M124.761 162.24L98.6788 162.241C97.0723 162.241 95.7695 163.543 95.7695 165.15C95.7695 166.758 97.0723 168.059 98.6788 168.059L124.761 168.058C126.367 168.058 127.67 166.756 127.67 165.148C127.67 163.541 126.367 162.24 124.761 162.24Z" fill="#E9D2A1"/>
</g>
<defs>
<linearGradient id="paint0_linear_4390_3057" x1="77.9062" y1="144.464" x2="120.542" y2="144.464" gradientUnits="userSpaceOnUse">
<stop stop-color="#347278"/>
<stop offset="1" stop-color="#1D5055"/>
</linearGradient>
<linearGradient id="paint1_linear_4390_3057" x1="145.608" y1="76.8302" x2="225.821" y2="76.8302" gradientUnits="userSpaceOnUse">
<stop stop-color="#347278"/>
<stop offset="1" stop-color="#1D5055"/>
</linearGradient>
<linearGradient id="paint2_linear_4390_3057" x1="155.247" y1="89.4405" x2="235.459" y2="89.4405" gradientUnits="userSpaceOnUse">
<stop stop-color="#347278"/>
<stop offset="1" stop-color="#1D5055"/>
</linearGradient>
<linearGradient id="paint3_linear_4390_3057" x1="99.0146" y1="89.8706" x2="138.384" y2="89.8706" gradientUnits="userSpaceOnUse">
<stop stop-color="#347278"/>
<stop offset="1" stop-color="#1D5055"/>
</linearGradient>
<linearGradient id="paint4_linear_4390_3057" x1="129.766" y1="141.581" x2="144.079" y2="141.581" gradientUnits="userSpaceOnUse">
<stop stop-color="#347278"/>
<stop offset="1" stop-color="#1D5055"/>
</linearGradient>
<linearGradient id="paint5_linear_4390_3057" x1="216.882" y1="150.821" x2="231.195" y2="150.821" gradientUnits="userSpaceOnUse">
<stop stop-color="#347278"/>
<stop offset="1" stop-color="#1D5055"/>
</linearGradient>
<linearGradient id="paint6_linear_4390_3057" x1="244.292" y1="156.41" x2="261.821" y2="156.41" gradientUnits="userSpaceOnUse">
<stop stop-color="#347278"/>
<stop offset="1" stop-color="#1D5055"/>
</linearGradient>
<clipPath id="clip0_4390_3057">
<rect width="343" height="209" fill="white"/>
</clipPath>
</defs>
</svg>
