<svg width="32" height="32" viewBox="0 0 32 32" fill="none" xmlns="http://www.w3.org/2000/svg">
<g clip-path="url(#clip0_4481_3054)">
<path d="M16.0074 0.24292C9.42771 0.24292 7.50341 0.249708 7.12936 0.280737C5.7791 0.392976 4.93888 0.605576 4.02351 1.06132C3.31808 1.41161 2.76173 1.81766 2.21266 2.38686C1.21269 3.42488 0.606648 4.70194 0.387261 6.21995C0.280597 6.9569 0.249568 7.1072 0.243265 10.8714C0.240841 12.1262 0.243265 13.7775 0.243265 15.9925C0.243265 22.5669 0.250537 24.4892 0.282052 24.8625C0.391139 26.1764 0.597194 27.0031 1.03354 27.9073C1.86746 29.6382 3.46014 30.9375 5.33644 31.4223C5.98612 31.5896 6.70368 31.6817 7.62486 31.7254C8.01515 31.7423 11.9932 31.7545 15.9737 31.7545C19.9542 31.7545 23.9347 31.7496 24.3153 31.7302C25.3819 31.68 26.0013 31.5969 26.6861 31.4199C28.5745 30.9327 30.1381 29.6527 30.989 27.8976C31.4169 27.0152 31.6338 26.157 31.732 24.9118C31.7533 24.6402 31.7623 20.3114 31.7623 15.9884C31.7623 11.6646 31.7526 7.3438 31.7313 7.07229C31.6319 5.80687 31.4149 4.95599 30.9732 4.05662C30.6108 3.3204 30.2084 2.7706 29.6242 2.20844C28.5816 1.21259 27.3064 0.606545 25.787 0.3874C25.0508 0.280979 24.9041 0.249465 21.1369 0.24292H16.0074Z" fill="url(#paint0_radial_4481_3054)"/>
<path d="M16.0074 0.24292C9.42771 0.24292 7.50341 0.249708 7.12936 0.280737C5.7791 0.392976 4.93888 0.605576 4.02351 1.06132C3.31808 1.41161 2.76173 1.81766 2.21266 2.38686C1.21269 3.42488 0.606648 4.70194 0.387261 6.21995C0.280597 6.9569 0.249568 7.1072 0.243265 10.8714C0.240841 12.1262 0.243265 13.7775 0.243265 15.9925C0.243265 22.5669 0.250537 24.4892 0.282052 24.8625C0.391139 26.1764 0.597194 27.0031 1.03354 27.9073C1.86746 29.6382 3.46014 30.9375 5.33644 31.4223C5.98612 31.5896 6.70368 31.6817 7.62486 31.7254C8.01515 31.7423 11.9932 31.7545 15.9737 31.7545C19.9542 31.7545 23.9347 31.7496 24.3153 31.7302C25.3819 31.68 26.0013 31.5969 26.6861 31.4199C28.5745 30.9327 30.1381 29.6527 30.989 27.8976C31.4169 27.0152 31.6338 26.157 31.732 24.9118C31.7533 24.6402 31.7623 20.3114 31.7623 15.9884C31.7623 11.6646 31.7526 7.3438 31.7313 7.07229C31.6319 5.80687 31.4149 4.95599 30.9732 4.05662C30.6108 3.3204 30.2084 2.7706 29.6242 2.20844C28.5816 1.21259 27.3064 0.606545 25.787 0.3874C25.0508 0.280979 24.9041 0.249465 21.1369 0.24292H16.0074Z" fill="#347278"/>
<path d="M8.89737 15.9518C8.10735 14.5743 7.72589 13.4494 7.49588 12.3092C7.1557 10.6228 7.93419 8.97551 9.22383 7.9244C9.76889 7.48016 10.3937 7.63194 10.716 8.21017L11.4437 9.51559C12.0204 10.5503 12.3088 11.0677 12.2516 11.6162C12.1944 12.1647 11.8055 12.6114 11.0277 13.5048L8.89737 15.9518ZM8.89737 15.9518C10.4964 18.7401 13.0059 21.2509 15.7974 22.8518M15.7974 22.8518C17.1749 23.6418 18.2998 24.0233 19.44 24.2533C21.1264 24.5935 22.7737 23.815 23.8248 22.5254C24.269 21.9803 24.1172 21.3555 23.539 21.0332L22.2336 20.3055C21.1989 19.7288 20.6815 19.4404 20.133 19.4976C19.5845 19.5548 19.1378 19.9437 18.2443 20.7215L15.7974 22.8518Z" stroke="white" stroke-width="1.25" stroke-linejoin="round"/>
<path d="M17.416 11.693C18.6021 12.1967 19.5525 13.1471 20.0562 14.3332M17.961 7.6665C20.9087 8.51714 23.2319 10.8403 24.0827 13.7879" stroke="white" stroke-width="1.25" stroke-linecap="round"/>
</g>
<defs>
<radialGradient id="paint0_radial_4481_3054" cx="0" cy="0" r="1" gradientUnits="userSpaceOnUse" gradientTransform="translate(8.61476 34.1815) rotate(-90) scale(31.2303 29.0545)">
<stop stop-color="#FFDD55"/>
<stop offset="0.1" stop-color="#FFDD55"/>
<stop offset="0.5" stop-color="#FF543E"/>
<stop offset="1" stop-color="#C837AB"/>
</radialGradient>
<clipPath id="clip0_4481_3054">
<rect width="32" height="31.999" fill="white" transform="translate(0 0.000488281)"/>
</clipPath>
</defs>
</svg>
