<svg width="32" height="32" viewBox="0 0 32 32" fill="none" xmlns="http://www.w3.org/2000/svg">
<g clip-path="url(#clip0_4034_2666)">
<path d="M16.0074 0.243164C9.42771 0.243164 7.50341 0.249952 7.12936 0.280981C5.7791 0.39322 4.93888 0.60582 4.02351 1.06156C3.31808 1.41186 2.76173 1.8179 2.21266 2.3871C1.21269 3.42513 0.606648 4.70218 0.387261 6.2202C0.280597 6.95714 0.249568 7.10744 0.243265 10.8717C0.240841 12.1264 0.243265 13.7778 0.243265 15.9928C0.243265 22.5671 0.250537 24.4895 0.282052 24.8628C0.391139 26.1767 0.597194 27.0033 1.03354 27.9075C1.86746 29.6384 3.46014 30.9378 5.33644 31.4226C5.98612 31.5899 6.70368 31.682 7.62486 31.7256C8.01515 31.7426 11.9932 31.7547 15.9737 31.7547C19.9542 31.7547 23.9347 31.7499 24.3153 31.7305C25.3819 31.6803 26.0013 31.5971 26.6861 31.4202C28.5745 30.9329 30.1381 29.6529 30.989 27.8978C31.4169 27.0154 31.6338 26.1573 31.732 24.912C31.7533 24.6405 31.7623 20.3117 31.7623 15.9886C31.7623 11.6649 31.7526 7.34404 31.7313 7.07253C31.6319 5.80712 31.4149 4.95623 30.9732 4.05687C30.6108 3.32065 30.2084 2.77085 29.6242 2.20868C28.5816 1.21283 27.3064 0.606789 25.787 0.387645C25.0508 0.281224 24.9041 0.249709 21.1369 0.243164H16.0074Z" fill="url(#paint0_radial_4034_2666)"/>
<path d="M16.0074 0.243164C9.42771 0.243164 7.50341 0.249952 7.12936 0.280981C5.7791 0.39322 4.93888 0.60582 4.02351 1.06156C3.31808 1.41186 2.76173 1.8179 2.21266 2.3871C1.21269 3.42513 0.606648 4.70218 0.387261 6.2202C0.280597 6.95714 0.249568 7.10744 0.243265 10.8717C0.240841 12.1264 0.243265 13.7778 0.243265 15.9928C0.243265 22.5671 0.250537 24.4895 0.282052 24.8628C0.391139 26.1767 0.597194 27.0033 1.03354 27.9075C1.86746 29.6384 3.46014 30.9378 5.33644 31.4226C5.98612 31.5899 6.70368 31.682 7.62486 31.7256C8.01515 31.7426 11.9932 31.7547 15.9737 31.7547C19.9542 31.7547 23.9347 31.7499 24.3153 31.7305C25.3819 31.6803 26.0013 31.5971 26.6861 31.4202C28.5745 30.9329 30.1381 29.6529 30.989 27.8978C31.4169 27.0154 31.6338 26.1573 31.732 24.912C31.7533 24.6405 31.7623 20.3117 31.7623 15.9886C31.7623 11.6649 31.7526 7.34404 31.7313 7.07253C31.6319 5.80712 31.4149 4.95623 30.9732 4.05687C30.6108 3.32065 30.2084 2.77085 29.6242 2.20868C28.5816 1.21283 27.3064 0.606789 25.787 0.387645C25.0508 0.281224 24.9041 0.249709 21.1369 0.243164H16.0074Z" fill="#347278"/>
<path d="M22.5101 22.1859L17.1489 14.3974L16.5428 13.5165L12.708 7.94511L12.3901 7.4834H7.67773L8.82703 9.15354L13.9261 16.5622L14.5322 17.4422L18.6291 23.3949L18.947 23.8562H23.6594L22.5101 22.1861V22.1859ZM19.5072 22.79L15.2507 16.6058L14.6446 15.7254L9.70561 8.54933H11.8302L15.8245 14.3528L16.4306 15.2331L21.6319 22.79H19.5073H19.5072Z" fill="white"/>
<path d="M14.6454 15.7256L15.2515 16.6059L14.5329 17.4422L9.0197 23.8561H7.66016L13.9268 16.5623L14.6454 15.7256Z" fill="white"/>
<path d="M23.0919 7.4834L17.1489 14.3974L16.4303 15.2331L15.8242 14.3528L16.5428 13.5165L20.5685 8.83083L21.7323 7.4834H23.0919Z" fill="white"/>
</g>
<defs>
<radialGradient id="paint0_radial_4034_2666" cx="0" cy="0" r="1" gradientUnits="userSpaceOnUse" gradientTransform="translate(8.61476 34.1817) rotate(-90) scale(31.2303 29.0545)">
<stop stop-color="#FFDD55"/>
<stop offset="0.1" stop-color="#FFDD55"/>
<stop offset="0.5" stop-color="#FF543E"/>
<stop offset="1" stop-color="#C837AB"/>
</radialGradient>
<clipPath id="clip0_4034_2666">
<rect width="32" height="31.999" fill="white" transform="translate(0 0.000488281)"/>
</clipPath>
</defs>
</svg>
