<svg width="32" height="32" viewBox="0 0 32 32" fill="none" xmlns="http://www.w3.org/2000/svg">
<g clip-path="url(#clip0_4481_3077)">
<path d="M16.0074 0.24292C9.42771 0.24292 7.50341 0.249708 7.12936 0.280737C5.7791 0.392976 4.93888 0.605576 4.02351 1.06132C3.31808 1.41161 2.76173 1.81766 2.21266 2.38686C1.21269 3.42488 0.606648 4.70194 0.387261 6.21995C0.280597 6.9569 0.249568 7.1072 0.243265 10.8714C0.240841 12.1262 0.243265 13.7775 0.243265 15.9925C0.243265 22.5669 0.250537 24.4892 0.282052 24.8625C0.391139 26.1764 0.597194 27.0031 1.03354 27.9073C1.86746 29.6382 3.46014 30.9375 5.33644 31.4223C5.98612 31.5896 6.70368 31.6817 7.62486 31.7254C8.01515 31.7423 11.9932 31.7545 15.9737 31.7545C19.9542 31.7545 23.9347 31.7496 24.3153 31.7302C25.3819 31.68 26.0013 31.5969 26.6861 31.4199C28.5745 30.9327 30.1381 29.6527 30.989 27.8976C31.4169 27.0152 31.6338 26.157 31.732 24.9118C31.7533 24.6402 31.7623 20.3114 31.7623 15.9884C31.7623 11.6646 31.7526 7.3438 31.7313 7.07229C31.6319 5.80687 31.4149 4.95599 30.9732 4.05662C30.6108 3.3204 30.2084 2.7706 29.6242 2.20844C28.5816 1.21259 27.3064 0.606545 25.787 0.3874C25.0508 0.280979 24.9041 0.249465 21.1369 0.24292H16.0074Z" fill="url(#paint0_radial_4481_3077)"/>
<path d="M16.0074 0.24292C9.42771 0.24292 7.50341 0.249708 7.12936 0.280737C5.7791 0.392976 4.93888 0.605576 4.02351 1.06132C3.31808 1.41161 2.76173 1.81766 2.21266 2.38686C1.21269 3.42488 0.606648 4.70194 0.387261 6.21995C0.280597 6.9569 0.249568 7.1072 0.243265 10.8714C0.240841 12.1262 0.243265 13.7775 0.243265 15.9925C0.243265 22.5669 0.250537 24.4892 0.282052 24.8625C0.391139 26.1764 0.597194 27.0031 1.03354 27.9073C1.86746 29.6382 3.46014 30.9375 5.33644 31.4223C5.98612 31.5896 6.70368 31.6817 7.62486 31.7254C8.01515 31.7423 11.9932 31.7545 15.9737 31.7545C19.9542 31.7545 23.9347 31.7496 24.3153 31.7302C25.3819 31.68 26.0013 31.5969 26.6861 31.4199C28.5745 30.9327 30.1381 29.6527 30.989 27.8976C31.4169 27.0152 31.6338 26.157 31.732 24.9118C31.7533 24.6402 31.7623 20.3114 31.7623 15.9884C31.7623 11.6646 31.7526 7.3438 31.7313 7.07229C31.6319 5.80687 31.4149 4.95599 30.9732 4.05662C30.6108 3.3204 30.2084 2.7706 29.6242 2.20844C28.5816 1.21259 27.3064 0.606545 25.787 0.3874C25.0508 0.280979 24.9041 0.249465 21.1369 0.24292H16.0074Z" fill="#347278"/>
<path d="M24.3327 15.9999C24.3327 11.3975 20.6017 7.66659 15.9993 7.66659C11.397 7.66659 7.66602 11.3975 7.66602 15.9999C7.66602 20.6023 11.397 24.3333 15.9993 24.3333C20.6017 24.3333 24.3327 20.6023 24.3327 15.9999Z" stroke="white" stroke-width="1.25"/>
<path d="M22.6663 10.749C21.8874 10.8051 20.8897 11.1067 20.1979 12.0021C18.9484 13.6195 17.6989 13.7545 16.8658 13.2153C15.6163 12.4067 16.6663 11.0968 15.1998 10.385C14.244 9.92102 14.1107 8.65855 14.6427 7.6665" stroke="white" stroke-width="1.25" stroke-linejoin="round"/>
<path d="M7.66602 15.1665C8.30143 15.7183 9.1914 16.2233 10.24 16.2233C12.4064 16.2233 12.8397 16.6373 12.8397 18.293C12.8397 19.9487 12.8397 19.9487 13.2729 21.1905C13.5548 21.9983 13.6533 22.806 13.0915 23.4998" stroke="white" stroke-width="1.25" stroke-linejoin="round"/>
<path d="M24.3327 17.2102C23.5934 16.7842 22.666 16.6089 21.7272 17.2836C19.9307 18.5748 18.6921 17.5049 18.1343 18.574C17.3131 20.1478 20.2458 20.6425 17.666 24.3333" stroke="white" stroke-width="1.25" stroke-linejoin="round"/>
</g>
<defs>
<radialGradient id="paint0_radial_4481_3077" cx="0" cy="0" r="1" gradientUnits="userSpaceOnUse" gradientTransform="translate(8.61476 34.1815) rotate(-90) scale(31.2303 29.0545)">
<stop stop-color="#FFDD55"/>
<stop offset="0.1" stop-color="#FFDD55"/>
<stop offset="0.5" stop-color="#FF543E"/>
<stop offset="1" stop-color="#C837AB"/>
</radialGradient>
<clipPath id="clip0_4481_3077">
<rect width="32" height="31.999" fill="white" transform="translate(0 0.000488281)"/>
</clipPath>
</defs>
</svg>
