<svg width="301" height="278" viewBox="0 0 301 278" fill="none" xmlns="http://www.w3.org/2000/svg">
<g clip-path="url(#clip0_5009_2883)">
<rect width="300" height="276.834" transform="translate(0.5 0.583008)" fill="white"/>
<path d="M324.248 238.311H-23.2422V238.485H324.248V238.311Z" fill="#EBEBEB"/>
<path d="M289.427 244.93H267.488V245.104H289.427V244.93Z" fill="#EBEBEB"/>
<path d="M209.808 243.044H186.59V243.217H209.808V243.044Z" fill="#EBEBEB"/>
<path d="M295.767 251.383H252.377V251.557H295.767V251.383Z" fill="#EBEBEB"/>
<path d="M26.5828 250.216H13.2148V250.39H26.5828V250.216Z" fill="#EBEBEB"/>
<path d="M53.8219 250.216H32.7695V250.39H53.8219V250.216Z" fill="#EBEBEB"/>
<path d="M146.425 247.281H108.51V247.455H146.425V247.281Z" fill="#EBEBEB"/>
<path d="M165.979 54.6492L126.375 94.254V226.159H265.363V54.6492H165.979Z" fill="white"/>
<path d="M265.365 226.533H126.376C126.169 226.533 126.002 226.365 126.002 226.159V94.2535C126.002 94.1541 126.042 94.0596 126.111 93.9887L165.715 54.3845C165.786 54.3143 165.881 54.2754 165.98 54.2754H265.365C265.571 54.2754 265.739 54.4429 265.739 54.6493V226.159C265.739 226.365 265.571 226.533 265.365 226.533ZM126.749 225.785H264.99V55.0232H166.134L126.749 94.4084V225.785Z" fill="#E0E0E0"/>
<path d="M126.375 94.2545L167.929 99.6149L165.979 54.6497L126.375 94.2545Z" fill="#E6E6E6"/>
<path d="M126.375 94.2545H165.979V54.6497L126.375 94.2545Z" fill="white"/>
<path d="M165.98 94.6276H126.376C126.224 94.6276 126.088 94.5366 126.03 94.3969C125.973 94.2572 126.005 94.0959 126.111 93.9889L165.715 54.3847C165.822 54.2784 165.983 54.2451 166.123 54.3041C166.263 54.3618 166.354 54.498 166.354 54.6495V94.2537C166.354 94.4601 166.186 94.6276 165.98 94.6276ZM127.278 93.8798H165.605V55.5523L127.278 93.8798Z" fill="#E0E0E0"/>
<path d="M203.908 151.293L227.547 127.653C229.759 125.442 229.759 121.823 227.547 119.612C225.336 117.4 221.718 117.4 219.506 119.612L195.867 143.251L172.227 119.612C170.015 117.4 166.397 117.4 164.186 119.612C161.974 121.823 161.974 125.442 164.186 127.653L187.826 151.293L164.186 174.933C161.974 177.144 161.974 180.762 164.186 182.974C166.397 185.185 170.015 185.185 172.227 182.974L195.867 159.334L219.506 182.974C221.718 185.185 225.336 185.185 227.547 182.974C229.759 180.762 229.759 177.144 227.547 174.933L203.908 151.293Z" fill="#F0F0F0"/>
<path d="M131.758 131.727C128.983 134.502 124.484 134.502 121.709 131.727L98.9043 108.923L108.954 98.8735L131.758 121.678C134.533 124.453 134.533 128.952 131.758 131.727Z" fill="#F0F0F0"/>
<path d="M109.883 107.066L107.097 109.852C105.091 111.858 101.839 111.858 99.8335 109.852L98.9043 108.923L108.954 98.8735L109.883 99.8027C111.888 101.808 111.888 105.06 109.883 107.066Z" fill="#E0E0E0"/>
<path d="M35.6243 35.5957C16.3414 54.8786 16.3414 86.1354 35.6243 105.418C54.9038 124.697 86.164 124.7 105.446 105.418C124.726 86.1381 124.726 54.8751 105.446 35.5957C86.164 16.3127 54.9038 16.3162 35.6243 35.5957ZM102.593 102.564C84.8894 120.268 56.1818 120.268 38.4779 102.564C20.774 84.8601 20.774 56.1525 38.4779 38.4486C56.1818 20.7446 84.8894 20.7446 102.593 38.4486C120.297 56.1532 120.297 84.8601 102.593 102.564Z" fill="#E0E0E0"/>
<path d="M96.4745 98.0966C96.0519 98.0966 95.6287 97.9354 95.3062 97.6129C94.6613 96.9679 94.6606 95.922 95.3062 95.277C108.964 81.6186 108.964 59.3945 95.3062 45.736C94.6606 45.0904 94.6613 44.0445 95.3062 43.4002C95.9512 42.7553 96.9978 42.7553 97.6421 43.4002C112.588 58.3472 112.588 82.6666 97.6421 97.6136C97.3196 97.9353 96.897 98.0966 96.4745 98.0966Z" fill="#E0E0E0"/>
<path d="M34.842 80.6443C34.0936 80.6443 33.4159 80.1328 33.2359 79.3732C30.8042 69.1 32.7293 58.1798 38.5185 49.4126C39.021 48.6495 40.0454 48.4403 40.8071 48.9442C41.5688 49.4467 41.778 50.4711 41.2755 51.2327C35.9874 59.2424 34.2284 69.2223 36.4509 78.6122C36.6615 79.4997 36.1125 80.3907 35.2243 80.5999C35.0957 80.6304 34.9678 80.6443 34.842 80.6443Z" fill="#E0E0E0"/>
<path d="M44.5968 98.0966C44.1742 98.0966 43.751 97.9354 43.4285 97.6129C40.4387 94.6224 37.984 91.1996 36.1333 87.4405C35.7302 86.6218 36.0666 85.6322 36.8853 85.2291C37.7012 84.8225 38.6936 85.1623 39.0967 85.981C40.7883 89.4149 43.0317 92.5423 45.765 95.2764C46.4107 95.922 46.41 96.968 45.765 97.6122C45.4426 97.9354 45.02 98.0966 44.5968 98.0966Z" fill="#E0E0E0"/>
<path d="M150.503 269.699C224.923 269.699 285.252 266.176 285.252 261.83C285.252 257.484 224.923 253.96 150.503 253.96C76.0831 253.96 15.7539 257.484 15.7539 261.83C15.7539 266.176 76.0831 269.699 150.503 269.699Z" fill="#F5F5F5"/>
<path d="M72.5425 73.9388C66.9402 79.5702 76.4642 88.3228 70.1719 92.3363C75.3043 94.9175 93.3071 98.1902 97.9447 88.0539C94.5469 85.4136 96.9064 78.9169 93.7693 72.6871C89.1122 63.4404 66.9402 67.5332 72.5425 73.9388Z" fill="#141414"/>
<path d="M73.0481 73.7901C71.3016 73.4968 65.4116 76.4324 69.7928 84.3072C73.3323 90.6684 70.3849 91.1236 70.3849 91.1236C70.3849 91.1236 73.8806 91.2216 71.795 86.4888C69.5676 81.4349 68.5279 76.1919 73.0481 73.7901Z" fill="#141414"/>
<path d="M114.355 123.79C113.921 122.96 112.896 122.639 112.066 123.073L111.652 123.289C111.523 123.356 111.271 123.524 111.068 123.637C110.856 123.766 110.636 123.888 110.413 124C109.969 124.229 109.508 124.414 109.055 124.574C108.146 124.894 107.241 125.063 106.382 125.077C105.521 125.098 104.706 124.941 103.915 124.681C103.42 124.506 102.935 124.274 102.458 124.002C101.863 122.68 101.294 121.346 100.804 119.972C100.214 118.364 99.6952 116.723 99.2386 115.062C98.7827 113.401 98.3769 111.723 98.0412 110.034C97.8674 109.191 97.7132 108.345 97.5756 107.502L97.39 106.243C97.3268 105.838 97.2711 105.385 97.2336 105.065L97.2176 104.927C96.9994 103.083 95.3599 101.726 93.4932 101.874C91.5806 102.027 90.1538 103.699 90.3061 105.612C90.3526 106.199 90.3978 106.651 90.4583 107.149C90.5139 107.638 90.5931 108.115 90.6626 108.595C90.8162 109.55 90.9871 110.498 91.1796 111.44C91.5716 113.322 92.0525 115.182 92.6391 117.014C92.9143 117.934 93.2486 118.839 93.562 119.748C93.9206 120.644 94.248 121.549 94.6469 122.43C95.3829 124.214 96.2912 125.935 97.2281 127.633L97.3128 127.788C97.5533 128.226 97.9182 128.603 98.3901 128.86C99.6647 129.554 101.094 130.077 102.596 130.349C104.102 130.619 105.68 130.573 107.152 130.25C108.624 129.908 109.978 129.301 111.15 128.512C111.738 128.12 112.274 127.671 112.778 127.201C113.03 126.965 113.272 126.721 113.506 126.463C113.748 126.19 113.932 125.96 114.206 125.598C114.587 125.092 114.669 124.39 114.355 123.79Z" fill="#FF8B7B"/>
<path d="M118.983 117.284L118.783 117.279C117.43 117.247 116.14 117.85 115.297 118.908L111.941 123.119L111.912 125.998C114.606 127.068 118.028 124.18 118.028 124.18L119.758 123.748C120.964 123.446 121.745 122.281 121.567 121.051L121.322 119.358C121.153 118.189 120.164 117.313 118.983 117.284Z" fill="#FF8B7B"/>
<path d="M97.1466 101.039C99.3914 103.345 99.5345 110.235 99.5345 110.235L90.5498 117.459C90.5498 117.459 86.8657 107.249 88.9034 103.641C90.6339 100.578 94.2874 98.1014 97.1466 101.039Z" fill="#347278"/>
<g opacity="0.2">
<path d="M97.1466 101.039C99.3914 103.345 99.5345 110.235 99.5345 110.235L90.5498 117.459C90.5498 117.459 86.8657 107.249 88.9034 103.641C90.6339 100.578 94.2874 98.1014 97.1466 101.039Z" fill="white"/>
</g>
<path d="M82.2949 255.872L87.2543 256.419L87.934 242.935L82.9746 242.387L82.2949 255.872Z" fill="#FF8B7B"/>
<path d="M88.068 253.176H82.2358C81.9821 253.176 81.7889 253.353 81.7715 253.6L81.383 259.115C81.3427 259.687 81.8716 260.213 82.4589 260.219C84.9198 260.241 84.9434 260.23 88.009 260.23C89.8951 260.23 93.6807 260.23 96.2848 260.23C98.8319 260.23 98.8382 257.655 97.7366 257.422C92.7974 256.376 90.8716 254.934 89.1321 253.558C88.82 253.309 88.4392 253.176 88.068 253.176Z" fill="#141414"/>
<path opacity="0.2" d="M87.9326 242.938L87.583 249.889L82.5938 249.895L82.9711 242.39L87.9326 242.938Z" fill="black"/>
<path d="M90.6102 135.364C90.6102 135.364 94.8982 171.317 94.8982 187.301C91.5143 209.541 88.6531 248.57 88.6531 248.57L81.7832 248.393C81.7832 248.393 78.6628 205.883 81.5573 187.534C77.851 171.085 73.2773 133.142 73.2773 133.142L90.6102 135.364Z" fill="#141414"/>
<path opacity="0.2" d="M77.3768 145.373C76.5081 145.756 75.7228 146.173 75 146.61C75.9452 153.706 77.1892 162.637 78.5097 170.879C80.7614 164.096 79.5452 149.182 77.3768 145.373Z" fill="black"/>
<path d="M28.5586 243.357L32.6493 246.214L39.7089 234.704L35.6182 231.847L28.5586 243.357Z" fill="#FF8B7B"/>
<path d="M33.6871 244.706L30.2004 240.03C30.0489 239.827 29.7925 239.777 29.5833 239.911L24.9297 242.897C24.4474 243.206 24.341 243.945 24.6885 244.419C26.1417 246.405 26.1647 246.418 27.9973 248.875C29.1246 250.387 31.3875 253.422 32.9442 255.51C34.4669 257.551 36.5352 256.017 36.0633 254.995C33.9491 250.41 33.954 248.004 34.0173 245.787C34.0298 245.389 33.9088 245.004 33.6871 244.706Z" fill="#141414"/>
<path opacity="0.2" d="M39.7076 234.707L36.0694 240.64L31.6875 238.254L35.6155 231.848L39.7076 234.707Z" fill="black"/>
<path d="M53.6689 248.184C50.1161 248.184 42.7215 248.184 42.5971 242.957C42.4984 238.855 47.5732 237.155 51.9481 236.947C53.992 236.841 55.7197 238.424 55.8177 240.464C55.8219 240.557 55.8233 240.649 55.8205 240.741C60.7813 240.505 63.9935 239.421 65.1666 237.571C67.8159 233.395 62.7453 222.634 57.8415 212.228C52.0767 199.992 45.5431 186.125 45.4146 172.846C45.3951 170.804 47.0346 169.132 49.0771 169.113C49.0889 169.113 49.1007 169.113 49.1133 169.113C51.1384 169.113 52.7904 170.746 52.8099 172.775C52.9218 184.436 59.0897 197.527 64.5314 209.076C70.8126 222.408 76.2383 233.922 71.4117 241.531C68.5727 246.008 62.7689 248.184 53.6689 248.184Z" fill="#347278"/>
<path d="M85.1142 134.659C85.1142 134.659 73.2592 175.744 67.4665 190.642C56.2537 210.144 37.6421 239.995 37.6421 239.995L31.6973 236.547C31.6973 236.547 45.6011 202.077 54.9485 186.023C57.4546 169.349 66.9418 132.327 66.9418 132.327L85.1142 134.659Z" fill="#141414"/>
<path d="M34.7541 248.061C35.0766 248.494 35.4331 248.832 35.789 248.904C36.0322 248.954 36.2567 248.877 36.4554 248.678C36.6035 248.529 36.6202 248.363 36.6083 248.249C36.5208 247.416 34.3698 246.334 33.9396 246.126C33.8903 246.102 33.8326 246.12 33.7964 246.17C33.7603 246.221 33.7534 246.293 33.7791 246.349C34.0049 246.84 34.3524 247.523 34.7541 248.061ZM36.2351 248.035C36.3067 248.131 36.3505 248.22 36.3588 248.299C36.363 248.337 36.3588 248.384 36.3005 248.442C36.1601 248.583 36.01 248.635 35.8397 248.6C35.3852 248.508 34.7819 247.767 34.1926 246.591C34.9578 246.995 35.9008 247.587 36.2351 248.035Z" fill="#141414"/>
<path d="M33.7937 246.375C33.8041 246.389 33.8173 246.401 33.8319 246.41C34.5214 246.795 36.3339 247.098 36.7272 246.526C36.8134 246.401 36.8773 246.184 36.6925 245.863C35.9752 244.627 33.9153 246.074 33.8278 246.136C33.7868 246.166 33.761 246.22 33.7617 246.278C33.7631 246.315 33.7742 246.349 33.7937 246.375ZM36.4332 245.968C36.452 245.993 36.4694 246.02 36.4854 246.047C36.5611 246.178 36.5785 246.274 36.5375 246.333C36.3095 246.665 34.971 246.551 34.1926 246.244C34.7152 245.928 35.9342 245.3 36.4332 245.968Z" fill="#141414"/>
<path d="M91.3961 254.326C91.9348 254.326 92.4198 254.243 92.6909 254.001C92.8757 253.835 92.9487 253.61 92.9077 253.331C92.8771 253.124 92.7534 253.01 92.6554 252.952C91.9347 252.525 89.7824 253.602 89.3578 253.823C89.3091 253.848 89.289 253.905 89.3077 253.964C89.3265 254.023 89.38 254.072 89.4405 254.084C89.9686 254.197 90.7248 254.326 91.3961 254.326ZM92.2607 253.124C92.3802 253.124 92.4775 253.142 92.5463 253.183C92.579 253.202 92.6144 253.234 92.6262 253.316C92.6554 253.512 92.6068 253.664 92.4775 253.779C92.1321 254.088 91.1772 254.129 89.8818 253.899C90.6629 253.525 91.7012 253.124 92.2607 253.124Z" fill="#141414"/>
<path d="M89.4711 254.088C89.4892 254.088 89.5058 254.084 89.5218 254.078C90.2432 253.756 91.5692 252.483 91.3462 251.826C91.2975 251.682 91.162 251.501 90.7943 251.458C89.3738 251.294 89.3036 253.811 89.3008 253.918C89.2994 253.968 89.3279 254.021 89.3745 254.055C89.4044 254.077 89.4384 254.088 89.4711 254.088ZM90.7228 251.729C90.7533 251.729 90.7853 251.731 90.818 251.735C90.9674 251.752 91.055 251.795 91.0779 251.863C91.2072 252.245 90.3162 253.25 89.6045 253.69C89.6636 253.082 89.8881 251.729 90.7228 251.729Z" fill="#141414"/>
<path d="M66.9375 132.328C71.5077 132.914 81.2173 134.155 90.6065 135.36C95.9488 117.386 97.7015 108.708 98.1783 104.526C98.4257 102.357 97.1163 100.312 95.0342 99.656C93.6192 99.2098 91.8546 98.6837 90.0748 98.2292C89.466 98.0729 88.8509 97.9248 88.2456 97.7907C84.7797 97.0213 81.5022 96.7267 77.4984 96.4077C76.9647 96.3632 76.4337 96.3333 75.9027 96.3041C74.854 96.2541 73.8289 96.2346 72.8726 96.2346C69.8703 96.2339 67.5192 98.8019 67.7805 101.792C67.964 103.893 68.112 105.815 68.2232 107.593C68.4887 111.751 68.5686 115.102 68.5089 118.024C68.3858 123.46 67.775 127.414 66.9375 132.328Z" fill="#347278"/>
<g opacity="0.3">
<path d="M66.9375 132.328C71.5077 132.914 81.2173 134.155 90.6065 135.36C95.9488 117.386 97.7015 108.708 98.1783 104.526C98.4257 102.357 97.1163 100.312 95.0342 99.656C93.6192 99.2098 91.8546 98.6837 90.0748 98.2292C89.466 98.0729 88.8509 97.9248 88.2456 97.7907C84.7797 97.0213 81.5022 96.7267 77.4984 96.4077C76.9647 96.3632 76.4337 96.3333 75.9027 96.3041C74.854 96.2541 73.8289 96.2346 72.8726 96.2346C69.8703 96.2339 67.5192 98.8019 67.7805 101.792C67.964 103.893 68.112 105.815 68.2232 107.593C68.4887 111.751 68.5686 115.102 68.5089 118.024C68.3858 123.46 67.775 127.414 66.9375 132.328Z" fill="white"/>
</g>
<path opacity="0.3" d="M68.5096 118.024C71.6384 113.981 72.7656 109.355 71.7544 106.8L68.2246 107.594C68.4894 111.751 68.57 115.102 68.5096 118.024Z" fill="#347278"/>
<path d="M90.0774 98.2327C89.4658 98.0728 88.8542 97.9269 88.2496 97.7879C84.7816 97.0234 81.5013 96.7246 77.4982 96.4049C76.9631 96.3632 76.4349 96.3354 75.9067 96.3076C75.594 96.2937 75.2882 96.2798 74.9824 96.2659L75.7122 97.4821C75.8095 97.6489 78.1724 101.513 84.0797 105.669L85.3376 106.545L86.5469 105.62C89.9176 103.042 90.3554 99.8103 90.3554 98.3022C90.265 98.2813 90.1678 98.2535 90.0774 98.2327Z" fill="white"/>
<path d="M80.1044 89.254C79.8833 92.1792 79.1946 95.16 77.4961 96.4095C77.4961 96.4095 79.6624 100.016 85.2806 103.961C88.7972 101.271 88.2447 97.7884 88.2447 97.7884C84.5064 96.3727 84.76 93.8061 86.3481 89.6724L83.4298 88.1011C82.2963 86.8508 80.2308 87.5722 80.1044 89.254Z" fill="#FF8B7B"/>
<path opacity="0.2" d="M83.4257 88.0984C82.3582 86.919 80.4532 87.4972 80.1426 88.9879C81.3379 91.1806 82.8725 93.0209 85.2472 94.2107C85.2152 92.9722 85.6531 91.4669 86.3432 89.6697L83.4257 88.0984Z" fill="black"/>
<path d="M75.567 80.0805C77.0174 85.7286 77.5108 88.1506 80.9621 90.5295C86.1536 94.1073 92.774 91.0904 93.0402 85.1226C93.2799 79.7511 90.8677 71.4162 84.8352 70.218C78.8911 69.0366 74.1158 74.4324 75.567 80.0805Z" fill="#FF8B7B"/>
<path d="M89.9425 71.3554C84.1512 76.4517 78.1529 77.8709 78.1529 77.8709C78.1529 77.8709 82.4638 87.0502 74.3888 84.7338C72.0475 76.9153 74.4222 72.8614 76.4488 70.9502C82.8766 68.8646 87.394 68.1696 89.9425 71.3554Z" fill="#141414"/>
<path d="M75.2928 85.6464C75.7905 86.748 76.7502 87.518 77.685 87.8537C79.0909 88.3597 79.9026 87.1281 79.6024 85.7437C79.3321 84.4983 78.275 82.7338 76.8197 82.8241C75.3867 82.9145 74.7244 84.3864 75.2928 85.6464Z" fill="#FF8B7B"/>
<path d="M66.7622 130.894L65.4229 132.876C65.3194 133.029 65.4924 133.222 65.7656 133.257L90.5896 136.44C90.8029 136.468 90.9934 136.386 91.0239 136.253L91.509 134.162C91.5424 134.017 91.3735 133.87 91.14 133.84L67.1701 130.766C66.9943 130.743 66.8289 130.794 66.7622 130.894Z" fill="#347278"/>
<path d="M69.6371 133.986L68.995 133.904C68.8671 133.887 68.7781 133.809 68.7976 133.729L69.4516 131.015C69.4703 130.936 69.5906 130.885 69.7184 130.901L70.3606 130.983C70.4885 130.999 70.5774 131.077 70.558 131.157L69.904 133.872C69.8852 133.952 69.765 134.003 69.6371 133.986Z" fill="#263238"/>
<path d="M88.7563 136.438L88.1141 136.356C87.9862 136.34 87.8973 136.262 87.9167 136.182L88.5707 133.468C88.5895 133.389 88.7104 133.337 88.8383 133.353L89.4804 133.435C89.6083 133.452 89.6973 133.53 89.6778 133.61L89.0238 136.324C89.0051 136.403 88.8842 136.455 88.7563 136.438Z" fill="#263238"/>
<path d="M79.1977 135.212L78.5555 135.13C78.4276 135.114 78.3387 135.036 78.3581 134.956L79.0121 132.241C79.0309 132.162 79.1518 132.11 79.2797 132.127L79.9218 132.209C80.0497 132.225 80.1387 132.303 80.1192 132.383L79.4652 135.097C79.4458 135.178 79.3255 135.229 79.1977 135.212Z" fill="#263238"/>
<path d="M85.2403 79.8384C85.33 80.304 85.649 80.6335 85.9534 80.5751C86.2578 80.5167 86.4315 80.0921 86.3419 79.6264C86.2522 79.1608 85.9332 78.8314 85.6288 78.8898C85.3251 78.9481 85.1507 79.3728 85.2403 79.8384Z" fill="#263238"/>
<path d="M90.5021 78.8267C90.5918 79.2923 90.9108 79.6217 91.2152 79.5634C91.5196 79.505 91.6933 79.0804 91.6037 78.6147C91.514 78.1491 91.195 77.8197 90.8906 77.878C90.5862 77.9364 90.4124 78.3611 90.5021 78.8267Z" fill="#263238"/>
<path d="M90.7617 77.9293L91.8174 77.3921C91.8174 77.3921 91.4115 78.3755 90.7617 77.9293Z" fill="#263238"/>
<path d="M89.1113 79.8711C89.1113 79.8711 90.2865 81.7225 91.3422 82.5224C90.8383 83.214 89.7431 83.1528 89.7431 83.1528L89.1113 79.8711Z" fill="#FF5652"/>
<path d="M85.8276 85.0294C85.7921 85.0704 85.7817 85.1302 85.8067 85.1816C85.8401 85.2511 85.9235 85.2796 85.9923 85.2462C87.8597 84.3428 89.372 85.2254 89.3873 85.2344C89.4533 85.274 89.5402 85.2504 89.5784 85.1865C89.618 85.1204 89.5964 85.0357 89.5311 84.9954C89.4644 84.955 87.8791 84.0238 85.8713 84.9954C85.8547 85.0044 85.8401 85.0162 85.8276 85.0294Z" fill="#263238"/>
<path d="M83.432 78.4049C83.4709 78.3785 83.5043 78.3423 83.5265 78.2965C84.0749 77.1831 85.0916 77.0483 85.102 77.0469C85.2536 77.0288 85.3634 76.8898 85.3453 76.7376C85.3272 76.5854 85.1882 76.4763 85.0353 76.4944C84.9811 76.5006 83.7079 76.6688 83.0268 78.0504C82.9587 78.1881 83.0157 78.3555 83.1533 78.423C83.2464 78.4688 83.3521 78.4584 83.432 78.4049Z" fill="#263238"/>
<path d="M92.0629 74.8842C92.0747 74.8724 92.0866 74.8592 92.0963 74.8439C92.1832 74.7174 92.1512 74.5437 92.0247 74.4568C90.7557 73.5839 89.5624 74.0599 89.5124 74.0808C89.3699 74.1392 89.3025 74.3018 89.3608 74.4443C89.4192 74.586 89.5812 74.6535 89.7229 74.5958C89.7674 74.5777 90.6994 74.2212 91.7092 74.9155C91.8211 74.9926 91.9698 74.9766 92.0629 74.8842Z" fill="#263238"/>
<path d="M85.5 78.9413L86.5557 78.4041C86.5557 78.4041 86.1505 79.3874 85.5 78.9413Z" fill="#263238"/>
<path d="M49.1107 176.508C47.0855 176.508 45.4336 174.875 45.4141 172.847C45.3189 162.974 48.6076 154.642 54.9235 148.75C62.699 141.496 74.8313 138.127 89.0909 139.253C99.0916 140.046 105.505 137.607 112.929 134.783C114.15 134.32 115.383 133.851 116.648 133.39C118.564 132.689 120.689 133.68 121.387 135.599C122.086 137.518 121.097 139.64 119.178 140.338C117.947 140.787 116.746 141.244 115.558 141.695C107.992 144.573 100.17 147.543 88.5071 146.624C76.3401 145.658 66.2072 148.336 59.9677 154.157C55.1425 158.659 52.7337 164.923 52.8094 172.775C52.8289 174.816 51.1894 176.488 49.1483 176.508C49.1357 176.508 49.1232 176.508 49.1107 176.508Z" fill="#347278"/>
<path d="M119.744 151.005L134.627 145.554L125.059 119.436L110.176 124.887C107.604 125.829 106.271 128.705 107.212 131.277L113.353 148.041C114.296 150.614 117.171 151.947 119.744 151.005Z" fill="#347278"/>
<path opacity="0.7" d="M119.744 151.005L134.627 145.554L125.059 119.436L110.176 124.887C107.604 125.829 106.271 128.705 107.212 131.277L113.353 148.041C114.296 150.614 117.171 151.947 119.744 151.005Z" fill="white"/>
<path opacity="0.2" d="M118.421 121.865L125.059 119.433L134.627 145.555L127.989 147.986C127.554 147.571 127.216 147.057 126.997 146.46L118.65 123.671C118.431 123.073 118.356 122.463 118.421 121.865Z" fill="#347278"/>
<path d="M139.959 125.961L139.307 126.2L140.897 130.544L141.55 130.305L139.959 125.961Z" fill="#347278"/>
<path d="M138.311 123.473L135.964 117.064C135.153 114.848 133.018 113.36 130.651 113.36C129.992 113.36 129.341 113.475 128.719 113.703L124.491 115.252L124.252 114.599L128.48 113.05C129.18 112.795 129.91 112.665 130.651 112.665C133.308 112.665 135.705 114.336 136.616 116.825L138.964 123.234L138.311 123.473Z" fill="#347278"/>
<path d="M134.332 148.202L140.523 145.934C142.542 145.194 143.588 142.938 142.849 140.919L134.33 117.661C133.59 115.642 131.334 114.596 129.315 115.335L123.124 117.603C121.105 118.342 120.058 120.599 120.798 122.618L129.317 145.876C130.056 147.894 132.313 148.941 134.332 148.202Z" fill="#347278"/>
<path d="M131.188 123.966C131.584 125.048 131.029 126.245 129.947 126.641C128.866 127.038 127.669 126.482 127.272 125.401C126.876 124.319 127.432 123.122 128.513 122.726C129.594 122.33 130.792 122.886 131.188 123.966Z" fill="#263238"/>
<path d="M136.377 138.136C136.773 139.218 136.218 140.415 135.137 140.811C134.055 141.208 132.858 140.652 132.462 139.571C132.066 138.489 132.621 137.292 133.702 136.896C134.784 136.5 135.981 137.055 136.377 138.136Z" fill="#263238"/>
<path d="M75.4684 136.462L75.4086 136.403C74.3224 135.319 73.1757 134.137 72.1443 132.94C71.0914 131.747 70.0914 130.523 69.1712 129.272C68.2434 128.026 67.4171 126.736 66.6984 125.442C66.1598 124.457 65.7095 123.458 65.3627 122.473C65.7776 121.088 66.2196 119.713 66.7478 118.358C67.3545 116.756 68.0384 115.176 68.7806 113.622C69.5235 112.069 70.3158 110.535 71.1686 109.039C71.5897 108.287 72.0262 107.548 72.4751 106.82L73.159 105.748C73.3765 105.401 73.6316 105.022 73.8123 104.756L73.8901 104.641C74.9333 103.104 74.583 101.005 73.0749 99.8949C71.5307 98.7572 69.3561 99.0866 68.2184 100.632C67.8695 101.106 67.6075 101.477 67.326 101.893C67.048 102.299 66.7951 102.711 66.5337 103.12C66.0243 103.942 65.533 104.77 65.0611 105.608C64.1249 107.287 63.2694 109.008 62.5133 110.776C62.1199 111.652 61.7794 112.555 61.4208 113.446C61.1039 114.359 60.7598 115.257 60.4832 116.185C59.871 118.014 59.4303 119.91 59.0266 121.806L58.9911 121.972C58.8876 122.463 58.9161 122.988 59.1016 123.494C59.782 125.356 60.7216 127.01 61.7599 128.524C62.8003 130.037 63.9741 131.397 65.1945 132.67C66.4309 133.931 67.7242 135.103 69.0801 136.183C70.4583 137.256 71.8128 138.254 73.3626 139.175C74.027 139.569 74.8985 139.482 75.4698 138.91C76.1453 138.231 76.1439 137.136 75.4684 136.462Z" fill="#FF8B7B"/>
<path d="M83.5209 139.914L83.434 139.734C82.8461 138.515 81.7216 137.641 80.3956 137.373L75.1179 136.305L72.543 137.592C72.8182 140.477 76.9478 142.207 76.9478 142.207L78.1216 143.55C78.9396 144.485 80.3323 144.65 81.3463 143.931L82.7418 142.942C83.7044 142.258 84.0338 140.978 83.5209 139.914Z" fill="#FF8B7B"/>
<path d="M70.7135 96.7117C67.789 98.0544 64.6699 102.692 64.6699 102.692L70.9519 114.406C70.9519 114.406 78.0671 106.208 77.4652 102.108C76.9551 98.6277 74.4393 95.002 70.7135 96.7117Z" fill="#347278"/>
<g opacity="0.3">
<path d="M70.7135 96.7117C67.789 98.0544 64.6699 102.692 64.6699 102.692L70.9519 114.406C70.9519 114.406 78.0671 106.208 77.4652 102.108C76.9551 98.6277 74.4393 95.002 70.7135 96.7117Z" fill="white"/>
</g>
<path d="M270.936 250.149C264.813 250.15 258.793 248.888 255.878 245.081C242.057 227.035 242.182 190.663 242.303 155.489C242.369 136.555 243.865 118.671 241.763 104.777C240.523 96.5862 236.23 90.9596 231.834 88.0553C225.36 83.7777 216.459 86.0746 212.657 87.0566C210.681 87.5681 208.665 86.379 208.153 84.4011C207.643 82.4239 208.832 80.4077 210.809 79.8962C215.562 78.6682 226.694 75.7952 235.911 81.8853C242.126 85.9919 247.507 93.3212 249.073 103.67C251.262 118.126 249.764 136.287 249.698 155.514C249.581 189.449 249.46 224.539 261.748 240.585C262.739 241.879 266.623 243.037 273.041 242.707C273.608 242.678 274.167 242.638 274.713 242.591C274.475 242.103 274.342 241.554 274.342 240.975C274.342 238.933 275.997 237.277 278.039 237.277C286.119 237.277 290.372 237.957 291.194 241.669C291.43 242.732 291.555 245.4 287.647 247.22C284.731 248.578 277.769 250.149 270.936 250.149Z" fill="#347278"/>
<path d="M190.027 253.336L182.484 250.372L186.463 237.298L194.005 240.261L190.027 253.336Z" fill="#FFC3BD"/>
<path d="M182.308 249.57L190.803 252.908C191.027 252.996 191.16 253.228 191.122 253.466L190.292 258.758C190.206 259.307 189.621 259.629 189.107 259.417C186.975 258.536 183.637 257.08 180.932 256.016C179.267 255.362 176.105 254.319 173.807 253.416C171.559 252.533 172.101 250.123 173.123 250.287C177.704 251.021 179.459 250.242 181.287 249.559C181.617 249.435 181.981 249.442 182.308 249.57Z" fill="#141414"/>
<path opacity="0.2" d="M194.006 240.266L186.461 237.3L184.414 244.042L191.959 247.006L194.006 240.266Z" fill="black"/>
<path d="M203.442 139.073C203.442 139.073 196.619 172.81 194.007 189.445C191.078 208.093 183.326 242.153 183.326 242.153L193.355 246.093C193.355 246.093 207.677 211.223 209.674 194.331C215.683 180.611 227.639 140.214 227.639 140.214L203.442 139.073Z" fill="#347278"/>
<path d="M182.844 242.213L193.849 246.538L195.731 243.205L183.424 238.104L182.844 242.213Z" fill="#141414"/>
<path d="M180.148 249.714C179.732 249.55 179.37 249.326 179.204 249.02C179.072 248.779 179.073 248.513 179.204 248.23C179.303 248.019 179.458 247.961 179.571 247.95C180.302 247.877 181.638 249.656 181.788 249.859C181.822 249.905 181.825 249.965 181.797 250.014C181.768 250.062 181.713 250.088 181.658 250.08C181.241 250.023 180.654 249.914 180.148 249.714ZM179.78 248.261C179.712 248.234 179.651 248.222 179.598 248.228C179.557 248.232 179.502 248.249 179.457 248.348C179.362 248.549 179.36 248.726 179.448 248.888C179.648 249.257 180.35 249.572 181.353 249.75C180.876 249.15 180.2 248.426 179.78 248.261Z" fill="#141414"/>
<path d="M181.627 250.072C181.606 250.064 181.587 250.051 181.571 250.033C181.126 249.502 180.501 247.872 180.857 247.307C180.922 247.204 181.079 247.045 181.403 247.129C181.613 247.184 181.778 247.312 181.891 247.513C182.322 248.283 181.832 249.914 181.811 249.983C181.796 250.032 181.756 250.069 181.706 250.079C181.679 250.085 181.652 250.082 181.627 250.072ZM181.394 247.419C181.375 247.411 181.356 247.405 181.335 247.399C181.158 247.353 181.113 247.425 181.094 247.456C180.884 247.789 181.226 248.97 181.621 249.619C181.738 249.133 181.926 248.143 181.649 247.649C181.584 247.536 181.501 247.46 181.394 247.419Z" fill="#141414"/>
<path opacity="0.2" d="M218.152 159.521C214.374 164.21 212.88 176.145 212.895 186.098C215.446 179.073 218.367 170.148 220.94 162.044L218.152 159.521Z" fill="black"/>
<path d="M235.409 254.595H227.305L226.227 240.971H234.33L235.409 254.595Z" fill="#FFC3BD"/>
<path d="M226.846 253.914H235.973C236.214 253.914 236.422 254.08 236.474 254.315L237.636 259.544C237.757 260.086 237.331 260.6 236.775 260.59C234.468 260.551 230.829 260.415 227.923 260.415C226.135 260.415 222.81 260.601 220.34 260.601C217.925 260.601 217.549 258.159 218.559 257.938C223.092 256.946 224.44 255.579 225.891 254.274C226.153 254.04 226.495 253.914 226.846 253.914Z" fill="#141414"/>
<path opacity="0.2" d="M234.33 240.975H226.223L226.783 247.997H234.89L234.33 240.975Z" fill="black"/>
<path d="M213.254 139.502C213.254 139.502 217.743 177.091 218.688 190.624C220.002 209.454 225.08 246.637 225.08 246.637H235.855C235.855 246.637 237.011 208.663 235.06 191.766C237.744 177.031 236.895 140.63 236.895 140.63L213.254 139.502Z" fill="#347278"/>
<path d="M224.652 246.87H236.477L237.009 243.079L223.689 242.833L224.652 246.87Z" fill="#141414"/>
<path d="M224.888 254.838C224.441 254.838 224.022 254.762 223.756 254.538C223.545 254.361 223.448 254.113 223.467 253.801C223.482 253.57 223.605 253.459 223.706 253.407C224.36 253.071 226.255 254.239 226.469 254.372C226.517 254.402 226.542 254.457 226.533 254.513C226.524 254.568 226.482 254.613 226.428 254.627C226.019 254.725 225.433 254.838 224.888 254.838ZM224.014 253.62C223.941 253.62 223.88 253.631 223.833 253.655C223.796 253.675 223.752 253.71 223.746 253.818C223.732 254.04 223.794 254.206 223.935 254.324C224.257 254.595 225.025 254.632 226.023 254.431C225.36 254.046 224.465 253.62 224.014 253.62Z" fill="#141414"/>
<path d="M226.394 254.63C226.371 254.63 226.348 254.624 226.327 254.613C225.718 254.283 224.541 252.993 224.665 252.338C224.688 252.219 224.776 252.013 225.109 251.972C225.324 251.947 225.524 252.006 225.702 252.152C226.385 252.71 226.527 254.408 226.532 254.48C226.536 254.531 226.512 254.58 226.469 254.608C226.447 254.623 226.42 254.63 226.394 254.63ZM225.206 252.246C225.185 252.246 225.164 252.247 225.143 252.25C224.962 252.272 224.946 252.355 224.939 252.39C224.866 252.777 225.615 253.752 226.221 254.211C226.152 253.715 225.964 252.726 225.526 252.367C225.426 252.286 225.321 252.246 225.206 252.246Z" fill="#141414"/>
<path d="M216.973 87.6598L216.945 87.6591L210.451 87.575C208.273 87.5604 206.103 87.5111 203.959 87.4735C203.306 87.4603 202.665 87.4311 202.02 87.4061C202.055 87.3672 202.088 87.329 202.123 87.2901C202.581 86.805 203.037 86.3039 203.513 85.8257C203.746 85.5783 203.981 85.3337 204.218 85.0974C204.438 84.859 204.71 84.5956 204.861 84.4045L205.453 83.6581C206.126 82.797 206.4 81.6406 206.093 80.5036C205.575 78.5875 203.602 77.454 201.686 77.9718L200.399 78.3193C199.998 78.4402 199.603 78.5674 199.212 78.6987C198.434 78.9739 197.665 79.2686 196.909 79.5994C195.397 80.2596 193.932 81.0505 192.496 81.9491C191.072 82.8568 189.683 83.9048 188.361 85.0932C187.033 86.2747 185.808 87.673 184.672 89.2027C184.412 89.5592 184.165 89.9741 183.981 90.3959C182.635 93.4782 184.043 97.0671 187.125 98.4118L187.756 98.6871C189.493 99.4453 190.845 99.8067 192.177 100.152C193.495 100.491 194.749 100.709 195.976 100.917C197.203 101.119 198.411 101.295 199.604 101.443C200.798 101.577 201.985 101.695 203.162 101.794C205.517 102.007 207.852 102.107 210.18 102.179C212.523 102.232 214.791 102.246 217.206 102.138C221.004 101.958 224.073 98.8469 224.123 94.9946C224.174 90.9964 220.973 87.7112 216.973 87.6598Z" fill="#FFC3BD"/>
<path d="M220.753 100.341C215.148 106.74 201.65 104.346 201.65 104.346L202.39 88.4146C202.39 88.4146 209.206 86.8036 216.475 86.7876C224.394 86.7709 225.244 95.2163 220.753 100.341Z" fill="#E9D2A1"/>
<path d="M205.783 95.4485C205.446 98.0157 205.119 101.479 204.872 106.137C201.946 120.934 200.853 131.423 203.439 139.073C205.48 141.596 232.109 141.109 236.896 140.627C239.658 133.746 239.966 113.996 240.29 97.3944C240.383 92.6685 236.995 88.5897 232.337 87.7863C226.34 86.7515 220.292 86.4964 214.181 87.174C209.812 87.6577 206.356 91.0895 205.783 95.4485Z" fill="#E9D2A1"/>
<path opacity="0.2" d="M231.617 105.547C231.706 110.613 235.374 118.695 239.5 122.792C239.751 118.518 239.914 113.882 240.04 109.208L231.617 105.547Z" fill="black"/>
<path d="M254.815 115.385L254.581 114.825C253.571 112.412 252.429 110.2 251.18 108.11C249.942 106.025 248.612 104.057 247.224 102.157C245.847 100.254 244.378 98.4494 242.876 96.6813C242.115 95.8057 241.357 94.93 240.557 94.0863L239.352 92.8186L238.05 91.5288C235.345 88.858 230.978 88.7127 228.114 91.2883C225.143 93.9619 224.9 98.5383 227.574 101.51L227.779 101.739L231.864 106.279C233.242 107.823 234.578 109.397 235.896 110.957C236.536 111.744 237.196 112.529 237.799 113.325C238.441 114.109 239.028 114.901 239.626 115.692C240.486 116.893 241.318 118.085 242.06 119.261C241.965 119.8 241.812 120.405 241.634 121.021C241.173 122.58 240.575 124.289 239.877 125.985C239.203 127.7 238.445 129.435 237.679 131.188C236.923 132.933 236.091 134.727 235.362 136.462L235.296 136.615C234.763 137.888 234.979 139.409 235.972 140.494C237.334 141.983 239.645 142.085 241.133 140.722C242.725 139.266 244.107 137.789 245.492 136.22C246.859 134.653 248.158 133.016 249.4 131.282C250.022 130.416 250.607 129.51 251.191 128.577C251.776 127.648 252.34 126.673 252.855 125.624C253.375 124.572 253.879 123.478 254.316 122.202C254.749 120.918 255.13 119.499 255.204 117.536C255.229 116.829 255.107 116.08 254.815 115.385Z" fill="#FFC3BD"/>
<path d="M232.812 87.8794C242.189 89.4786 248.295 102.172 248.295 102.172L236.995 114.292C236.995 114.292 230.48 107.66 226.59 101.519C222.353 94.8299 226.095 86.7341 232.812 87.8794Z" fill="#E9D2A1"/>
<path d="M215.685 67.8659C214.12 65.2368 213.615 61.5951 216.481 57.9242C214.585 58.2217 213.615 56.5586 213.615 56.5586C213.615 56.5586 217.776 52.6625 224.796 52.666C233.211 52.6702 233.839 55.9116 233.551 58.13C239.303 58.4969 243.501 73.4661 228.913 76.1098C220.569 67.2912 215.685 67.8659 215.685 67.8659Z" fill="#141414"/>
<path d="M233.017 58.3761C233.017 58.3761 235.362 55.9861 232.447 53.0908C233.561 53.4328 234.813 54.3022 235.186 55.8165C235.602 57.5012 234.465 58.848 233.017 58.3761Z" fill="#141414"/>
<path d="M229.794 74.2554C229.572 78.8603 229.159 84.1012 229.93 87.7825C228.736 89.6624 225.679 91.83 220.195 92.3172C218.244 91.2115 215.675 88.5122 216.57 87.1208C218.902 85.6259 219.887 81.0988 219.218 77.7178L229.794 74.2554Z" fill="#FFC3BD"/>
<path opacity="0.2" d="M227.127 75.1243L219.215 77.7159C219.482 79.0801 219.489 80.6202 219.245 82.0838C221.608 82.0074 224.886 80.224 226.113 78.5547C227.142 77.1599 227.279 76.0083 227.127 75.1243Z" fill="black"/>
<path d="M232.107 66.9557C230.64 72.6073 230.069 75.9891 226.608 78.3618C221.401 81.9305 214.852 77.9343 214.6 71.9589C214.374 66.5804 216.81 58.2421 222.853 57.0571C228.806 55.8903 233.573 61.3042 232.107 66.9557Z" fill="#FFC3BD"/>
<path d="M230.934 58.8696C228.457 60.6363 225.376 68.1129 231.661 71.1117C237.248 66.1815 235.793 58.8696 230.934 58.8696Z" fill="#141414"/>
<path d="M232.372 59.7673C233.43 54.8434 221.015 52.3025 217.077 58.0472C215.746 61.4888 231.618 64.5683 232.372 59.7673Z" fill="#141414"/>
<path d="M223.101 72.9554C223.101 72.9554 223.099 72.954 223.098 72.954C220.955 72.0032 219.216 71.9442 219.012 71.9219C218.923 71.9198 218.854 71.9873 218.864 72.0748C218.874 72.1624 218.957 72.2368 219.048 72.2368C219.168 72.2527 220.897 72.3097 222.969 73.2264C223.052 73.2618 223.149 73.2271 223.183 73.1507C223.217 73.0756 223.179 72.9901 223.101 72.9554Z" fill="#263238"/>
<path d="M233.461 73.1347C232.393 74.2912 230.89 74.8472 229.597 74.8784C227.652 74.925 227.156 73.0694 228.096 71.4835C228.942 70.056 230.974 68.3109 232.734 69.0211C234.469 69.7203 234.682 71.8122 233.461 73.1347Z" fill="#FFC3BD"/>
<path d="M223.119 66.8631C223.028 67.3287 222.708 67.6582 222.403 67.5991C222.099 67.54 221.926 67.114 222.016 66.6484C222.107 66.1827 222.428 65.8533 222.732 65.9124C223.037 65.9714 223.21 66.3968 223.119 66.8631Z" fill="#263238"/>
<path d="M217.855 65.8367C217.764 66.3024 217.444 66.6318 217.14 66.5727C216.835 66.5136 216.662 66.0876 216.752 65.622C216.844 65.1564 217.164 64.8269 217.468 64.886C217.773 64.9451 217.946 65.3711 217.855 65.8367Z" fill="#263238"/>
<path d="M219.484 66.3945C219.484 66.3945 217.901 68.8749 216.482 69.9438C217.157 70.8737 218.712 70.6902 218.712 70.6902L219.484 66.3945Z" fill="#ED847E"/>
<path d="M222.359 64.1581C222.457 64.1331 222.566 64.1623 222.637 64.2436C223.458 65.1762 224.476 65.04 224.487 65.0386C224.639 65.0164 224.781 65.122 224.803 65.2742C224.825 65.4257 224.726 65.5689 224.567 65.5905C224.514 65.5981 223.238 65.7691 222.22 64.6119C222.118 64.4966 222.129 64.32 222.245 64.2186C222.279 64.1887 222.318 64.1685 222.359 64.1581Z" fill="#263238"/>
<path d="M216.228 62.6168C216.173 62.6015 216.123 62.5695 216.085 62.5208C215.99 62.3999 216.011 62.2248 216.132 62.1296C217.342 61.1754 218.566 61.5701 218.618 61.5903C218.764 61.6396 218.841 61.7974 218.793 61.9433C218.743 62.0886 218.579 62.165 218.441 62.1185C218.398 62.1073 217.445 61.8036 216.477 62.5667C216.403 62.6244 216.311 62.6404 216.228 62.6168Z" fill="#263238"/>
<path d="M238.665 136.264L232.693 136.221L235.779 143.073C235.779 143.073 240.871 141.981 240.594 139.217L238.665 136.264Z" fill="#FFC3BD"/>
<path d="M229.658 140.922L230.638 142.853C231.182 143.923 232.451 144.401 233.565 143.957L235.779 143.073L232.693 136.221L230.321 138.027C229.43 138.705 229.151 139.923 229.658 140.922Z" fill="#FFC3BD"/>
<path d="M193.221 131.214C192.291 131.214 191.362 130.866 190.644 130.168C189.18 128.745 189.146 126.404 190.569 124.94C193.227 122.203 195.624 120.089 197.737 118.223C202.839 113.72 204.595 111.991 204.428 108.596C204.351 107.037 203.747 104.814 203.107 102.461C201.587 96.8707 199.865 90.5353 202.813 85.4599C204.399 82.7293 207.09 80.8584 210.812 79.8965C212.785 79.3878 214.805 80.5748 215.316 82.552C215.826 84.5293 214.638 86.5454 212.661 87.0562C210.045 87.7317 209.414 88.8173 209.206 89.1738C207.811 91.5764 209.159 96.5358 210.242 100.52C210.99 103.272 211.697 105.871 211.813 108.232C212.164 115.352 207.957 119.066 202.631 123.766C200.617 125.544 198.333 127.558 195.872 130.092C195.147 130.839 194.184 131.214 193.221 131.214Z" fill="#347278"/>
<path d="M201.325 78.1172L207.112 76.6404L205.764 84.0329C205.764 84.0329 200.559 84.1962 200.164 81.4476L201.325 78.1172Z" fill="#FFC3BD"/>
<path d="M211.168 80.5615L210.722 82.4887C210.439 83.7118 209.271 84.5173 208.027 84.3457L205.764 84.0336L207.112 76.6411L209.766 77.7878C210.843 78.2528 211.432 79.4197 211.168 80.5615Z" fill="#FFC3BD"/>
<path d="M168.123 142.106L167.96 141.943C167.261 141.244 167.261 140.1 167.96 139.401L188.46 118.901C189.159 118.202 190.303 118.202 191.002 118.901L191.165 119.063C191.864 119.763 191.864 120.907 191.165 121.606L170.665 142.106C169.966 142.805 168.822 142.805 168.123 142.106Z" fill="#263238"/>
<path d="M178.794 152.776L178.632 152.614C177.933 151.915 177.933 150.771 178.632 150.072L199.132 129.571C199.831 128.872 200.975 128.872 201.675 129.571L201.837 129.734C202.536 130.433 202.536 131.577 201.837 132.276L181.337 152.776C180.638 153.476 179.494 153.476 178.794 152.776Z" fill="#263238"/>
<path d="M208.515 131.889L194.07 146.334L174.402 126.666L188.847 112.221C190.784 110.285 193.954 110.285 195.89 112.221L208.515 124.846C210.452 126.783 210.452 129.953 208.515 131.889Z" fill="#347278"/>
<path opacity="0.7" d="M208.515 131.889L194.07 146.334L174.402 126.666L188.847 112.221C190.784 110.285 193.954 110.285 195.89 112.221L208.515 124.846C210.452 126.783 210.452 129.953 208.515 131.889Z" fill="white"/>
<path opacity="0.2" d="M179.397 121.665L174.398 126.664L194.069 146.335L199.068 141.336C198.874 140.766 198.55 140.244 198.101 139.794L180.94 122.633C180.49 122.183 179.967 121.859 179.397 121.665Z" fill="#347278"/>
<path d="M196.598 147.183L196.244 147.536C194.723 149.057 192.236 149.057 190.715 147.536L173.201 130.022C171.68 128.501 171.68 126.014 173.201 124.493L173.555 124.14C175.075 122.619 177.563 122.619 179.083 124.14L196.598 141.654C198.117 143.175 198.117 145.663 196.598 147.183Z" fill="#347278"/>
</g>
<defs>
<clipPath id="clip0_5009_2883">
<rect width="300" height="276.834" fill="white" transform="translate(0.5 0.583008)"/>
</clipPath>
</defs>
</svg>
