<svg width="23" height="22" viewBox="0 0 23 22" fill="none" xmlns="http://www.w3.org/2000/svg">
<path d="M11.7513 10.5416C12.2055 10.5416 12.6278 10.3597 13.4723 9.99578L14.0818 9.73318C15.5837 9.086 16.3346 8.76241 16.3346 8.24998C16.3346 7.73755 15.5837 7.41396 14.0818 6.76678L13.4723 6.50418C12.6278 6.14027 12.2055 5.95831 11.7513 5.95831C11.2971 5.95831 10.8748 6.14027 10.0303 6.50418L9.42084 6.76678C7.91893 7.41396 7.16797 7.73755 7.16797 8.24998C7.16797 8.76241 7.91893 9.086 9.42084 9.73318L10.0303 9.99578C10.8748 10.3597 11.2971 10.5416 11.7513 10.5416ZM11.7513 10.5416V16.0416" stroke="white" stroke-width="1.375" stroke-linejoin="round"/>
<path d="M16.3346 8.24994V13.7499C16.3346 14.2624 15.5837 14.586 14.0818 15.2331L13.4723 15.4957C12.6278 15.8597 12.2055 16.0416 11.7513 16.0416C11.2971 16.0416 10.8748 15.8597 10.0303 15.4957L9.42084 15.2331C7.91893 14.586 7.16797 14.2624 7.16797 13.7499V8.24994" stroke="white" stroke-width="1.375" stroke-linejoin="round"/>
<path d="M9.13355 2.29163C6.69794 2.34731 5.27532 2.57997 4.30332 3.55197C3.33131 4.52398 3.09866 5.94659 3.04297 8.3822M14.3691 2.29163C16.8047 2.34731 18.2273 2.57997 19.1993 3.55197C20.1713 4.52398 20.4039 5.94659 20.4596 8.3822M14.3691 19.7083C16.8047 19.6526 18.2273 19.4199 19.1993 18.4479C20.1713 17.4759 20.4039 16.0533 20.4596 13.6177M9.13355 19.7083C6.69794 19.6526 5.27532 19.4199 4.30332 18.4479C3.33131 17.4759 3.09866 16.0533 3.04297 13.6177" stroke="white" stroke-width="1.375" stroke-linecap="round" stroke-linejoin="round"/>
</svg>
