<svg width="22" height="22" viewBox="0 0 22 22" fill="none" xmlns="http://www.w3.org/2000/svg">
<path d="M1.83398 10.9995C1.83398 7.11039 1.83398 5.16585 2.90793 3.95767C3.98187 2.74948 5.71035 2.74948 9.16732 2.74948H12.834C16.291 2.74948 18.0194 2.74948 19.0934 3.95767C20.1673 5.16585 20.1673 7.11039 20.1673 10.9995C20.1673 14.8886 20.1673 16.8331 19.0934 18.0413C18.0194 19.2495 16.291 19.2495 12.834 19.2495H9.16732C5.71035 19.2495 3.98187 19.2495 2.90793 18.0413C1.83398 16.8331 1.83398 14.8886 1.83398 10.9995Z" stroke="#347278" stroke-width="1.375"/>
<path d="M1.83398 8.24948H9.16732C11.76 8.24948 13.0564 8.24948 13.8619 9.05494C14.6673 9.86039 14.6673 11.1568 14.6673 13.7495V19.2495" stroke="#347278" stroke-width="1.375"/>
<path d="M9.16602 19.2495L9.16602 8.24948" stroke="#347278" stroke-width="1.375"/>
</svg>
