<svg width="22" height="22" viewBox="0 0 22 22" fill="none" xmlns="http://www.w3.org/2000/svg">
<path d="M6.87695 4.58374H14.6686C15.428 4.58374 16.0436 5.19935 16.0436 5.95874V7.33374" stroke="white" stroke-width="1.375" stroke-linecap="round" stroke-linejoin="round"/>
<path d="M18.7923 12.8337V9.16707C18.7923 8.15455 17.9715 7.33374 16.959 7.33374H5.95898C4.4402 7.33374 3.20898 6.10252 3.20898 4.58374V12.8337C3.20898 16.2907 3.20898 18.0192 4.28293 19.0931C5.35687 20.1671 7.08535 20.1671 10.5423 20.1671H11.459C14.916 20.1671 16.6444 20.1671 17.7184 19.0931C18.7923 18.0192 18.7923 16.2907 18.7923 12.8337Z" fill="white"/>
<path d="M17.7184 19.0931L17.2322 18.607L17.2322 18.607L17.7184 19.0931ZM16.959 2.52124C17.3387 2.52124 17.6465 2.21344 17.6465 1.83374C17.6465 1.45404 17.3387 1.14624 16.959 1.14624V2.52124ZM18.1048 9.16707V12.8337H19.4798V9.16707H18.1048ZM11.459 19.4796H10.5423V20.8546H11.459V19.4796ZM3.89648 12.8337V4.58374H2.52148V12.8337H3.89648ZM10.5423 19.4796C8.7944 19.4796 7.55262 19.4781 6.6106 19.3515C5.68835 19.2275 5.157 18.9949 4.76906 18.607L3.79679 19.5793C4.48279 20.2653 5.35266 20.5697 6.42738 20.7142C7.48232 20.856 8.83327 20.8546 10.5423 20.8546V19.4796ZM2.52148 12.8337C2.52148 14.5428 2.52002 15.8937 2.66186 16.9487C2.80635 18.0234 3.11079 18.8933 3.79679 19.5793L4.76906 18.607C4.38112 18.2191 4.14859 17.6877 4.0246 16.7655C3.89794 15.8234 3.89648 14.5817 3.89648 12.8337H2.52148ZM18.1048 12.8337C18.1048 14.5817 18.1034 15.8234 17.9767 16.7655C17.8527 17.6877 17.6202 18.2191 17.2322 18.607L18.2045 19.5793C18.8905 18.8933 19.195 18.0234 19.3394 16.9487C19.4813 15.8937 19.4798 14.5428 19.4798 12.8337H18.1048ZM11.459 20.8546C13.168 20.8546 14.519 20.856 15.5739 20.7142C16.6486 20.5697 17.5185 20.2653 18.2045 19.5793L17.2322 18.607C16.8443 18.9949 16.313 19.2275 15.3907 19.3515C14.4487 19.4781 13.2069 19.4796 11.459 19.4796V20.8546ZM16.959 1.14624H5.95898V2.52124H16.959V1.14624ZM5.95898 8.02124H16.959V6.64624H5.95898V8.02124ZM2.52148 4.58374C2.52148 6.48222 4.06051 8.02124 5.95898 8.02124V6.64624C4.8199 6.64624 3.89648 5.72283 3.89648 4.58374H2.52148ZM5.95898 1.14624C4.06051 1.14624 2.52148 2.68526 2.52148 4.58374H3.89648C3.89648 3.44465 4.8199 2.52124 5.95898 2.52124V1.14624ZM19.4798 9.16707C19.4798 7.77486 18.3512 6.64624 16.959 6.64624V8.02124C17.5918 8.02124 18.1048 8.53425 18.1048 9.16707H19.4798Z" fill="white"/>
<path d="M13.752 11.917L8.25195 11.917" stroke="url(#paint0_linear_5022_3989)" stroke-width="1.375" stroke-linecap="round" stroke-linejoin="round"/>
<path d="M11.002 15.5837L8.25195 15.5837" stroke="url(#paint1_linear_5022_3989)" stroke-width="1.375" stroke-linecap="round" stroke-linejoin="round"/>
<defs>
<linearGradient id="paint0_linear_5022_3989" x1="11.002" y1="11.917" x2="11.002" y2="12.917" gradientUnits="userSpaceOnUse">
<stop stop-color="#347278"/>
<stop offset="1" stop-color="#1D5055"/>
</linearGradient>
<linearGradient id="paint1_linear_5022_3989" x1="9.62695" y1="15.5837" x2="9.62695" y2="16.5837" gradientUnits="userSpaceOnUse">
<stop stop-color="#347278"/>
<stop offset="1" stop-color="#1D5055"/>
</linearGradient>
</defs>
</svg>
