<svg width="24" height="24" viewBox="0 0 24 24" fill="none" xmlns="http://www.w3.org/2000/svg">
<path d="M7.49805 5.00039H15.998C16.8265 5.00039 17.498 5.67196 17.498 6.50039V8.00039" stroke="url(#paint0_linear_4613_4951)" stroke-width="1.5" stroke-linecap="round" stroke-linejoin="round"/>
<path d="M20.498 14.0004V10.0004C20.498 8.89582 19.6026 8.00039 18.498 8.00039H6.49805C4.84119 8.00039 3.49805 6.65725 3.49805 5.00039V14.0004C3.49805 17.7716 3.49805 19.6572 4.66962 20.8288C5.84119 22.0004 7.72681 22.0004 11.498 22.0004H12.498C16.2693 22.0004 18.1549 22.0004 19.3265 20.8288C20.498 19.6572 20.498 17.7716 20.498 14.0004Z" fill="url(#paint1_linear_4613_4951)"/>
<path d="M19.3265 20.8288L18.7961 20.2985L18.7961 20.2985L19.3265 20.8288ZM18.498 2.75039C18.9123 2.75039 19.248 2.4146 19.248 2.00039C19.248 1.58618 18.9123 1.25039 18.498 1.25039V2.75039ZM19.748 10.0004V14.0004H21.248V10.0004H19.748ZM12.498 21.2504H11.498V22.7504H12.498V21.2504ZM4.24805 14.0004V5.00039H2.74805V14.0004H4.24805ZM11.498 21.2504C9.59123 21.2504 8.23656 21.2488 7.2089 21.1106C6.20281 20.9754 5.62316 20.7217 5.19995 20.2985L4.13929 21.3591C4.88765 22.1075 5.8366 22.4396 7.00902 22.5973C8.15987 22.752 9.63363 22.7504 11.498 22.7504V21.2504ZM2.74805 14.0004C2.74805 15.8648 2.74645 17.3386 2.90118 18.4894C3.05881 19.6618 3.39093 20.6108 4.13929 21.3591L5.19995 20.2985C4.77674 19.8753 4.52307 19.2956 4.38781 18.2895C4.24964 17.2619 4.24805 15.9072 4.24805 14.0004H2.74805ZM19.748 14.0004C19.748 15.9072 19.7465 17.2619 19.6083 18.2895C19.473 19.2956 19.2194 19.8753 18.7961 20.2985L19.8568 21.3591C20.6052 20.6108 20.9373 19.6618 21.0949 18.4894C21.2496 17.3386 21.248 15.8648 21.248 14.0004H19.748ZM12.498 22.7504C14.3625 22.7504 15.8362 22.752 16.9871 22.5973C18.1595 22.4396 19.1084 22.1075 19.8568 21.3591L18.7961 20.2985C18.3729 20.7217 17.7933 20.9754 16.7872 21.1106C15.7595 21.2488 14.4049 21.2504 12.498 21.2504V22.7504ZM18.498 1.25039H6.49805V2.75039H18.498V1.25039ZM6.49805 8.75039H18.498V7.25039H6.49805V8.75039ZM2.74805 5.00039C2.74805 7.07146 4.42698 8.75039 6.49805 8.75039V7.25039C5.25541 7.25039 4.24805 6.24303 4.24805 5.00039H2.74805ZM6.49805 1.25039C4.42698 1.25039 2.74805 2.92932 2.74805 5.00039H4.24805C4.24805 3.75775 5.25541 2.75039 6.49805 2.75039V1.25039ZM21.248 10.0004C21.248 8.48161 20.0168 7.25039 18.498 7.25039V8.75039C19.1884 8.75039 19.748 9.31003 19.748 10.0004H21.248Z" fill="url(#paint2_linear_4613_4951)"/>
<path d="M14.998 13.0002L8.99805 13.0002" stroke="white" stroke-width="1.5" stroke-linecap="round" stroke-linejoin="round"/>
<path d="M11.998 17.0004L8.99805 17.0004" stroke="white" stroke-width="1.5" stroke-linecap="round" stroke-linejoin="round"/>
<defs>
<linearGradient id="paint0_linear_4613_4951" x1="-3.08129" y1="13.1013" x2="18.055" y2="11.2034" gradientUnits="userSpaceOnUse">
<stop stop-color="#E6E1D6"/>
<stop offset="1" stop-color="#044247"/>
</linearGradient>
<linearGradient id="paint1_linear_4613_4951" x1="-14.4868" y1="56.0066" x2="21.7157" y2="55.1776" gradientUnits="userSpaceOnUse">
<stop stop-color="#E6E1D6"/>
<stop offset="1" stop-color="#044247"/>
</linearGradient>
<linearGradient id="paint2_linear_4613_4951" x1="-14.4868" y1="56.0066" x2="21.7157" y2="55.1776" gradientUnits="userSpaceOnUse">
<stop stop-color="#E6E1D6"/>
<stop offset="1" stop-color="#044247"/>
</linearGradient>
</defs>
</svg>
