<svg width="20" height="20" viewBox="0 0 20 20" fill="none" xmlns="http://www.w3.org/2000/svg">
<path d="M1.66797 7.14085C1.66797 6.14404 2.06995 5.53314 2.90183 5.0702L6.3262 3.1645C8.12055 2.16592 9.01773 1.66663 10.0013 1.66663C10.9849 1.66663 11.8821 2.16592 13.6764 3.16449L17.1008 5.07019C17.9327 5.53314 18.3346 6.14404 18.3346 7.14085C18.3346 7.41115 18.3346 7.5463 18.3051 7.65741C18.15 8.24116 17.6211 8.33329 17.1102 8.33329H2.89237C2.38153 8.33329 1.85257 8.24116 1.69749 7.65741C1.66797 7.5463 1.66797 7.41115 1.66797 7.14085Z" stroke="#347278" stroke-width="1.25"/>
<path d="M9.99789 5.83319H10.0054" stroke="#347278" stroke-width="1.66667" stroke-linecap="round" stroke-linejoin="round"/>
<path d="M3.33398 8.33331V15.4166M6.66732 8.33331V15.4166" stroke="#347278" stroke-width="1.25"/>
<path d="M13.334 8.33325V15.4166M16.6673 8.33325V15.4166" stroke="#347278" stroke-width="1.25"/>
<path d="M15.8346 15.4166H4.16797C2.78726 15.4166 1.66797 16.5359 1.66797 17.9166C1.66797 18.1467 1.85452 18.3333 2.08464 18.3333H17.918C18.1481 18.3333 18.3346 18.1467 18.3346 17.9166C18.3346 16.5359 17.2153 15.4166 15.8346 15.4166Z" stroke="#347278" stroke-width="1.25"/>
</svg>
