<svg width="20" height="20" viewBox="0 0 20 20" fill="none" xmlns="http://www.w3.org/2000/svg">
<g clip-path="url(#clip0_2734_14183)">
<path d="M14.629 7.22226V5.37041C14.629 4.87926 14.4339 4.40824 14.0866 4.06095C13.7393 3.71366 13.2683 3.51855 12.7771 3.51855H3.51787C3.02673 3.51855 2.5557 3.71366 2.20841 4.06095C1.86112 4.40824 1.66602 4.87926 1.66602 5.37041V10.926C1.66602 11.4171 1.86112 11.8881 2.20841 12.2354C2.5557 12.5827 3.02673 12.7778 3.51787 12.7778H5.36972" stroke="url(#paint0_linear_2734_14183)" stroke-width="1.25" stroke-linecap="round" stroke-linejoin="round"/>
<path d="M5.37109 9.0742C5.37109 8.58306 5.5662 8.11204 5.91349 7.76475C6.26078 7.41746 6.7318 7.22235 7.22295 7.22235H16.4822C16.9733 7.22235 17.4444 7.41746 17.7917 7.76475C18.139 8.11204 18.3341 8.58306 18.3341 9.0742V14.6298C18.3341 15.1209 18.139 15.5919 17.7917 15.9392C17.4444 16.2865 16.9733 16.4816 16.4822 16.4816H7.22295C6.7318 16.4816 6.26078 16.2865 5.91349 15.9392C5.5662 15.5919 5.37109 15.1209 5.37109 14.6298V9.0742Z" stroke="url(#paint1_linear_2734_14183)" stroke-width="1.25" stroke-linecap="round" stroke-linejoin="round"/>
<path d="M9.76758 11.8519C9.76758 12.4044 9.98707 12.9343 10.3778 13.325C10.7685 13.7157 11.2984 13.9352 11.8509 13.9352C12.4034 13.9352 12.9333 13.7157 13.324 13.325C13.7148 12.9343 13.9342 12.4044 13.9342 11.8519C13.9342 11.2994 13.7148 10.7695 13.324 10.3787C12.9333 9.98805 12.4034 9.76855 11.8509 9.76855C11.2984 9.76855 10.7685 9.98805 10.3778 10.3787C9.98707 10.7695 9.76758 11.2994 9.76758 11.8519Z" fill="#347278"/>
</g>
<defs>
<linearGradient id="paint0_linear_2734_14183" x1="1.66602" y1="8.14818" x2="14.629" y2="8.14818" gradientUnits="userSpaceOnUse">
<stop stop-color="#347278"/>
<stop offset="1" stop-color="#1D5055"/>
</linearGradient>
<linearGradient id="paint1_linear_2734_14183" x1="5.37109" y1="11.852" x2="18.3341" y2="11.852" gradientUnits="userSpaceOnUse">
<stop stop-color="#347278"/>
<stop offset="1" stop-color="#1D5055"/>
</linearGradient>
<clipPath id="clip0_2734_14183">
<rect width="20" height="20" fill="white"/>
</clipPath>
</defs>
</svg>
