<svg width="20" height="20" viewBox="0 0 20 20" fill="none" xmlns="http://www.w3.org/2000/svg">
<path d="M10.0007 18.3332C14.603 18.3332 18.334 14.6022 18.334 9.99984C18.334 5.39746 14.603 1.6665 10.0006 1.6665C6.26925 1.6665 3.14587 4.11891 2.08398 7.49984H4.16732" stroke="white" stroke-width="1.25" stroke-linecap="round" stroke-linejoin="round"/>
<path d="M10.002 6.6665V9.99984L11.6686 11.6665" stroke="white" stroke-width="1.25" stroke-linecap="round" stroke-linejoin="round"/>
<path d="M1.66797 9.99976C1.66797 10.2808 1.68064 10.5588 1.70542 10.8331M7.5013 18.3331C7.21664 18.2394 6.93856 18.1301 6.66797 18.0062M2.6758 14.1664C2.51509 13.8568 2.37174 13.5358 2.24711 13.2049M4.02732 16.0885C4.28205 16.3629 4.55385 16.6199 4.84092 16.8575" stroke="white" stroke-width="1.25" stroke-linecap="round" stroke-linejoin="round"/>
</svg>
