<svg width="20" height="20" viewBox="0 0 20 20" fill="none" xmlns="http://www.w3.org/2000/svg">
<path d="M3.14932 9.95198C2.3593 8.57444 1.97784 7.44959 1.74783 6.30936C1.40765 4.623 2.18614 2.97569 3.47579 1.92458C4.02084 1.48034 4.64566 1.63212 4.96797 2.21035L5.69562 3.51578C6.27238 4.55049 6.56075 5.06785 6.50356 5.61635C6.44636 6.16484 6.05744 6.61157 5.27961 7.50502L3.14932 9.95198ZM3.14932 9.95198C4.74839 12.7402 7.25783 15.2511 10.0493 16.852M10.0493 16.852C11.4269 17.642 12.5517 18.0235 13.692 18.2535C15.3783 18.5937 17.0256 17.8152 18.0767 16.5255C18.521 15.9805 18.3692 15.3557 17.791 15.0334L16.4855 14.3057C15.4508 13.7289 14.9335 13.4406 14.385 13.4978C13.8365 13.555 13.3897 13.9439 12.4963 14.7217L10.0493 16.852Z" stroke="#141414" stroke-width="1.25" stroke-linejoin="round"/>
<path d="M11.668 5.69323C12.854 6.19688 13.8045 7.14733 14.3081 8.33335M12.213 1.66669C15.1607 2.51732 17.4839 4.84046 18.3346 7.78804" stroke="#141414" stroke-width="1.25" stroke-linecap="round"/>
</svg>
