<svg width="20" height="21" viewBox="0 0 20 21" fill="none" xmlns="http://www.w3.org/2000/svg">
<path d="M10.0007 18.8332C14.603 18.8332 18.334 15.1022 18.334 10.4998C18.334 5.89746 14.603 2.1665 10.0006 2.1665C6.26925 2.1665 3.14587 4.61891 2.08398 7.99984H4.16732" stroke="white" stroke-width="1.25" stroke-linecap="round" stroke-linejoin="round"/>
<path d="M10.002 7.1665V10.4998L11.6686 12.1665" stroke="white" stroke-width="1.25" stroke-linecap="round" stroke-linejoin="round"/>
<path d="M1.66797 10.4998C1.66797 10.7808 1.68064 11.0588 1.70542 11.3331M7.5013 18.8331C7.21664 18.7394 6.93856 18.6301 6.66797 18.5062M2.6758 14.6664C2.51509 14.3568 2.37174 14.0358 2.24711 13.7049M4.02732 16.5885C4.28205 16.8629 4.55385 17.1199 4.84092 17.3575" stroke="white" stroke-width="1.25" stroke-linecap="round" stroke-linejoin="round"/>
</svg>
