<svg width="20" height="20" viewBox="0 0 20 20" fill="none" xmlns="http://www.w3.org/2000/svg">
<path d="M4.58398 15V17.5M15.4173 15V17.5" stroke="url(#paint0_linear_4706_2137)" stroke-width="1.25" stroke-linecap="round" stroke-linejoin="round"/>
<path d="M17.502 2.49994H2.50195V10.8333C2.50195 12.7975 2.50195 13.7796 3.18842 14.3897C3.87489 14.9999 4.97974 14.9999 7.18945 14.9999H12.8145C15.0242 14.9999 16.129 14.9999 16.8155 14.3897C17.502 13.7796 17.502 12.7975 17.502 10.8333V2.49994Z" stroke="url(#paint1_linear_4706_2137)" stroke-width="1.25" stroke-linecap="round" stroke-linejoin="round"/>
<path d="M1.66797 2.5H18.3346" stroke="url(#paint2_linear_4706_2137)" stroke-width="1.25" stroke-linecap="round" stroke-linejoin="round"/>
<path d="M2.50195 8.75L17.502 8.75" stroke="url(#paint3_linear_4706_2137)" stroke-width="1.25" stroke-linecap="round" stroke-linejoin="round"/>
<path d="M8.33398 11.25L8.4635 11.3148C8.81382 11.4899 8.98898 11.5775 9.17784 11.6221C9.36671 11.6667 9.56254 11.6667 9.95421 11.6667H10.0471C10.4388 11.6667 10.6346 11.6667 10.8235 11.6221C11.0123 11.5775 11.1875 11.4899 11.5378 11.3148L11.6673 11.25" stroke="url(#paint4_linear_4706_2137)" stroke-width="1.25" stroke-linecap="round" stroke-linejoin="round"/>
<path d="M8.33398 5.41666L8.4635 5.48141C8.81382 5.65657 8.98898 5.74415 9.17784 5.78874C9.36671 5.83332 9.56254 5.83332 9.95421 5.83332H10.0471C10.4388 5.83332 10.6346 5.83332 10.8235 5.78874C11.0123 5.74415 11.1875 5.65657 11.5378 5.48141L11.6673 5.41666" stroke="url(#paint5_linear_4706_2137)" stroke-width="1.25" stroke-linecap="round" stroke-linejoin="round"/>
<defs>
<linearGradient id="paint0_linear_4706_2137" x1="4.58398" y1="16.25" x2="15.4173" y2="16.25" gradientUnits="userSpaceOnUse">
<stop stop-color="#347278"/>
<stop offset="1" stop-color="#1D5055"/>
</linearGradient>
<linearGradient id="paint1_linear_4706_2137" x1="2.50195" y1="8.74994" x2="17.502" y2="8.74994" gradientUnits="userSpaceOnUse">
<stop stop-color="#347278"/>
<stop offset="1" stop-color="#1D5055"/>
</linearGradient>
<linearGradient id="paint2_linear_4706_2137" x1="1.66797" y1="3" x2="18.3346" y2="3" gradientUnits="userSpaceOnUse">
<stop stop-color="#347278"/>
<stop offset="1" stop-color="#1D5055"/>
</linearGradient>
<linearGradient id="paint3_linear_4706_2137" x1="2.50195" y1="9.25" x2="17.502" y2="9.25" gradientUnits="userSpaceOnUse">
<stop stop-color="#347278"/>
<stop offset="1" stop-color="#1D5055"/>
</linearGradient>
<linearGradient id="paint4_linear_4706_2137" x1="8.33398" y1="11.4583" x2="11.6673" y2="11.4583" gradientUnits="userSpaceOnUse">
<stop stop-color="#347278"/>
<stop offset="1" stop-color="#1D5055"/>
</linearGradient>
<linearGradient id="paint5_linear_4706_2137" x1="8.33398" y1="5.62499" x2="11.6673" y2="5.62499" gradientUnits="userSpaceOnUse">
<stop stop-color="#347278"/>
<stop offset="1" stop-color="#1D5055"/>
</linearGradient>
</defs>
</svg>
