<svg width="20" height="20" viewBox="0 0 20 20" fill="none" xmlns="http://www.w3.org/2000/svg">
<path d="M15.502 0.833313V2.66665M4.50195 0.833313V2.66665" stroke="#141414" stroke-width="1.375" stroke-linecap="round" stroke-linejoin="round"/>
<path d="M8.16862 14.5833L8.16861 11.2349C8.16861 11.0592 8.04327 10.9167 7.88865 10.9167H7.25195M11.4958 14.5833L12.7374 11.2367C12.7955 11.0802 12.6721 10.9167 12.4959 10.9167H10.9186" stroke="#141414" stroke-width="1.375" stroke-linecap="round"/>
<path d="M1.29297 10.2229C1.29297 6.22874 1.29297 4.23165 2.44074 2.99081C3.58852 1.74997 5.43584 1.74997 9.13047 1.74997H10.8721C14.5668 1.74997 16.4141 1.74997 17.5619 2.99081C18.7096 4.23165 18.7096 6.22874 18.7096 10.2229V10.6937C18.7096 14.6879 18.7096 16.685 17.5619 17.9258C16.4141 19.1666 14.5668 19.1666 10.8721 19.1666H9.13047C5.43584 19.1666 3.58852 19.1666 2.44074 17.9258C1.29297 16.685 1.29297 14.6879 1.29297 10.6937V10.2229Z" stroke="#141414" stroke-width="1.375" stroke-linecap="round" stroke-linejoin="round"/>
<path d="M4.50195 6.33331H15.502" stroke="#141414" stroke-width="1.375" stroke-linecap="round" stroke-linejoin="round"/>
</svg>
