<svg width="22" height="22" viewBox="0 0 22 22" fill="none" xmlns="http://www.w3.org/2000/svg">
<path d="M16.502 1.83334V3.66667M5.50195 1.83334V3.66667" stroke="#141414" stroke-width="1.375" stroke-linecap="round" stroke-linejoin="round"/>
<path d="M10.9965 11.9167H11.0048M10.9965 15.5833H11.0048M14.6591 11.9167H14.6673M7.33398 11.9167H7.34221M7.33398 15.5833H7.34221" stroke="#141414" stroke-width="1.83333" stroke-linecap="round" stroke-linejoin="round"/>
<path d="M3.20898 7.33334H18.7923" stroke="#141414" stroke-width="1.375" stroke-linecap="round" stroke-linejoin="round"/>
<path d="M2.29297 11.223C2.29297 7.22878 2.29297 5.23168 3.44074 3.99084C4.58852 2.75 6.43584 2.75 10.1305 2.75H11.8721C15.5668 2.75 17.4141 2.75 18.5619 3.99084C19.7096 5.23168 19.7096 7.22878 19.7096 11.223V11.6937C19.7096 15.6879 19.7096 17.685 18.5619 18.9258C17.4141 20.1667 15.5668 20.1667 11.8721 20.1667H10.1305C6.43584 20.1667 4.58852 20.1667 3.44074 18.9258C2.29297 17.685 2.29297 15.6879 2.29297 11.6937V11.223Z" stroke="#141414" stroke-width="1.375" stroke-linecap="round" stroke-linejoin="round"/>
<path d="M2.75195 7.33334H19.252" stroke="#141414" stroke-width="1.375" stroke-linecap="round" stroke-linejoin="round"/>
</svg>
