<svg width="24" height="24" viewBox="0 0 24 24" fill="none" xmlns="http://www.w3.org/2000/svg">
<path d="M5 8.99988C5 5.68617 8.13401 2.99988 12 2.99988C15.866 2.99988 19 5.68617 19 8.99988" stroke="url(#paint0_linear_4613_4957)" stroke-width="1.5" stroke-linecap="square" stroke-linejoin="round"/>
<path d="M17 10.8043C17 10.4587 17 10.2859 17.052 10.1318C17.2032 9.68432 17.6018 9.51064 18.0011 9.32876C18.45 9.1243 18.6744 9.02206 18.8968 9.00408C19.1493 8.98366 19.4022 9.03805 19.618 9.15916C19.9041 9.31972 20.1036 9.62481 20.3079 9.87289C21.2513 11.0187 21.7229 11.5916 21.8955 12.2234C22.0348 12.7333 22.0348 13.2665 21.8955 13.7763C21.6438 14.6978 20.8485 15.4702 20.2598 16.1853C19.9587 16.551 19.8081 16.7339 19.618 16.8406C19.4022 16.9617 19.1493 17.0161 18.8968 16.9957C18.6744 16.9777 18.45 16.8755 18.0011 16.671C17.6018 16.4891 17.2032 16.3154 17.052 15.8679C17 15.7139 17 15.541 17 15.1954V10.8043Z" fill="url(#paint1_linear_4613_4957)" stroke="url(#paint2_linear_4613_4957)" stroke-width="1.5"/>
<path d="M7 10.8041C7 10.3688 6.98778 9.97764 6.63591 9.67164C6.50793 9.56033 6.33825 9.48305 5.99891 9.32848C5.55001 9.12402 5.32556 9.02179 5.10316 9.0038C4.43591 8.94984 4.07692 9.40524 3.69213 9.87262C2.74875 11.0184 2.27706 11.5914 2.10446 12.2232C1.96518 12.733 1.96518 13.2662 2.10446 13.776C2.3562 14.6975 3.15152 15.47 3.74021 16.185C4.11129 16.6357 4.46577 17.047 5.10316 16.9954C5.32556 16.9774 5.55001 16.8752 5.99891 16.6707C6.33825 16.5162 6.50793 16.4389 6.63591 16.3276C6.98778 16.0216 7 15.6304 7 15.1951V10.8041Z" fill="url(#paint3_linear_4613_4957)" stroke="url(#paint4_linear_4613_4957)" stroke-width="1.5"/>
<path d="M19 16.9998V17.7998C19 19.5671 17.2091 20.9998 15 20.9998H13" stroke="url(#paint5_linear_4613_4957)" stroke-width="1.5" stroke-linecap="round" stroke-linejoin="round"/>
<defs>
<linearGradient id="paint0_linear_4613_4957" x1="-9.81107" y1="19.2017" x2="19.901" y2="17.3341" gradientUnits="userSpaceOnUse">
<stop stop-color="#E6E1D6"/>
<stop offset="1" stop-color="#044247"/>
</linearGradient>
<linearGradient id="paint1_linear_4613_4957" x1="11.7103" y1="30.6024" x2="22.3607" y2="30.423" gradientUnits="userSpaceOnUse">
<stop stop-color="#E6E1D6"/>
<stop offset="1" stop-color="#044247"/>
</linearGradient>
<linearGradient id="paint2_linear_4613_4957" x1="11.7103" y1="30.6024" x2="22.3607" y2="30.423" gradientUnits="userSpaceOnUse">
<stop stop-color="#E6E1D6"/>
<stop offset="1" stop-color="#044247"/>
</linearGradient>
<linearGradient id="paint3_linear_4613_4957" x1="12.2897" y1="30.6028" x2="1.63931" y2="30.4235" gradientUnits="userSpaceOnUse">
<stop stop-color="#E6E1D6"/>
<stop offset="1" stop-color="#044247"/>
</linearGradient>
<linearGradient id="paint4_linear_4613_4957" x1="12.2897" y1="30.6028" x2="1.63931" y2="30.4235" gradientUnits="userSpaceOnUse">
<stop stop-color="#E6E1D6"/>
<stop offset="1" stop-color="#044247"/>
</linearGradient>
<linearGradient id="paint5_linear_4613_4957" x1="6.6524" y1="27.8011" x2="19.4156" y2="27.2853" gradientUnits="userSpaceOnUse">
<stop stop-color="#E6E1D6"/>
<stop offset="1" stop-color="#044247"/>
</linearGradient>
</defs>
</svg>
