<svg width="20" height="20" viewBox="0 0 20 20" fill="none" xmlns="http://www.w3.org/2000/svg">
<path d="M17.5007 11.6803C17.4626 10.8536 16.8978 10.8333 16.1316 10.8333C14.9512 10.8333 14.7556 11.1153 14.7556 12.2222V13.6111C14.7556 14.718 14.9512 15 16.1316 15C16.8978 15 17.4626 14.9797 17.5007 14.153M8.57972 12.9166C8.57972 14.0672 7.65795 15 6.52089 15C6.26433 15 6.13605 15 6.0405 14.9442C5.81173 14.8105 5.83462 14.54 5.83462 14.3055V11.5278C5.83462 11.2933 5.81173 11.0228 6.0405 10.8891C6.13605 10.8333 6.26433 10.8333 6.52089 10.8333C7.65795 10.8333 8.57972 11.7661 8.57972 12.9166ZM11.6673 15C11.0203 15 10.6968 15 10.4958 14.7966C10.2948 14.5932 10.2948 14.2658 10.2948 13.6111V12.2222C10.2948 11.5675 10.2948 11.2401 10.4958 11.0367C10.6968 10.8333 11.0203 10.8333 11.6673 10.8333C12.3143 10.8333 12.6379 10.8333 12.8389 11.0367C13.0399 11.2401 13.0399 11.5675 13.0399 12.2222V13.6111C13.0399 14.2658 13.0399 14.5932 12.8389 14.7966C12.6379 15 12.3143 15 11.6673 15Z" stroke="url(#paint0_linear_4903_2184)" stroke-width="1.25" stroke-linecap="round"/>
<path d="M12.4993 18.3333H8.93874C6.22107 18.3333 4.86224 18.3333 3.91857 17.6685C3.6482 17.478 3.40817 17.252 3.20577 16.9976C2.49935 16.1094 2.49935 14.8305 2.49935 12.2727V10.1515C2.49935 7.68219 2.49935 6.44753 2.89013 5.46144C3.51836 3.87617 4.84696 2.62572 6.53132 2.03444C7.57904 1.66665 8.89086 1.66665 11.5145 1.66665C13.0137 1.66665 13.7633 1.66665 14.362 1.87681C15.3245 2.21469 16.0837 2.92923 16.4427 3.8351C16.666 4.39858 16.666 5.1041 16.666 6.51513V8.33331" stroke="url(#paint1_linear_4903_2184)" stroke-width="1.25" stroke-linecap="round" stroke-linejoin="round"/>
<path d="M2.50065 10C2.50065 8.46588 3.7443 7.22222 5.27843 7.22222C5.83325 7.22222 6.48735 7.31944 7.02679 7.1749C7.50608 7.04647 7.88045 6.6721 8.00888 6.1928C8.15342 5.65336 8.05621 4.99926 8.05621 4.44444C8.05621 2.91032 9.29986 1.66667 10.834 1.66667" stroke="url(#paint2_linear_4903_2184)" stroke-width="1.25" stroke-linecap="round" stroke-linejoin="round"/>
<defs>
<linearGradient id="paint0_linear_4903_2184" x1="5.83398" y1="12.9166" x2="17.5007" y2="12.9166" gradientUnits="userSpaceOnUse">
<stop stop-color="#347278"/>
<stop offset="1" stop-color="#1D5055"/>
</linearGradient>
<linearGradient id="paint1_linear_4903_2184" x1="16.666" y1="9.99998" x2="2.49935" y2="9.99998" gradientUnits="userSpaceOnUse">
<stop stop-color="#347278"/>
<stop offset="1" stop-color="#1D5055"/>
</linearGradient>
<linearGradient id="paint2_linear_4903_2184" x1="10.834" y1="5.83333" x2="2.50065" y2="5.83333" gradientUnits="userSpaceOnUse">
<stop stop-color="#347278"/>
<stop offset="1" stop-color="#1D5055"/>
</linearGradient>
</defs>
</svg>
