<svg width="21" height="20" viewBox="0 0 21 20" fill="none" xmlns="http://www.w3.org/2000/svg">
<path d="M10.0664 7.49976C10.0664 7.84493 10.3462 8.12476 10.6914 8.12476C11.0365 8.12476 11.3164 7.84493 11.3164 7.49976H10.0664ZM12.6882 5.37047C12.8929 5.6484 13.2841 5.70778 13.562 5.50308C13.84 5.29839 13.8993 4.90714 13.6947 4.62921L12.6882 5.37047ZM7.68815 4.62924C7.48346 4.90718 7.54285 5.29843 7.82079 5.50311C8.09873 5.7078 8.48998 5.64841 8.69466 5.37047L7.68815 4.62924ZM11.3164 7.49976V2.49976H10.0664V7.49976H11.3164ZM10.6914 3.12476C10.5996 3.12476 10.5797 3.09087 10.6652 3.14244C10.7336 3.18366 10.8279 3.25437 10.9461 3.35876C11.1809 3.56626 11.4519 3.85485 11.7165 4.15955C11.9783 4.46114 12.2219 4.76457 12.4007 4.99372C12.4899 5.10796 12.5623 5.20298 12.6123 5.2691C12.6372 5.30215 12.6565 5.32793 12.6694 5.34524C12.6759 5.35389 12.6807 5.36042 12.6839 5.36468C12.6855 5.36681 12.6866 5.36837 12.6873 5.36934C12.6877 5.36982 12.6879 5.37016 12.6881 5.37035C12.6881 5.37044 12.6882 5.3705 12.6882 5.37052C12.6882 5.37053 12.6882 5.37052 12.6882 5.37052C12.6882 5.3705 12.6882 5.37047 13.1914 4.99984C13.6947 4.62921 13.6946 4.62916 13.6946 4.62909C13.6945 4.62906 13.6945 4.62899 13.6944 4.62892C13.6943 4.62879 13.6942 4.62862 13.6941 4.62841C13.6938 4.628 13.6933 4.62743 13.6928 4.62671C13.6918 4.62528 13.6903 4.62325 13.6883 4.62065C13.6845 4.61545 13.6789 4.60794 13.6717 4.59828C13.6573 4.57897 13.6364 4.55104 13.6097 4.51572C13.5564 4.44512 13.4799 4.34482 13.3861 4.22468C13.1991 3.98507 12.9412 3.66347 12.6604 3.34005C12.3823 3.01972 12.0694 2.6833 11.7738 2.42204C11.6266 2.29204 11.469 2.16743 11.3106 2.07193C11.1694 1.98677 10.9478 1.87476 10.6914 1.87476L10.6914 3.12476ZM8.19141 4.99986C8.69466 5.37047 8.69464 5.3705 8.69462 5.37053C8.69463 5.37052 8.69462 5.37054 8.69462 5.37053C8.69464 5.37051 8.69468 5.37045 8.69475 5.37035C8.69489 5.37017 8.69514 5.36983 8.6955 5.36934C8.69622 5.36837 8.69737 5.36681 8.69895 5.36468C8.7021 5.36043 8.70694 5.3539 8.71339 5.34524C8.72629 5.32793 8.74559 5.30215 8.77054 5.2691C8.82048 5.20298 8.89296 5.10796 8.98211 4.99372C9.16093 4.76457 9.40444 4.46114 9.66629 4.15955C9.93082 3.85484 10.2018 3.56625 10.4367 3.35875C10.5548 3.25436 10.6491 3.18366 10.7175 3.14243C10.803 3.09087 10.7831 3.12476 10.6914 3.12476L10.6914 1.87476C10.4349 1.87475 10.2134 1.98677 10.0721 2.07193C9.91369 2.16743 9.75608 2.29204 9.60896 2.42204C9.31329 2.68331 9.00049 3.01974 8.72238 3.34006C8.44159 3.66349 8.18364 3.98509 7.99665 4.22471C7.9029 4.34485 7.82639 4.44515 7.77307 4.51576C7.74639 4.55107 7.72549 4.579 7.7111 4.59832C7.7039 4.60797 7.69833 4.61548 7.69447 4.62069C7.69254 4.62329 7.69104 4.62532 7.68999 4.62675C7.68946 4.62746 7.68904 4.62803 7.68873 4.62845C7.68858 4.62866 7.68845 4.62883 7.68836 4.62896C7.68831 4.62902 7.68826 4.6291 7.68823 4.62913C7.68819 4.62919 7.68815 4.62924 8.19141 4.99986Z" fill="url(#paint0_linear_4792_3357)"/>
<path d="M8.19141 10.6248C8.53658 10.6248 8.81641 10.345 8.81641 9.99981C8.81641 9.65463 8.53658 9.37481 8.19141 9.37481V10.6248ZM5.32073 13.0032C5.59865 13.2079 5.9899 13.1486 6.19461 12.8707C6.39932 12.5927 6.33997 12.2015 6.06205 11.9968L5.32073 13.0032ZM6.06201 8.00327C6.33996 7.79859 6.39935 7.40734 6.19467 7.12939C5.98999 6.85145 5.59875 6.79205 5.3208 6.99673L6.06201 8.00327ZM8.19141 9.37481H3.19141V10.6248H8.19141V9.37481ZM2.56641 9.99981C2.56641 10.2562 2.67841 10.4778 2.76356 10.6191C2.85906 10.7775 2.98366 10.9351 3.11365 11.0822C3.3749 11.3779 3.71131 11.6907 4.03162 11.9689C4.35503 12.2497 4.67662 12.5077 4.91622 12.6947C5.03636 12.7884 5.13665 12.865 5.20725 12.9183C5.24256 12.945 5.27049 12.9659 5.2898 12.9803C5.29946 12.9875 5.30697 12.993 5.31217 12.9969C5.31478 12.9988 5.3168 13.0003 5.31823 13.0014C5.31895 13.0019 5.31952 13.0023 5.31993 13.0026C5.32014 13.0028 5.32031 13.0029 5.32045 13.003C5.32051 13.0031 5.32058 13.0031 5.32062 13.0031C5.32068 13.0032 5.32073 13.0032 5.69139 12.5C6.06205 11.9968 6.06208 11.9968 6.0621 11.9968C6.0621 11.9968 6.06211 11.9968 6.0621 11.9968C6.06208 11.9968 6.06202 11.9968 6.06193 11.9967C6.06174 11.9965 6.0614 11.9963 6.06092 11.9959C6.05994 11.9952 6.05838 11.9941 6.05626 11.9925C6.052 11.9893 6.04547 11.9845 6.03682 11.978C6.01951 11.9651 5.99373 11.9458 5.96068 11.9209C5.89456 11.8709 5.79955 11.7985 5.68531 11.7093C5.45617 11.5305 5.15276 11.2869 4.85118 11.025C4.54649 10.7605 4.25791 10.4894 4.05041 10.2546C3.94603 10.1364 3.87532 10.0421 3.8341 9.97372C3.78253 9.88817 3.81641 9.9081 3.81641 9.9998L2.56641 9.99981ZM5.69141 7.5C5.3208 6.99673 5.32075 6.99677 5.32069 6.99682C5.32065 6.99684 5.32058 6.99689 5.32052 6.99694C5.32039 6.99704 5.32021 6.99717 5.32001 6.99732C5.31959 6.99763 5.31902 6.99805 5.31831 6.99857C5.31687 6.99963 5.31485 7.00113 5.31225 7.00306C5.30704 7.00691 5.29953 7.01248 5.28988 7.01968C5.27056 7.03407 5.24263 7.05498 5.20732 7.08165C5.13672 7.13496 5.03642 7.21147 4.91629 7.30521C4.67668 7.49219 4.35509 7.75012 4.03167 8.0309C3.71136 8.30898 3.37494 8.62177 3.11368 8.91743C2.98368 9.06455 2.85907 9.22215 2.76357 9.38056C2.67842 9.52181 2.5664 9.7434 2.56641 9.99981L3.81641 9.9998C3.81641 10.0915 3.78252 10.1115 3.83408 10.0259C3.8753 9.95756 3.946 9.86326 4.05038 9.74513C4.25787 9.51032 4.54645 9.23933 4.85114 8.97481C5.15272 8.71299 5.45613 8.46949 5.68527 8.29069C5.79951 8.20154 5.89453 8.12907 5.96065 8.07914C5.99369 8.05418 6.01948 8.03489 6.03678 8.02199C6.04544 8.01554 6.05197 8.0107 6.05622 8.00755C6.05835 8.00597 6.05991 8.00482 6.06088 8.0041C6.06137 8.00374 6.06171 8.00349 6.0619 8.00335C6.06199 8.00328 6.06205 8.00324 6.06207 8.00323C6.06208 8.00322 6.06206 8.00323 6.06207 8.00322C6.06204 8.00324 6.06201 8.00327 5.69141 7.5Z" fill="url(#paint1_linear_4792_3357)"/>
<path d="M13.1914 9.3749C12.8462 9.3749 12.5664 9.65472 12.5664 9.9999C12.5664 10.3451 12.8462 10.6249 13.1914 10.6249V9.3749ZM16.0621 6.99675C15.7842 6.79206 15.3929 6.85144 15.1882 7.12937C14.9836 7.40731 15.0429 7.79856 15.3209 8.00325L16.0621 6.99675ZM15.3208 11.9968C15.0429 12.2015 14.9835 12.5927 15.1882 12.8707C15.3929 13.1486 15.7842 13.2079 16.0621 13.0032L15.3208 11.9968ZM18.1914 9.3749H13.1914V10.6249H18.1914V9.3749ZM18.8164 9.9999C18.8164 9.74349 18.7044 9.52191 18.6192 9.38066C18.5238 9.22225 18.3991 9.06464 18.2692 8.91753C18.0079 8.62186 17.6715 8.30906 17.3512 8.03096C17.0278 7.75017 16.7062 7.49223 16.4666 7.30525C16.3465 7.2115 16.2462 7.13499 16.1756 7.08167C16.1403 7.05499 16.1124 7.03409 16.093 7.0197C16.0834 7.0125 16.0759 7.00693 16.0707 7.00307C16.0681 7.00115 16.066 6.99965 16.0646 6.99859C16.0639 6.99806 16.0633 6.99764 16.0629 6.99734C16.0627 6.99718 16.0625 6.99706 16.0624 6.99696C16.0623 6.99691 16.0623 6.99686 16.0622 6.99683C16.0622 6.99679 16.0621 6.99675 15.6915 7.5C15.3209 8.00325 15.3208 8.00323 15.3208 8.00321C15.3208 8.00321 15.3208 8.0032 15.3208 8.00321C15.3208 8.00322 15.3209 8.00327 15.321 8.00334C15.3212 8.00348 15.3215 8.00373 15.322 8.00408C15.323 8.0048 15.3245 8.00595 15.3267 8.00753C15.3309 8.01068 15.3374 8.01553 15.3461 8.02198C15.3634 8.03487 15.3892 8.05417 15.4222 8.07913C15.4883 8.12906 15.5834 8.20154 15.6976 8.29069C15.9267 8.4695 16.2301 8.71301 16.5317 8.97484C16.8364 9.23937 17.1249 9.51037 17.3324 9.7452C17.4368 9.86333 17.5075 9.95764 17.5487 10.026C17.6003 10.1115 17.5664 10.0916 17.5664 9.99991L18.8164 9.9999ZM15.6915 12.5C16.0621 13.0032 16.0622 13.0032 16.0622 13.0031C16.0623 13.0031 16.0623 13.0031 16.0624 13.003C16.0625 13.0029 16.0627 13.0028 16.0629 13.0026C16.0633 13.0023 16.0639 13.0019 16.0646 13.0014C16.0661 13.0003 16.0681 12.9988 16.0707 12.9969C16.0759 12.9931 16.0834 12.9875 16.0931 12.9803C16.1124 12.9659 16.1403 12.945 16.1756 12.9183C16.2462 12.865 16.3465 12.7885 16.4666 12.6947C16.7062 12.5077 17.0278 12.2497 17.3512 11.9689C17.6715 11.6908 18.0079 11.378 18.2692 11.0823C18.3992 10.9352 18.5238 10.7776 18.6193 10.6191C18.7044 10.4779 18.8164 10.2563 18.8164 9.9999L17.5664 9.99991C17.5664 9.9082 17.6003 9.88827 17.5487 9.97381C17.5075 10.0422 17.4368 10.1365 17.3324 10.2547C17.1249 10.4895 16.8364 10.7605 16.5317 11.0251C16.2301 11.2869 15.9267 11.5305 15.6976 11.7093C15.5833 11.7985 15.4883 11.8709 15.4222 11.9209C15.3891 11.9458 15.3634 11.9651 15.3461 11.978C15.3374 11.9845 15.3309 11.9893 15.3266 11.9925C15.3245 11.9941 15.3229 11.9952 15.322 11.9959C15.3215 11.9963 15.3211 11.9965 15.3209 11.9967C15.3208 11.9968 15.3208 11.9968 15.3208 11.9968C15.3208 11.9968 15.3208 11.9968 15.3208 11.9968C15.3208 11.9968 15.3208 11.9968 15.6915 12.5Z" fill="url(#paint2_linear_4792_3357)"/>
<path d="M11.3164 12.4998C11.3164 12.1546 11.0365 11.8748 10.6914 11.8748C10.3462 11.8748 10.0664 12.1546 10.0664 12.4998H11.3164ZM8.69465 14.6292C8.48995 14.3513 8.0987 14.2919 7.82077 14.4966C7.54284 14.7013 7.48347 15.0926 7.68816 15.3705L8.69465 14.6292ZM13.6946 15.3705C13.8993 15.0926 13.84 14.7013 13.5621 14.4966C13.2841 14.2919 12.8929 14.3513 12.6882 14.6292L13.6946 15.3705ZM11.3164 17.4998V12.4998H10.0664V17.4998H11.3164ZM10.6914 16.8748C10.7831 16.8748 10.803 16.9086 10.7175 16.8571C10.6491 16.8159 10.5548 16.7452 10.4366 16.6408C10.2018 16.4333 9.9308 16.1447 9.66627 15.8401C9.40443 15.5385 9.16091 15.2351 8.98209 15.006C8.89294 14.8917 8.82047 14.7967 8.77053 14.7306C8.74557 14.6976 8.72627 14.6718 8.71338 14.6545C8.70693 14.6458 8.70208 14.6393 8.69893 14.635C8.69735 14.6329 8.6962 14.6313 8.69548 14.6304C8.69512 14.6299 8.69487 14.6295 8.69473 14.6294C8.69467 14.6293 8.69462 14.6292 8.69461 14.6292C8.6946 14.6292 8.69461 14.6292 8.69461 14.6292C8.69462 14.6292 8.69465 14.6292 8.19141 14.9999C7.68816 15.3705 7.6882 15.3706 7.68825 15.3706C7.68827 15.3707 7.68832 15.3707 7.68837 15.3708C7.68847 15.3709 7.6886 15.3711 7.68875 15.3713C7.68906 15.3717 7.68947 15.3723 7.69 15.373C7.69106 15.3744 7.69256 15.3765 7.69449 15.3791C7.69834 15.3843 7.70391 15.3918 7.71111 15.4014C7.72551 15.4207 7.74641 15.4487 7.77308 15.484C7.8264 15.5546 7.90292 15.6549 7.99667 15.775C8.18366 16.0146 8.4416 16.3362 8.7224 16.6596C9.00051 16.9799 9.31331 17.3163 9.60898 17.5775C9.7561 17.7075 9.91371 17.8321 10.0721 17.9276C10.2134 18.0128 10.435 18.1248 10.6914 18.1248L10.6914 16.8748ZM13.1914 14.9999C12.6882 14.6292 12.6882 14.6292 12.6882 14.6292C12.6882 14.6292 12.6882 14.6291 12.6882 14.6292C12.6882 14.6292 12.6882 14.6292 12.6881 14.6293C12.6879 14.6295 12.6877 14.6299 12.6873 14.6303C12.6866 14.6313 12.6855 14.6329 12.6839 14.635C12.6807 14.6393 12.6759 14.6458 12.6694 14.6544C12.6565 14.6717 12.6372 14.6975 12.6123 14.7306C12.5623 14.7967 12.4899 14.8917 12.4007 15.0059C12.2219 15.2351 11.9784 15.5385 11.7165 15.84C11.452 16.1447 11.1809 16.4333 10.9461 16.6408C10.828 16.7451 10.7336 16.8159 10.6653 16.8571C10.5797 16.9086 10.5997 16.8748 10.6914 16.8748L10.6914 18.1248C10.9478 18.1248 11.1693 18.0128 11.3106 17.9276C11.469 17.8321 11.6266 17.7075 11.7737 17.5775C12.0694 17.3163 12.3822 16.9799 12.6604 16.6596C12.9412 16.3362 13.1991 16.0146 13.3861 15.775C13.4799 15.6549 13.5564 15.5546 13.6097 15.484C13.6364 15.4487 13.6573 15.4207 13.6717 15.4014C13.6789 15.3918 13.6845 15.3843 13.6883 15.3791C13.6902 15.3765 13.6917 15.3744 13.6928 15.373C13.6933 15.3723 13.6937 15.3717 13.6941 15.3713C13.6942 15.3711 13.6943 15.3709 13.6944 15.3708C13.6945 15.3707 13.6945 15.3706 13.6946 15.3706C13.6946 15.3706 13.6946 15.3705 13.1914 14.9999Z" fill="url(#paint3_linear_4792_3357)"/>
<defs>
<linearGradient id="paint0_linear_4792_3357" x1="8.19141" y1="4.99976" x2="13.1914" y2="4.99976" gradientUnits="userSpaceOnUse">
<stop stop-color="#347278"/>
<stop offset="1" stop-color="#1D5055"/>
</linearGradient>
<linearGradient id="paint1_linear_4792_3357" x1="3.19141" y1="10" x2="8.19141" y2="10" gradientUnits="userSpaceOnUse">
<stop stop-color="#347278"/>
<stop offset="1" stop-color="#1D5055"/>
</linearGradient>
<linearGradient id="paint2_linear_4792_3357" x1="13.1914" y1="10" x2="18.1914" y2="10" gradientUnits="userSpaceOnUse">
<stop stop-color="#347278"/>
<stop offset="1" stop-color="#1D5055"/>
</linearGradient>
<linearGradient id="paint3_linear_4792_3357" x1="8.19141" y1="14.9998" x2="13.1914" y2="14.9998" gradientUnits="userSpaceOnUse">
<stop stop-color="#347278"/>
<stop offset="1" stop-color="#1D5055"/>
</linearGradient>
</defs>
</svg>
