<svg width="22" height="22" viewBox="0 0 22 22" fill="none" xmlns="http://www.w3.org/2000/svg">
<g clip-path="url(#clip0_4071_1508)">
<path d="M19.7973 2.93465H14.5035L14.1873 1.66965C14.0689 1.19225 13.794 0.768285 13.4064 0.465457C13.0189 0.162629 12.541 -0.00159008 12.0492 -0.000971998H9.94541C9.45448 -0.00197172 8.97732 0.161261 8.58987 0.462749C8.20242 0.764237 7.92694 1.18666 7.80728 1.66278L7.49103 2.93465H2.19728C2.09517 2.92475 1.99211 2.93631 1.89473 2.9686C1.79735 3.00089 1.7078 3.05319 1.63184 3.12214C1.55587 3.19109 1.49517 3.27517 1.45363 3.36898C1.41208 3.46279 1.39062 3.56425 1.39062 3.66684C1.39062 3.76943 1.41208 3.87089 1.45363 3.9647C1.49517 4.05851 1.55587 4.14259 1.63184 4.21154C1.7078 4.28049 1.79735 4.33279 1.89473 4.36508C1.99211 4.39737 2.09517 4.40893 2.19728 4.39903H19.7973C19.8994 4.40893 20.0025 4.39737 20.0998 4.36508C20.1972 4.33279 20.2868 4.28049 20.3627 4.21154C20.4387 4.14259 20.4994 4.05851 20.5409 3.9647C20.5825 3.87089 20.6039 3.76943 20.6039 3.66684C20.6039 3.56425 20.5825 3.46279 20.5409 3.36898C20.4994 3.27517 20.4387 3.19109 20.3627 3.12214C20.2868 3.05319 20.1972 3.00089 20.0998 2.9686C20.0025 2.93631 19.8994 2.92475 19.7973 2.93465ZM9.00353 2.93465L9.23041 2.02028C9.26908 1.86544 9.35707 1.72739 9.48108 1.62693C9.6051 1.52648 9.75841 1.46909 9.91791 1.4634H12.0285C12.188 1.46909 12.3413 1.52648 12.4654 1.62693C12.5894 1.72739 12.6774 1.86544 12.716 2.02028L12.9429 2.93465H9.00353Z" fill="#D50000"/>
<path d="M18.3336 5.86426H3.66234C3.5596 5.86467 3.4581 5.8866 3.36436 5.92863C3.27062 5.97066 3.18672 6.03186 3.11807 6.10828C3.04941 6.18471 2.99753 6.27466 2.96576 6.37236C2.93398 6.47005 2.92302 6.57332 2.93359 6.67551L4.12296 18.6999C4.21212 19.6079 4.63741 20.4498 5.31537 21.0603C5.99333 21.6708 6.875 22.006 7.78734 21.9999H14.2086C15.1209 22.006 16.0026 21.6708 16.6806 21.0603C17.3585 20.4498 17.7838 19.6079 17.873 18.6999L19.0623 6.67551C19.0719 6.57386 19.0602 6.47134 19.0279 6.37447C18.9957 6.2776 18.9436 6.1885 18.8751 6.11284C18.8065 6.03718 18.723 5.97662 18.6298 5.93501C18.5365 5.89339 18.4357 5.87164 18.3336 5.87113V5.86426ZM16.4017 18.5624C16.3487 19.1052 16.0954 19.6087 15.6912 19.9748C15.2869 20.3409 14.7608 20.5433 14.2155 20.5424H7.78734C7.24079 20.545 6.71298 20.3434 6.3073 19.9771C5.90162 19.6109 5.64732 19.1063 5.59421 18.5624L4.47359 7.33551H17.5361L16.4017 18.5624Z" fill="#D50000"/>
</g>
<defs>
<clipPath id="clip0_4071_1508">
<rect width="22" height="22" fill="white"/>
</clipPath>
</defs>
</svg>
