<svg width="29" height="29" viewBox="0 0 29 29" fill="none" xmlns="http://www.w3.org/2000/svg">
<rect x="0.692383" y="0.692322" width="28.1538" height="28.1538" rx="8" fill="#D50000"/>
<g clip-path="url(#clip0_4224_1918)">
<path d="M21.1699 8.90386H17.3199L17.0899 7.98386C17.0038 7.63666 16.8039 7.32832 16.522 7.10808C16.2401 6.88785 15.8926 6.76841 15.5349 6.76886H14.0049C13.6478 6.76814 13.3008 6.88685 13.019 7.10611C12.7372 7.32538 12.5369 7.63259 12.4499 7.97886L12.2199 8.90386H8.36986C8.2956 8.89666 8.22065 8.90507 8.14983 8.92855C8.079 8.95203 8.01388 8.99007 7.95863 9.04022C7.90338 9.09037 7.85923 9.15151 7.82902 9.21974C7.79881 9.28796 7.7832 9.36175 7.7832 9.43636C7.7832 9.51098 7.79881 9.58477 7.82902 9.65299C7.85923 9.72121 7.90338 9.78236 7.95863 9.83251C8.01388 9.88266 8.079 9.92069 8.14983 9.94418C8.22065 9.96766 8.2956 9.97607 8.36986 9.96886H21.1699C21.2441 9.97607 21.3191 9.96766 21.3899 9.94418C21.4607 9.92069 21.5258 9.88266 21.5811 9.83251C21.6363 9.78236 21.6805 9.72121 21.7107 9.65299C21.7409 9.58477 21.7565 9.51098 21.7565 9.43636C21.7565 9.36175 21.7409 9.28796 21.7107 9.21974C21.6805 9.15151 21.6363 9.09037 21.5811 9.04022C21.5258 8.99007 21.4607 8.95203 21.3899 8.92855C21.3191 8.90507 21.2441 8.89666 21.1699 8.90386ZM13.3199 8.90386L13.4849 8.23886C13.513 8.12626 13.577 8.02585 13.6672 7.95279C13.7574 7.87974 13.8689 7.838 13.9849 7.83386H15.5199C15.6359 7.838 15.7474 7.87974 15.8376 7.95279C15.9277 8.02585 15.9917 8.12626 16.0199 8.23886L16.1849 8.90386H13.3199Z" fill="white"/>
<path d="M20.1042 11.0342H9.4342C9.35949 11.0345 9.28567 11.0504 9.21749 11.081C9.14932 11.1116 9.0883 11.1561 9.03837 11.2117C8.98844 11.2672 8.95071 11.3327 8.9276 11.4037C8.90449 11.4748 8.89652 11.5499 8.9042 11.6242L9.7692 20.3692C9.83404 21.0295 10.1433 21.6418 10.6364 22.0858C11.1295 22.5299 11.7707 22.7736 12.4342 22.7692H17.1042C17.7677 22.7736 18.4089 22.5299 18.902 22.0858C19.3951 21.6418 19.7044 21.0295 19.7692 20.3692L20.6342 11.6242C20.6411 11.5503 20.6326 11.4757 20.6092 11.4052C20.5857 11.3348 20.5479 11.27 20.498 11.215C20.4482 11.1599 20.3874 11.1159 20.3196 11.0856C20.2518 11.0554 20.1785 11.0395 20.1042 11.0392V11.0342ZM18.6992 20.2692C18.6607 20.6639 18.4764 21.0302 18.1824 21.2964C17.8885 21.5626 17.5058 21.7098 17.1092 21.7092H12.4342C12.0367 21.7111 11.6529 21.5645 11.3578 21.2981C11.0628 21.0317 10.8778 20.6648 10.8392 20.2692L10.0242 12.1042H19.5242L18.6992 20.2692Z" fill="white"/>
</g>
<defs>
<clipPath id="clip0_4224_1918">
<rect width="16" height="16" fill="white" transform="translate(6.76953 6.76923)"/>
</clipPath>
</defs>
</svg>
