<svg width="22" height="22" viewBox="0 0 22 22" fill="none" xmlns="http://www.w3.org/2000/svg">
<path d="M14.8636 4.56682L16.1485 3.28188C16.8582 2.57222 18.0088 2.57222 18.7184 3.28188C19.4281 3.99153 19.4281 5.14212 18.7184 5.85177L17.4335 7.13672M14.8636 4.56682L10.0659 9.36453C9.10767 10.3227 8.62856 10.8018 8.30232 11.3857C7.97609 11.9695 7.64785 13.3481 7.33398 14.6663C8.65223 14.3524 10.0308 14.0242 10.6146 13.698C11.1985 13.3717 11.6776 12.8926 12.6358 11.9344L17.4335 7.13672M14.8636 4.56682L17.4335 7.13672" stroke="url(#paint0_linear_4101_1958)" stroke-width="1.375" stroke-linecap="round" stroke-linejoin="round"/>
<path d="M19.2539 10.9996C19.2539 14.8887 19.2539 16.8333 18.0457 18.0414C16.8375 19.2496 14.893 19.2496 11.0039 19.2496C7.11482 19.2496 5.17028 19.2496 3.96209 18.0414C2.75391 16.8333 2.75391 14.8887 2.75391 10.9996C2.75391 7.11055 2.75391 5.166 3.96209 3.95782C5.17028 2.74963 7.11482 2.74963 11.0039 2.74963" stroke="url(#paint1_linear_4101_1958)" stroke-width="1.375" stroke-linecap="round"/>
<defs>
<linearGradient id="paint0_linear_4101_1958" x1="7.33398" y1="8.70797" x2="19.2506" y2="8.70797" gradientUnits="userSpaceOnUse">
<stop stop-color="#347278"/>
<stop offset="1" stop-color="#1D5055"/>
</linearGradient>
<linearGradient id="paint1_linear_4101_1958" x1="2.75391" y1="10.9996" x2="19.2539" y2="10.9996" gradientUnits="userSpaceOnUse">
<stop stop-color="#347278"/>
<stop offset="1" stop-color="#1D5055"/>
</linearGradient>
</defs>
</svg>
