<svg width="25" height="24" viewBox="0 0 25 24" fill="none" xmlns="http://www.w3.org/2000/svg">
<path d="M19.9626 3.99415C17.2809 2.34923 14.9404 3.01211 13.5344 4.06801C12.9578 4.50096 12.6696 4.71743 12.5 4.71743C12.3304 4.71743 12.0422 4.50096 11.4656 4.06801C10.0596 3.01211 7.71909 2.34923 5.03744 3.99415C1.51807 6.15294 0.721721 13.2749 8.83953 19.2834C10.3857 20.4278 11.1588 21 12.5 21C13.8412 21 14.6143 20.4278 16.1605 19.2834C24.2783 13.2749 23.4819 6.15294 19.9626 3.99415Z" fill="url(#paint0_linear_5213_2679)" stroke="url(#paint1_linear_5213_2679)" stroke-width="1.5" stroke-linecap="round"/>
<defs>
<linearGradient id="paint0_linear_5213_2679" x1="-18.6587" y1="51.6056" x2="23.9167" y2="50.3312" gradientUnits="userSpaceOnUse">
<stop stop-color="#E6E1D6"/>
<stop offset="1" stop-color="#044247"/>
</linearGradient>
<linearGradient id="paint1_linear_5213_2679" x1="-18.6587" y1="51.6056" x2="23.9167" y2="50.3312" gradientUnits="userSpaceOnUse">
<stop stop-color="#E6E1D6"/>
<stop offset="1" stop-color="#044247"/>
</linearGradient>
</defs>
</svg>
