<svg width="22" height="22" viewBox="0 0 22 22" fill="none" xmlns="http://www.w3.org/2000/svg">
<path d="M11.916 3.66669L2.74935 3.66669" stroke="#141414" stroke-width="1.375" stroke-linecap="round" stroke-linejoin="round"/>
<path d="M10.084 17.4167L2.75065 17.4167" stroke="#141414" stroke-width="1.375" stroke-linecap="round" stroke-linejoin="round"/>
<path d="M19.25 17.4167L15.5833 17.4167" stroke="#141414" stroke-width="1.375" stroke-linecap="round" stroke-linejoin="round"/>
<path d="M19.25 10.5417L10.0833 10.5417" stroke="#141414" stroke-width="1.375" stroke-linecap="round" stroke-linejoin="round"/>
<path d="M19.25 3.66669L17.4167 3.66669" stroke="#141414" stroke-width="1.375" stroke-linecap="round" stroke-linejoin="round"/>
<path d="M4.58398 10.5417L2.75065 10.5417" stroke="#141414" stroke-width="1.375" stroke-linecap="round" stroke-linejoin="round"/>
<path d="M13.291 1.83335C13.7181 1.83335 13.9317 1.83335 14.1001 1.90313C14.3248 1.99616 14.5032 2.17462 14.5962 2.39922C14.666 2.56768 14.666 2.78124 14.666 3.20835L14.666 4.12502C14.666 4.55213 14.666 4.76569 14.5962 4.93414C14.5032 5.15875 14.3248 5.3372 14.1001 5.43024C13.9317 5.50002 13.7181 5.50002 13.291 5.50002C12.8639 5.50002 12.6503 5.50002 12.4819 5.43024C12.2573 5.3372 12.0788 5.15875 11.9858 4.93414C11.916 4.76569 11.916 4.55213 11.916 4.12502L11.916 3.20835C11.916 2.78124 11.916 2.56768 11.9858 2.39922C12.0788 2.17462 12.2573 1.99616 12.4819 1.90313C12.6503 1.83335 12.8639 1.83335 13.291 1.83335Z" stroke="#141414" stroke-width="1.375" stroke-linecap="round" stroke-linejoin="round"/>
<path d="M11.459 15.5834C11.8861 15.5834 12.0997 15.5834 12.2681 15.6531C12.4927 15.7462 12.6712 15.9246 12.7642 16.1492C12.834 16.3177 12.834 16.5312 12.834 16.9584L12.834 17.875C12.834 18.3021 12.834 18.5157 12.7642 18.6841C12.6712 18.9088 12.4927 19.0872 12.2681 19.1802C12.0997 19.25 11.8861 19.25 11.459 19.25C11.0319 19.25 10.8183 19.25 10.6499 19.1802C10.4252 19.0872 10.2468 18.9088 10.1538 18.6841C10.084 18.5157 10.084 18.3021 10.084 17.875L10.084 16.9584C10.084 16.5312 10.084 16.3177 10.1538 16.1492C10.2468 15.9246 10.4252 15.7462 10.6499 15.6531C10.8183 15.5834 11.0319 15.5834 11.459 15.5834Z" stroke="#141414" stroke-width="1.375" stroke-linecap="round" stroke-linejoin="round"/>
<path d="M8.70898 8.70835C9.1361 8.70835 9.34965 8.70835 9.51811 8.77813C9.74272 8.87117 9.92117 9.04962 10.0142 9.27423C10.084 9.44268 10.084 9.65624 10.084 10.0834L10.084 11C10.084 11.4271 10.084 11.6407 10.0142 11.8091C9.92117 12.0338 9.74272 12.2122 9.51811 12.3052C9.34965 12.375 9.1361 12.375 8.70898 12.375C8.28187 12.375 8.06831 12.375 7.89986 12.3052C7.67525 12.2122 7.4968 12.0338 7.40376 11.8091C7.33398 11.6407 7.33398 11.4271 7.33398 11L7.33398 10.0834C7.33398 9.65624 7.33398 9.44268 7.40376 9.27423C7.4968 9.04962 7.67525 8.87117 7.89986 8.77813C8.06831 8.70835 8.28187 8.70835 8.70898 8.70835Z" stroke="#141414" stroke-width="1.375" stroke-linecap="round" stroke-linejoin="round"/>
</svg>
