<svg width="22" height="22" viewBox="0 0 22 22" fill="none" xmlns="http://www.w3.org/2000/svg">
<g clip-path="url(#clip0_5263_3203)">
<path d="M17.416 19.2499V20.1666M17.416 12.8333V13.7499" stroke="url(#paint0_linear_5263_3203)" stroke-width="1.38" stroke-linecap="round" stroke-linejoin="round"/>
<path d="M11.916 19.2499H5.49935C5.01312 19.2499 4.5468 19.0568 4.20299 18.7129C3.85917 18.3691 3.66602 17.9028 3.66602 17.4166V6.41659C3.66602 5.93036 3.85917 5.46404 4.20299 5.12022C4.5468 4.77641 5.01312 4.58325 5.49935 4.58325H16.4993C16.9856 4.58325 17.4519 4.77641 17.7957 5.12022C18.1395 5.46404 18.3327 5.93036 18.3327 6.41659V9.16659" stroke="url(#paint1_linear_5263_3203)" stroke-width="1.38" stroke-linecap="round" stroke-linejoin="round"/>
<path d="M14.666 2.75V6.41667" stroke="url(#paint2_linear_5263_3203)" stroke-width="1.38" stroke-linecap="round" stroke-linejoin="round"/>
<path d="M7.33398 2.75V6.41667" stroke="url(#paint3_linear_5263_3203)" stroke-width="1.38" stroke-linecap="round" stroke-linejoin="round"/>
<path d="M3.66602 10.0833H15.1243" stroke="url(#paint4_linear_5263_3203)" stroke-width="1.38" stroke-linecap="round" stroke-linejoin="round"/>
<path d="M19.2507 13.75H16.959C16.5943 13.75 16.2446 13.8949 15.9867 14.1527C15.7289 14.4106 15.584 14.7603 15.584 15.125C15.584 15.4897 15.7289 15.8394 15.9867 16.0973C16.2446 16.3551 16.5943 16.5 16.959 16.5H17.8757C18.2403 16.5 18.5901 16.6449 18.8479 16.9027C19.1058 17.1606 19.2507 17.5103 19.2507 17.875C19.2507 18.2397 19.1058 18.5894 18.8479 18.8473C18.5901 19.1051 18.2403 19.25 17.8757 19.25H15.584" stroke="url(#paint5_linear_5263_3203)" stroke-width="1.38" stroke-linecap="round" stroke-linejoin="round"/>
</g>
<defs>
<linearGradient id="paint0_linear_5263_3203" x1="16.3581" y1="32.6355" x2="18.4887" y2="32.6277" gradientUnits="userSpaceOnUse">
<stop stop-color="#E6E1D6"/>
<stop offset="1" stop-color="#044247"/>
</linearGradient>
<linearGradient id="paint1_linear_5263_3203" x1="-11.8503" y1="44.1878" x2="19.3769" y2="43.3466" gradientUnits="userSpaceOnUse">
<stop stop-color="#E6E1D6"/>
<stop offset="1" stop-color="#044247"/>
</linearGradient>
<linearGradient id="paint2_linear_5263_3203" x1="13.6081" y1="12.6511" x2="15.7386" y2="12.6355" gradientUnits="userSpaceOnUse">
<stop stop-color="#E6E1D6"/>
<stop offset="1" stop-color="#044247"/>
</linearGradient>
<linearGradient id="paint3_linear_5263_3203" x1="6.27605" y1="12.6511" x2="8.40661" y2="12.6355" gradientUnits="userSpaceOnUse">
<stop stop-color="#E6E1D6"/>
<stop offset="1" stop-color="#044247"/>
</linearGradient>
<linearGradient id="paint4_linear_5263_3203" x1="-8.45614" y1="12.7836" x2="13.8341" y2="5.90321" gradientUnits="userSpaceOnUse">
<stop stop-color="#E6E1D6"/>
<stop offset="1" stop-color="#044247"/>
</linearGradient>
<linearGradient id="paint5_linear_5263_3203" x1="11.7049" y1="28.6017" x2="19.5149" y2="28.4614" gradientUnits="userSpaceOnUse">
<stop stop-color="#E6E1D6"/>
<stop offset="1" stop-color="#044247"/>
</linearGradient>
<clipPath id="clip0_5263_3203">
<rect width="22" height="22" fill="white"/>
</clipPath>
</defs>
</svg>
