<svg width="16" height="16" viewBox="0 0 16 16" fill="none" xmlns="http://www.w3.org/2000/svg">
<circle cx="5.00195" cy="4.99976" r="1" stroke="white" stroke-linecap="round" stroke-linejoin="round"/>
<path d="M1.66797 7.99984C1.66797 5.01428 1.66797 3.52149 2.59546 2.594C3.52296 1.6665 5.01574 1.6665 8.0013 1.6665C10.9869 1.6665 12.4796 1.6665 13.4071 2.594C14.3346 3.52149 14.3346 5.01428 14.3346 7.99984C14.3346 10.9854 14.3346 12.4782 13.4071 13.4057C12.4796 14.3332 10.9869 14.3332 8.0013 14.3332C5.01574 14.3332 3.52296 14.3332 2.59546 13.4057C1.66797 12.4782 1.66797 10.9854 1.66797 7.99984Z" stroke="white"/>
<path d="M3.33398 13.9997C6.24896 10.5164 9.51669 5.92242 14.3323 9.02799" stroke="white"/>
</svg>
