<svg width="22" height="22" viewBox="0 0 22 22" fill="none" xmlns="http://www.w3.org/2000/svg">
<path d="M11 4.125V5.5M11 5.5V6.875M11 5.5H12.375M11 5.5H9.625" stroke="#347278" stroke-width="1.375" stroke-linecap="round"/>
<path d="M7.87096 2.37028C7.33398 2.90725 7.33398 3.7715 7.33398 5.49998C7.33398 7.22846 7.33398 8.09271 7.87096 8.62968C8.40793 9.16665 9.27217 9.16665 11.0007 9.16665C12.7291 9.16665 13.5934 9.16665 14.1303 8.62968C14.6673 8.09271 14.6673 7.22846 14.6673 5.49998C14.6673 3.7715 14.6673 2.90725 14.1303 2.37028C13.5934 1.83331 12.7291 1.83331 11.0007 1.83331C9.27217 1.83331 8.40793 1.83331 7.87096 2.37028Z" stroke="#347278" stroke-width="1.375" stroke-linecap="round" stroke-linejoin="round"/>
<path d="M3.66602 20.1666V10.9731C3.66602 7.93945 3.66602 6.42259 4.60571 5.48014C5.20295 4.88116 6.03152 4.66287 7.33268 4.58331M18.3327 20.1666V10.9731C18.3327 7.93945 18.3327 6.42259 17.393 5.48014C16.7958 4.88116 15.9672 4.66287 14.666 4.58331" stroke="#347278" stroke-width="1.375" stroke-linecap="round" stroke-linejoin="round"/>
<path d="M2.75 20.1667H19.25" stroke="#347278" stroke-width="1.375" stroke-linecap="round" stroke-linejoin="round"/>
<path d="M8.70898 20.1666V17.875C8.70898 17.0182 8.70898 16.5899 8.8932 16.2708C9.01388 16.0618 9.18746 15.8882 9.39648 15.7675C9.71555 15.5833 10.1439 15.5833 11.0007 15.5833C11.8574 15.5833 12.2857 15.5833 12.6048 15.7675C12.8138 15.8882 12.9874 16.0618 13.1081 16.2708C13.2923 16.5899 13.2923 17.0182 13.2923 17.875V20.1666" stroke="#347278" stroke-width="1.375" stroke-linecap="round"/>
<path d="M7.3422 11.9167H7.33398M11.0007 11.9167H10.9924M14.6684 11.9167H14.6602" stroke="#347278" stroke-width="1.83333" stroke-linecap="round" stroke-linejoin="round"/>
</svg>
