<svg width="22" height="22" viewBox="0 0 22 22" fill="none" xmlns="http://www.w3.org/2000/svg">
<path d="M8.83398 17L12.834 17" stroke="white" stroke-width="1.5" stroke-linecap="round" stroke-linejoin="round"/>
<path d="M1.18538 12.2135C0.832356 9.91624 0.655846 8.76763 1.09015 7.74938C1.52445 6.73112 2.48801 6.03443 4.41512 4.64106L5.85497 3.6C8.25227 1.86667 9.45093 1 10.834 1C12.217 1 13.4157 1.86667 15.813 3.6L17.2528 4.64106C19.18 6.03443 20.1435 6.73112 20.5778 7.74938C21.0121 8.76763 20.8356 9.91624 20.4826 12.2135L20.1816 14.1724C19.6811 17.4289 19.4309 19.0572 18.263 20.0286C17.0951 21 15.3877 21 11.9728 21H9.69517C6.28032 21 4.57289 21 3.40498 20.0286C2.23707 19.0572 1.98685 17.4289 1.48641 14.1724L1.18538 12.2135Z" stroke="white" stroke-width="1.5" stroke-linejoin="round"/>
</svg>
