<svg width="25" height="24" viewBox="0 0 25 24" fill="none" xmlns="http://www.w3.org/2000/svg">
<path d="M3.18538 13.2135C2.83236 10.9162 2.65585 9.76763 3.09015 8.74938C3.52445 7.73112 4.48801 7.03443 6.41512 5.64106L7.85497 4.6C10.2523 2.86667 11.4509 2 12.834 2C14.217 2 15.4157 2.86667 17.813 4.6L19.2528 5.64106C21.18 7.03443 22.1435 7.73112 22.5778 8.74938C23.0121 9.76763 22.8356 10.9162 22.4826 13.2135L22.1816 15.1724C21.6811 18.4289 21.4309 20.0572 20.263 21.0286C19.0951 22 17.3877 22 13.9728 22H11.6952C8.28032 22 6.57289 22 5.40498 21.0286C4.23707 20.0572 3.98685 18.4289 3.48641 15.1724L3.18538 13.2135Z" fill="url(#paint0_linear_5213_1111)" stroke="url(#paint1_linear_5213_1111)" stroke-width="1.5" stroke-linejoin="round"/>
<path d="M10.834 18L14.834 18" stroke="white" stroke-width="1.5" stroke-linecap="round" stroke-linejoin="round"/>
<defs>
<linearGradient id="paint0_linear_5213_1111" x1="-18.3247" y1="56.0062" x2="24.2579" y2="54.8591" gradientUnits="userSpaceOnUse">
<stop stop-color="#E6E1D6"/>
<stop offset="1" stop-color="#044247"/>
</linearGradient>
<linearGradient id="paint1_linear_5213_1111" x1="-18.3247" y1="56.0062" x2="24.2579" y2="54.8591" gradientUnits="userSpaceOnUse">
<stop stop-color="#E6E1D6"/>
<stop offset="1" stop-color="#044247"/>
</linearGradient>
</defs>
</svg>
