<svg width="16" height="16" viewBox="0 0 16 16" fill="none" xmlns="http://www.w3.org/2000/svg">
<circle cx="5.00195" cy="5.00003" r="1" stroke="white" stroke-linecap="round" stroke-linejoin="round"/>
<path d="M1.66797 8.00002C1.66797 5.01446 1.66797 3.52168 2.59546 2.59418C3.52296 1.66669 5.01574 1.66669 8.0013 1.66669C10.9869 1.66669 12.4796 1.66669 13.4071 2.59418C14.3346 3.52168 14.3346 5.01446 14.3346 8.00002C14.3346 10.9856 14.3346 12.4784 13.4071 13.4059C12.4796 14.3334 10.9869 14.3334 8.0013 14.3334C5.01574 14.3334 3.52296 14.3334 2.59546 13.4059C1.66797 12.4784 1.66797 10.9856 1.66797 8.00002Z" stroke="white"/>
<path d="M3.33398 14C6.24896 10.5167 9.51669 5.92273 14.3323 9.0283" stroke="white"/>
</svg>
