<svg width="32" height="32" viewBox="0 0 32 32" fill="none" xmlns="http://www.w3.org/2000/svg">
<g clip-path="url(#clip0_2734_14343)">
<path d="M16.0074 0.243164C9.42771 0.243164 7.50341 0.249952 7.12936 0.280981C5.7791 0.39322 4.93888 0.60582 4.02351 1.06156C3.31808 1.41186 2.76173 1.8179 2.21266 2.3871C1.21269 3.42513 0.606648 4.70218 0.387261 6.2202C0.280597 6.95714 0.249568 7.10744 0.243265 10.8717C0.240841 12.1264 0.243265 13.7778 0.243265 15.9928C0.243265 22.5671 0.250537 24.4895 0.282052 24.8628C0.391139 26.1767 0.597194 27.0033 1.03354 27.9075C1.86746 29.6384 3.46014 30.9378 5.33644 31.4226C5.98612 31.5899 6.70368 31.682 7.62486 31.7256C8.01515 31.7426 11.9932 31.7547 15.9737 31.7547C19.9542 31.7547 23.9347 31.7499 24.3153 31.7305C25.3819 31.6803 26.0013 31.5971 26.6861 31.4202C28.5745 30.9329 30.1381 29.6529 30.989 27.8978C31.4169 27.0154 31.6338 26.1573 31.732 24.912C31.7533 24.6405 31.7623 20.3117 31.7623 15.9886C31.7623 11.6649 31.7526 7.34404 31.7313 7.07253C31.6319 5.80712 31.4149 4.95623 30.9732 4.05687C30.6108 3.32065 30.2084 2.77085 29.6242 2.20868C28.5816 1.21283 27.3064 0.606789 25.787 0.387645C25.0508 0.281224 24.9041 0.249709 21.1369 0.243164H16.0074Z" fill="url(#paint0_radial_2734_14343)"/>
<path d="M16.0074 0.243164C9.42771 0.243164 7.50341 0.249952 7.12936 0.280981C5.7791 0.39322 4.93888 0.60582 4.02351 1.06156C3.31808 1.41186 2.76173 1.8179 2.21266 2.3871C1.21269 3.42513 0.606648 4.70218 0.387261 6.2202C0.280597 6.95714 0.249568 7.10744 0.243265 10.8717C0.240841 12.1264 0.243265 13.7778 0.243265 15.9928C0.243265 22.5671 0.250537 24.4895 0.282052 24.8628C0.391139 26.1767 0.597194 27.0033 1.03354 27.9075C1.86746 29.6384 3.46014 30.9378 5.33644 31.4226C5.98612 31.5899 6.70368 31.682 7.62486 31.7256C8.01515 31.7426 11.9932 31.7547 15.9737 31.7547C19.9542 31.7547 23.9347 31.7499 24.3153 31.7305C25.3819 31.6803 26.0013 31.5971 26.6861 31.4202C28.5745 30.9329 30.1381 29.6529 30.989 27.8978C31.4169 27.0154 31.6338 26.1573 31.732 24.912C31.7533 24.6405 31.7623 20.3117 31.7623 15.9886C31.7623 11.6649 31.7526 7.34404 31.7313 7.07253C31.6319 5.80712 31.4149 4.95623 30.9732 4.05687C30.6108 3.32065 30.2084 2.77085 29.6242 2.20868C28.5816 1.21283 27.3064 0.606789 25.787 0.387645C25.0508 0.281224 24.9041 0.249709 21.1369 0.243164H16.0074Z" fill="#347278"/>
<path d="M16.0003 4.36475C12.8401 4.36475 12.4435 4.37856 11.2023 4.43505C9.9636 4.49177 9.11805 4.68789 8.37819 4.97564C7.61288 5.27284 6.96369 5.6704 6.31692 6.31741C5.66967 6.96418 5.2721 7.61337 4.97393 8.37844C4.68545 9.11854 4.4891 9.96433 4.43334 11.2026C4.37783 12.4438 4.36328 12.8406 4.36328 16.0008C4.36328 19.1609 4.37734 19.5563 4.43358 20.7975C4.49055 22.0362 4.68667 22.8818 4.97417 23.6216C5.27162 24.3869 5.66918 25.0361 6.31619 25.6829C6.96272 26.3301 7.61191 26.7287 8.37673 27.0259C9.11708 27.3136 9.96287 27.5097 11.2014 27.5665C12.4426 27.623 12.8389 27.6368 15.9988 27.6368C19.1592 27.6368 19.5546 27.623 20.7958 27.5665C22.0345 27.5097 22.881 27.3136 23.6214 27.0259C24.3864 26.7287 25.0347 26.3301 25.6812 25.6829C26.3284 25.0361 26.726 24.3869 27.0242 23.6219C27.3102 22.8818 27.5066 22.036 27.5648 20.7977C27.6205 19.5565 27.6351 19.1609 27.6351 16.0008C27.6351 12.8406 27.6205 12.444 27.5648 11.2028C27.5066 9.96409 27.3102 9.11854 27.0242 8.37868C26.726 7.61337 26.3284 6.96418 25.6812 6.31741C25.0339 5.67016 24.3867 5.2726 23.6206 4.97564C22.8788 4.68789 22.0328 4.49177 20.7941 4.43505C19.5529 4.37856 19.1577 4.36475 15.9966 4.36475H16.0003ZM14.9564 6.46165C15.2662 6.46117 15.6119 6.46165 16.0003 6.46165C19.1071 6.46165 19.4753 6.4728 20.7022 6.52856C21.8367 6.58044 22.4524 6.77001 22.8626 6.92927C23.4056 7.14018 23.7928 7.39229 24.1998 7.79955C24.607 8.20681 24.8591 8.59468 25.0705 9.13769C25.2298 9.54738 25.4196 10.1631 25.4712 11.2976C25.527 12.5243 25.5391 12.8927 25.5391 15.9981C25.5391 19.1035 25.527 19.4719 25.4712 20.6986C25.4194 21.8331 25.2298 22.4488 25.0705 22.8585C24.8596 23.4015 24.607 23.7882 24.1998 24.1952C23.7925 24.6024 23.4059 24.8546 22.8626 25.0655C22.4529 25.2254 21.8367 25.4145 20.7022 25.4664C19.4755 25.5222 19.1071 25.5343 16.0003 25.5343C12.8932 25.5343 12.525 25.5222 11.2983 25.4664C10.1638 25.414 9.54809 25.2245 9.13768 25.0652C8.59467 24.8543 8.2068 24.6022 7.79954 24.1949C7.39228 23.7877 7.14017 23.4008 6.92878 22.8575C6.76951 22.4478 6.5797 21.8321 6.52806 20.6976C6.47231 19.471 6.46116 19.1025 6.46116 15.9952C6.46116 12.8879 6.47231 12.5213 6.52806 11.2947C6.57994 10.1602 6.76951 9.54447 6.92878 9.1343C7.13968 8.59128 7.39228 8.20342 7.79954 7.79616C8.2068 7.3889 8.59467 7.13678 9.13768 6.9254C9.54785 6.7654 10.1638 6.57632 11.2983 6.5242C12.3718 6.47571 12.7878 6.46117 14.9564 6.45874V6.46165ZM22.2115 8.39371C21.4406 8.39371 20.8151 9.01842 20.8151 9.78955C20.8151 10.5604 21.4406 11.1859 22.2115 11.1859C22.9824 11.1859 23.6078 10.5604 23.6078 9.78955C23.6078 9.01867 22.9824 8.39323 22.2115 8.39323V8.39371ZM16.0003 10.0252C12.7002 10.0252 10.0247 12.7007 10.0247 16.0008C10.0247 19.3008 12.7002 21.9751 16.0003 21.9751C19.3003 21.9751 21.9749 19.3008 21.9749 16.0008C21.9749 12.7007 19.3003 10.0252 16.0003 10.0252ZM16.0003 12.1221C18.1423 12.1221 19.8789 13.8585 19.8789 16.0008C19.8789 18.1428 18.1423 19.8794 16.0003 19.8794C13.858 19.8794 12.1216 18.1428 12.1216 16.0008C12.1216 13.8585 13.858 12.1221 16.0003 12.1221Z" fill="white"/>
</g>
<defs>
<radialGradient id="paint0_radial_2734_14343" cx="0" cy="0" r="1" gradientUnits="userSpaceOnUse" gradientTransform="translate(8.61476 34.1817) rotate(-90) scale(31.2303 29.0545)">
<stop stop-color="#FFDD55"/>
<stop offset="0.1" stop-color="#FFDD55"/>
<stop offset="0.5" stop-color="#FF543E"/>
<stop offset="1" stop-color="#C837AB"/>
</radialGradient>
<clipPath id="clip0_2734_14343">
<rect width="32" height="32" fill="white"/>
</clipPath>
</defs>
</svg>
