<svg width="20" height="20" viewBox="0 0 20 20" fill="none" xmlns="http://www.w3.org/2000/svg">
<path d="M18.3346 5.62484C18.6798 5.62484 18.9596 5.34502 18.9596 4.99984C18.9596 4.65466 18.6798 4.37484 18.3346 4.37484V5.62484ZM11.668 4.37484C11.3228 4.37484 11.043 4.65466 11.043 4.99984C11.043 5.34502 11.3228 5.62484 11.668 5.62484V4.37484ZM15.6263 1.6665C15.6263 1.32133 15.3465 1.0415 15.0013 1.0415C14.6561 1.0415 14.3763 1.32133 14.3763 1.6665H15.6263ZM14.3763 8.33317C14.3763 8.67835 14.6561 8.95817 15.0013 8.95817C15.3465 8.95817 15.6263 8.67835 15.6263 8.33317H14.3763ZM18.3346 4.37484H15.0013V5.62484H18.3346V4.37484ZM15.0013 4.37484H11.668V5.62484H15.0013V4.37484ZM14.3763 1.6665V4.99984H15.6263V1.6665H14.3763ZM14.3763 4.99984V8.33317H15.6263V4.99984H14.3763Z" fill="#347278"/>
<path d="M9.58464 2.49976C5.85268 2.49976 3.98671 2.49976 2.82734 3.65912C1.66797 4.81849 1.66797 6.68447 1.66797 10.4164C1.66797 14.1484 1.66797 16.0144 2.82734 17.1737C3.98671 18.3331 5.85268 18.3331 9.58464 18.3331C13.3166 18.3331 15.1826 18.3331 16.3419 17.1737C17.5013 16.0144 17.5013 14.1484 17.5013 10.4164V9.99976" stroke="#347278" stroke-width="1.25" stroke-linecap="round"/>
<path d="M1.66797 11.7794C2.18382 11.7044 2.70534 11.6674 3.22773 11.6687C5.43768 11.622 7.5935 12.3106 9.31053 13.6117C10.903 14.8183 12.0219 16.4789 12.5013 18.3332" stroke="#347278" stroke-width="1.25" stroke-linejoin="round"/>
<path d="M17.502 14.0801C16.5224 13.584 15.5093 13.3323 14.4905 13.3333C12.9474 13.3272 11.4199 13.8944 10.002 14.9999" stroke="#347278" stroke-width="1.25" stroke-linejoin="round"/>
</svg>
