<svg width="24" height="24" viewBox="0 0 24 24" fill="none" xmlns="http://www.w3.org/2000/svg">
<path d="M13.2457 17.4911C12.9084 17.816 12.4576 17.9976 11.9884 17.9976C11.5193 17.9976 11.0685 17.816 10.7312 17.4911C7.64258 14.4983 3.50347 11.1551 5.52199 6.30129C6.61339 3.67688 9.23323 1.99756 11.9884 1.99756C14.7436 1.99756 17.3635 3.67688 18.4549 6.30129C20.4708 11.149 16.3419 14.5087 13.2457 17.4911Z" fill="#347278" stroke="#347278" stroke-width="0.75"/>
<path d="M14.9863 8.99695C14.9863 10.6538 13.6432 11.9969 11.9863 11.9969C10.3295 11.9969 8.98633 10.6538 8.98633 8.99695C8.98633 7.34009 10.3295 5.99695 11.9863 5.99695C13.6432 5.99695 14.9863 7.34009 14.9863 8.99695Z" fill="white"/>
<path d="M17.9863 19.9976C17.9863 21.1021 15.3 21.9976 11.9863 21.9976C8.67262 21.9976 5.98633 21.1021 5.98633 19.9976" stroke="#347278" stroke-width="1.5" stroke-linecap="round"/>
</svg>
