<svg width="20" height="20" viewBox="0 0 20 20" fill="none" xmlns="http://www.w3.org/2000/svg">
<path d="M16.6672 7.49984C16.6596 4.90458 16.5776 3.52873 15.6917 2.64281C14.7153 1.6665 13.144 1.6665 10.0013 1.6665H8.33463C5.19194 1.6665 3.62059 1.6665 2.64428 2.64281C1.66797 3.61913 1.66797 5.19047 1.66797 8.33317V11.6665C1.66797 14.8092 1.66797 16.3805 2.64428 17.3569C3.62059 18.3332 5.19194 18.3332 8.33464 18.3332H10.0013C10.6142 18.3332 11.1674 18.3332 11.668 18.3259" stroke="white" stroke-width="1.25" stroke-linecap="round" stroke-linejoin="round"/>
<path d="M17.9252 15.1887C16.7436 15.9232 14.9239 15.9232 13.7423 15.1887C13.5552 15.0725 13.4617 15.0143 13.3882 14.8429C13.1612 14.3133 13.6974 13.6116 14.071 13.3029C14.5463 12.9102 14.7839 12.7138 14.8361 12.5504C14.955 12.1778 14.6691 11.6254 14.5636 11.2584C14.4656 10.9181 14.4167 10.7479 14.5098 10.553C14.6028 10.3582 14.7219 10.3031 14.9599 10.193C15.5167 9.93535 16.1509 9.93536 16.7076 10.193C16.9457 10.3031 17.0647 10.3582 17.1578 10.553C17.2509 10.7479 17.2019 10.9181 17.104 11.2584C16.9978 11.6276 16.7082 12.1875 16.8295 12.5622C16.8827 12.7266 17.1169 12.917 17.5852 13.2978C17.9639 13.6058 18.5088 14.3084 18.2795 14.8428C18.206 15.0142 18.1124 15.0724 17.9252 15.1887Z" fill="white"/>
<path d="M15.2088 18.3331C15.2088 18.6783 15.4886 18.9581 15.8338 18.9581C16.179 18.9581 16.4588 18.6783 16.4588 18.3331L15.2088 18.3331ZM16.4588 15.7396C16.4588 15.3944 16.179 15.1146 15.8338 15.1146C15.4886 15.1146 15.2088 15.3944 15.2088 15.7396L16.4588 15.7396ZM13.7423 15.1887L14.0722 14.6579L14.0722 14.6579L13.7423 15.1887ZM17.9252 15.1887L17.5953 14.6579L17.5953 14.6579L17.9252 15.1887ZM14.5636 11.2584L13.9629 11.4312L13.9629 11.4312L14.5636 11.2584ZM17.104 11.2584L17.7046 11.4312L17.7046 11.4312L17.104 11.2584ZM14.071 13.3029L14.4692 13.7847L14.4692 13.7847L14.071 13.3029ZM17.5852 13.2978L17.1909 13.7827L17.1909 13.7827L17.5852 13.2978ZM14.9599 10.193L14.6975 9.62574L14.6975 9.62574L14.9599 10.193ZM16.7076 10.193L16.9701 9.62572L16.9701 9.62572L16.7076 10.193ZM17.1578 10.553L16.5939 10.8224L16.5939 10.8224L17.1578 10.553ZM14.5098 10.553L15.0737 10.8224L14.5098 10.553ZM16.8295 12.5622L16.2349 12.7547L16.2349 12.7547L16.8295 12.5622ZM14.8361 12.5504L15.4315 12.7404L15.4315 12.7404L14.8361 12.5504ZM13.3882 14.8429L13.9626 14.5966L13.9626 14.5966L13.3882 14.8429ZM18.2795 14.8428L18.8539 15.0893L18.8539 15.0893L18.2795 14.8428ZM16.4588 18.3331L16.4588 15.7396L15.2088 15.7396L15.2088 18.3331L16.4588 18.3331ZM13.4123 15.7196C14.1199 16.1593 14.9896 16.3646 15.8338 16.3646C16.678 16.3646 17.5476 16.1593 18.2552 15.7195L17.5953 14.6579C17.1212 14.9526 16.4902 15.1146 15.8338 15.1146C15.1773 15.1146 14.5463 14.9526 14.0722 14.6579L13.4123 15.7196ZM15.2224 10.7602C15.6126 10.5796 16.0549 10.5796 16.4452 10.7602L16.9701 9.62572C16.2469 9.2911 15.4207 9.29109 14.6975 9.62574L15.2224 10.7602ZM17.7046 11.4312C17.7831 11.1586 17.9368 10.7338 17.7218 10.2836L16.5939 10.8224C16.5916 10.8176 16.5863 10.8041 16.5838 10.7862C16.5814 10.77 16.5834 10.7645 16.5818 10.7783C16.5799 10.7946 16.5747 10.8243 16.5609 10.8788C16.547 10.9338 16.5286 10.9977 16.5034 11.0856L17.7046 11.4312ZM16.4452 10.7602C16.5079 10.7892 16.5473 10.8075 16.5795 10.8241C16.6101 10.8398 16.6191 10.8464 16.6188 10.8462C16.6159 10.844 16.6067 10.8366 16.5974 10.8251C16.5888 10.8146 16.5883 10.8107 16.5939 10.8224L17.7218 10.2836C17.6339 10.0997 17.5163 9.95365 17.3554 9.83626C17.2237 9.74023 17.0707 9.67229 16.9701 9.62572L16.4452 10.7602ZM15.1642 11.0856C15.1389 10.9977 15.1206 10.9338 15.1067 10.8788C15.0929 10.8243 15.0877 10.7946 15.0858 10.7783C15.0841 10.7645 15.0861 10.77 15.0838 10.7862C15.0812 10.8041 15.076 10.8176 15.0737 10.8224L13.9458 10.2836C13.7307 10.7338 13.8845 11.1586 13.9629 11.4312L15.1642 11.0856ZM14.6975 9.62574C14.5968 9.6723 14.4438 9.74024 14.3122 9.83627C14.1512 9.95366 14.0337 10.0997 13.9458 10.2836L15.0737 10.8224C15.0793 10.8108 15.0788 10.8146 15.0702 10.8251C15.0609 10.8366 15.0517 10.844 15.0488 10.8462C15.0484 10.8464 15.0575 10.8398 15.088 10.8241C15.1203 10.8076 15.1596 10.7892 15.2224 10.7602L14.6975 9.62574ZM17.9795 12.8129C17.7378 12.6164 17.5827 12.4898 17.4787 12.3925C17.4284 12.3454 17.4051 12.319 17.3962 12.3076C17.3871 12.2959 17.4074 12.3182 17.4241 12.3697L16.2349 12.7547C16.3152 13.0028 16.4973 13.1861 16.6247 13.3053C16.7682 13.4395 16.9643 13.5985 17.1909 13.7827L17.9795 12.8129ZM14.4692 13.7847C14.6995 13.5943 14.8975 13.4312 15.0418 13.2946C15.1684 13.1748 15.3521 12.9891 15.4315 12.7404L14.2407 12.3604C14.2577 12.307 14.2787 12.2843 14.2684 12.2975C14.2586 12.3101 14.2342 12.3379 14.1826 12.3867C14.0763 12.4874 13.9178 12.6188 13.6729 12.8211L14.4692 13.7847ZM14.0722 14.6579C14.0227 14.6271 13.9927 14.6084 13.9683 14.5919C13.9456 14.5766 13.9399 14.5712 13.9414 14.5725C13.9449 14.5757 13.9525 14.5834 13.9598 14.5938C13.9665 14.6034 13.9669 14.6066 13.9626 14.5966L12.8137 15.0891C12.8831 15.2508 12.9755 15.3846 13.1039 15.5005C13.21 15.5962 13.3337 15.6707 13.4123 15.7196L14.0722 14.6579ZM18.2552 15.7195C18.3339 15.6706 18.4576 15.5962 18.5637 15.5005C18.692 15.3847 18.7845 15.251 18.8539 15.0893L17.7051 14.5964C17.7008 14.6064 17.7013 14.6031 17.708 14.5936C17.7153 14.5832 17.7228 14.5755 17.7263 14.5724C17.7278 14.5711 17.7221 14.5765 17.6993 14.5919C17.6749 14.6083 17.6449 14.6271 17.5953 14.6579L18.2552 15.7195ZM13.6729 12.8211C13.433 13.0194 13.1507 13.3322 12.9553 13.6915C12.7703 14.0317 12.5869 14.56 12.8137 15.0891L13.9626 14.5966C13.9624 14.5962 13.9337 14.5089 14.0534 14.2887C14.1628 14.0876 14.3355 13.8951 14.4692 13.7847L13.6729 12.8211ZM18.8539 15.0893C19.0826 14.5562 18.8961 14.0254 18.7077 13.6837C18.509 13.3232 18.2225 13.0105 17.9795 12.8129L17.1909 13.7827C17.3266 13.8931 17.5019 14.0857 17.613 14.2871C17.7344 14.5074 17.7057 14.5951 17.7051 14.5964L18.8539 15.0893ZM15.4315 12.7404C15.554 12.3564 15.4547 11.9607 15.3822 11.7212C15.3414 11.5866 15.2935 11.4554 15.2546 11.3488C15.2127 11.2337 15.1834 11.1523 15.1642 11.0856L13.9629 11.4312C13.9965 11.548 14.0425 11.6733 14.0802 11.7767C14.1209 11.8885 14.1568 11.9874 14.1858 12.0834C14.2529 12.305 14.237 12.3717 14.2407 12.3604L15.4315 12.7404ZM17.4241 12.3697C17.4279 12.3814 17.4116 12.3139 17.4796 12.0893C17.509 11.9922 17.5453 11.8921 17.5864 11.7792C17.6244 11.675 17.6708 11.5487 17.7046 11.4312L16.5034 11.0856C16.484 11.1528 16.4544 11.2349 16.412 11.3511C16.3728 11.4588 16.3243 11.5913 16.2832 11.7271C16.2102 11.9684 16.1097 12.3682 16.2349 12.7547L17.4241 12.3697Z" fill="white"/>
<path d="M5.83398 5.83325H12.5007" stroke="white" stroke-width="1.25" stroke-linecap="round"/>
<path d="M5.83398 9.99976H11.6673" stroke="white" stroke-width="1.25" stroke-linecap="round"/>
<path d="M5.83398 14.1665L10.0007 14.1665" stroke="white" stroke-width="1.25" stroke-linecap="round"/>
</svg>
