<svg width="32" height="32" viewBox="0 0 32 32" fill="none" xmlns="http://www.w3.org/2000/svg">
<rect width="32" height="32" rx="8" fill="#347278"/>
<path d="M6.6936 9.96006C6.23087 9.5188 6 8.97287 6 8.3233C6 7.67372 6.23087 7.10315 6.6936 6.66189C7.15632 6.22063 7.75196 6 8.48253 6C9.2131 6 9.78477 6.22063 10.2465 6.66189C10.7092 7.10315 10.9401 7.6573 10.9401 8.3233C10.9401 8.98929 10.7092 9.5188 10.2465 9.96006C9.78377 10.4013 9.19611 10.6219 8.48253 10.6219C7.76895 10.6219 7.15632 10.4013 6.6936 9.96006ZM10.5503 12.4906V26.0127H6.38977V12.4906H10.5503Z" fill="#FEFFFC"/>
<path d="M24.4026 13.8257C25.3091 14.8365 25.7628 16.2249 25.7628 17.992V25.7746H21.8101V18.541C21.8101 17.6503 21.5853 16.9576 21.1355 16.464C20.6858 15.9704 20.0812 15.7241 19.3216 15.7241C18.5621 15.7241 17.9574 15.9714 17.5077 16.464C17.0579 16.9576 16.8331 17.6503 16.8331 18.541V25.7746H12.8574V12.4537H16.8331V14.2208C17.2358 13.6317 17.7785 13.1669 18.4611 12.8241C19.1427 12.4824 19.9103 12.311 20.7628 12.311C22.2819 12.311 23.4952 12.8169 24.4016 13.8267L24.4026 13.8257Z" fill="#FEFFFC"/>
</svg>
