<svg width="22" height="22" viewBox="0 0 22 22" fill="none" xmlns="http://www.w3.org/2000/svg">
<path d="M12.9884 19.1496C16.8228 18.8947 19.8772 15.7971 20.1285 11.9083C20.1777 11.1472 20.1777 10.3591 20.1285 9.59812C19.8772 5.7093 16.8228 2.61166 12.9884 2.35678C11.6803 2.26982 10.3145 2.27 9.00898 2.35678C5.17455 2.61166 2.12024 5.7093 1.86892 9.59812C1.81974 10.3591 1.81974 11.1472 1.86892 11.9083C1.96045 13.3246 2.58684 14.636 3.32428 15.7434C3.75246 16.5186 3.46988 17.4861 3.02389 18.3313C2.70232 18.9407 2.54154 19.2454 2.67064 19.4655C2.79973 19.6856 3.0881 19.6926 3.66484 19.7066C4.80539 19.7344 5.57449 19.4111 6.18499 18.9609C6.53124 18.7055 6.70436 18.5779 6.82368 18.5632C6.943 18.5485 7.17782 18.6452 7.64737 18.8386C8.0694 19.0125 8.55942 19.1197 9.00898 19.1496C10.3145 19.2364 11.6803 19.2366 12.9884 19.1496Z" stroke="#141414" stroke-width="1.375" stroke-linejoin="round"/>
<path d="M10.9946 10.9999H11.0028M14.6571 10.9999H14.6654M7.33203 10.9999H7.34026" stroke="#141414" stroke-width="1.83333" stroke-linecap="round" stroke-linejoin="round"/>
</svg>
