<svg width="25" height="25" viewBox="0 0 25 25" fill="none" xmlns="http://www.w3.org/2000/svg">
<g clip-path="url(#clip0_4466_1972)">
<path d="M21.5 6.5V11.672C21.4999 12.2024 21.2891 12.711 20.914 13.086L13.204 20.796C12.752 21.2479 12.1391 21.5017 11.5 21.5017C10.8609 21.5017 10.248 21.2479 9.796 20.796L4.204 15.204C3.75212 14.752 3.49825 14.1391 3.49825 13.5C3.49825 12.8609 3.75212 12.248 4.204 11.796L11.914 4.086C12.289 3.7109 12.7976 3.50011 13.328 3.5H18.5C19.2956 3.5 20.0587 3.81607 20.6213 4.37868C21.1839 4.94129 21.5 5.70435 21.5 6.5Z" fill="white" stroke="white" stroke-width="1.5" stroke-linecap="round" stroke-linejoin="round"/>
<path d="M18 8C18 8.26522 17.8946 8.51957 17.7071 8.70711C17.5196 8.89464 17.2652 9 17 9C16.7348 9 16.4804 8.89464 16.2929 8.70711C16.1054 8.51957 16 8.26522 16 8C16 7.73478 16.1054 7.48043 16.2929 7.29289C16.4804 7.10536 16.7348 7 17 7C17.2652 7 17.5196 7.10536 17.7071 7.29289C17.8946 7.48043 18 7.73478 18 8Z" fill="url(#paint0_linear_4466_1972)" stroke="url(#paint1_linear_4466_1972)" stroke-width="1.5" stroke-linecap="round" stroke-linejoin="round"/>
</g>
<defs>
<linearGradient id="paint0_linear_4466_1972" x1="18" y1="8" x2="16" y2="8" gradientUnits="userSpaceOnUse">
<stop stop-color="#347278"/>
<stop offset="1" stop-color="#1D5055"/>
</linearGradient>
<linearGradient id="paint1_linear_4466_1972" x1="18" y1="8" x2="16" y2="8" gradientUnits="userSpaceOnUse">
<stop stop-color="#347278"/>
<stop offset="1" stop-color="#1D5055"/>
</linearGradient>
<clipPath id="clip0_4466_1972">
<rect width="24" height="24" fill="white" transform="matrix(-1 0 0 1 24.5 0.5)"/>
</clipPath>
</defs>
</svg>
