<svg width="21" height="22" viewBox="0 0 21 22" fill="none" xmlns="http://www.w3.org/2000/svg">
<path d="M11.8125 4.4375C11.8125 3.71263 11.2249 3.125 10.5 3.125C9.77513 3.125 9.1875 3.71263 9.1875 4.4375C9.1875 5.16237 9.77513 5.75 10.5 5.75C11.2249 5.75 11.8125 5.16237 11.8125 4.4375Z" stroke="#141414" stroke-width="1.3125"/>
<path d="M11.8125 11C11.8125 10.2751 11.2249 9.6875 10.5 9.6875C9.77513 9.6875 9.1875 10.2751 9.1875 11C9.1875 11.7249 9.77513 12.3125 10.5 12.3125C11.2249 12.3125 11.8125 11.7249 11.8125 11Z" stroke="#141414" stroke-width="1.3125"/>
<path d="M11.8125 17.5625C11.8125 16.8376 11.2249 16.25 10.5 16.25C9.77513 16.25 9.1875 16.8376 9.1875 17.5625C9.1875 18.2874 9.77513 18.875 10.5 18.875C11.2249 18.875 11.8125 18.2874 11.8125 17.5625Z" stroke="#141414" stroke-width="1.3125"/>
</svg>
