<svg width="22" height="22" viewBox="0 0 22 22" fill="none" xmlns="http://www.w3.org/2000/svg">
<path d="M19.7473 10.1247C20.026 10.5155 20.1654 10.7109 20.1654 11.0002C20.1654 11.2894 20.026 11.4848 19.7473 11.8756C18.4951 13.6315 15.2972 17.4168 10.9987 17.4168C6.70025 17.4168 3.50229 13.6315 2.25007 11.8756C1.97138 11.4848 1.83203 11.2894 1.83203 11.0002C1.83203 10.7109 1.97138 10.5155 2.25007 10.1247C3.50229 8.36882 6.70025 4.5835 10.9987 4.5835C15.2972 4.5835 18.4951 8.36882 19.7473 10.1247Z" stroke="#141414" stroke-width="1.375"/>
<path d="M13.748 11.0002C13.748 9.48146 12.5168 8.25024 10.998 8.25024C9.47926 8.25024 8.24805 9.48146 8.24805 11.0002C8.24805 12.519 9.47926 13.7502 10.998 13.7502C12.5168 13.7502 13.748 12.519 13.748 11.0002Z" stroke="#141414" stroke-width="1.375"/>
</svg>
