<svg width="23" height="22" viewBox="0 0 23 22" fill="none" xmlns="http://www.w3.org/2000/svg">
<path d="M14.459 11.3618C14.3201 11.9364 13.6639 12.3423 12.3514 13.1543C11.0825 13.9392 10.4481 14.3316 9.93689 14.1739C9.72552 14.1087 9.53294 13.9848 9.37762 13.8142C9.00195 13.4015 9.00195 12.601 9.00195 11C9.00195 9.39896 9.00195 8.59846 9.37762 8.18575C9.53294 8.01512 9.72552 7.89125 9.93689 7.82603C10.4481 7.66828 11.0825 8.06073 12.3514 8.84564C13.6639 9.65758 14.3201 10.0636 14.459 10.6381C14.5163 10.8752 14.5163 11.1247 14.459 11.3618Z" stroke="url(#paint0_linear_2734_16000)" stroke-width="1.375" stroke-linejoin="round"/>
<path d="M3.04297 11C3.04297 6.89481 3.04297 4.84224 4.31827 3.56693C5.59358 2.29163 7.64615 2.29163 11.7513 2.29163C15.8565 2.29163 17.909 2.29163 19.1843 3.56693C20.4596 4.84224 20.4596 6.89481 20.4596 11C20.4596 15.1051 20.4596 17.1577 19.1843 18.433C17.909 19.7083 15.8565 19.7083 11.7513 19.7083C7.64615 19.7083 5.59358 19.7083 4.31827 18.433C3.04297 17.1577 3.04297 15.1051 3.04297 11Z" stroke="url(#paint1_linear_2734_16000)" stroke-width="1.375"/>
<defs>
<linearGradient id="paint0_linear_2734_16000" x1="9.00195" y1="11" x2="14.502" y2="11" gradientUnits="userSpaceOnUse">
<stop stop-color="#347278"/>
<stop offset="1" stop-color="#1D5055"/>
</linearGradient>
<linearGradient id="paint1_linear_2734_16000" x1="3.04297" y1="11" x2="20.4596" y2="11" gradientUnits="userSpaceOnUse">
<stop stop-color="#347278"/>
<stop offset="1" stop-color="#1D5055"/>
</linearGradient>
</defs>
</svg>
