<svg width="24" height="24" viewBox="0 0 24 24" fill="none" xmlns="http://www.w3.org/2000/svg">
<path d="M13.1445 8.25H9.39453" stroke="white" stroke-width="1.5" stroke-linecap="round" stroke-linejoin="round"/>
<path d="M13.1445 13.875H9.39453" stroke="white" stroke-width="1.5" stroke-linecap="round" stroke-linejoin="round"/>
<path d="M19.7062 12.9002V6.84399C19.7062 5.81274 19.7062 5.30649 19.4437 4.87524C19.1812 4.44399 18.7125 4.16274 17.7562 3.58149L16.5375 2.85024C15.0375 1.95024 14.2875 1.50024 13.7062 1.78149C13.125 2.06274 13.125 2.86899 13.125 4.48149V17.3252" stroke="white" stroke-width="1.5" stroke-linecap="round" stroke-linejoin="round"/>
<path d="M12.9945 20.4375H1.89453" stroke="white" stroke-width="1.5" stroke-linecap="round" stroke-linejoin="round"/>
<path d="M2.83203 6.82495C2.83203 5.7937 2.83203 5.28745 3.09453 4.8562C3.35703 4.42495 3.82578 4.1437 4.78203 3.56245L6.00078 2.8312C7.50078 1.9312 8.25078 1.4812 8.83203 1.76245C9.41328 2.0437 9.41328 2.84995 9.41328 4.46245V20.4374H2.83203V6.82495Z" stroke="white" stroke-width="1.5" stroke-linejoin="round"/>
<path d="M21.7695 15.7311C21.5445 15.5061 21.2633 15.3936 20.9633 15.3936H18.9758C18.7695 15.3936 18.582 15.4686 18.432 15.6186L15.4695 18.5811C15.3008 18.7498 15.207 18.9936 15.207 19.2373C15.207 19.4811 15.3008 19.7248 15.4695 19.8936L17.6258 22.0498C17.7945 22.2186 18.0383 22.3123 18.282 22.3123C18.5258 22.3123 18.7695 22.2186 18.9383 22.0498L21.9008 19.0873C22.0508 18.9373 22.1258 18.7498 22.1258 18.5436V16.5561C22.1258 16.2561 22.0133 15.9561 21.7883 15.7498L21.7695 15.7311ZM21.0008 17.7561C20.832 17.9248 20.607 18.0186 20.3633 18.0186C20.1195 18.0186 19.8945 17.9248 19.7258 17.7561C19.557 17.5873 19.4633 17.3623 19.4633 17.1186C19.4633 16.8748 19.557 16.6498 19.7258 16.4811C19.8945 16.3123 20.1195 16.2186 20.3633 16.2186C20.607 16.2186 20.832 16.3123 21.0008 16.4811C21.1695 16.6498 21.2633 16.8748 21.2633 17.1186C21.2633 17.3623 21.1695 17.5873 21.0008 17.7561Z" fill="white"/>
<path d="M6.00842 8.25L6 8.25M6.00842 12H6M6.00842 15.75H6" stroke="white" stroke-width="1.5" stroke-linecap="round" stroke-linejoin="round"/>
<path d="M16.3209 8.25L16.3125 8.25M16.3209 12H16.3125M16.3209 15.75H16.3125" stroke="white" stroke-width="1.5" stroke-linecap="round" stroke-linejoin="round"/>
</svg>
