<svg width="22" height="22" viewBox="0 0 22 22" fill="none" xmlns="http://www.w3.org/2000/svg">
<path d="M19.2487 6.86133C19.2487 5.85526 19.2487 5.35223 18.9956 4.92772C18.7425 4.5032 18.2763 4.22417 17.3438 3.6661L16.1574 2.95605C14.6936 2.08002 13.9617 1.642 13.3968 1.91336C12.832 2.18472 12.832 2.97437 12.832 4.55367V20.1668H19.2487V6.86133Z" stroke="url(#paint0_linear_2734_16242)" stroke-width="1.375" stroke-linejoin="round"/>
<path d="M20.1654 20.1669H1.83203" stroke="url(#paint1_linear_2734_16242)" stroke-width="1.375" stroke-linecap="round" stroke-linejoin="round"/>
<path d="M12.8307 8.25006H9.16406" stroke="url(#paint2_linear_2734_16242)" stroke-width="1.375" stroke-linecap="round" stroke-linejoin="round"/>
<path d="M12.8307 13.7501H9.16406" stroke="url(#paint3_linear_2734_16242)" stroke-width="1.375" stroke-linecap="round" stroke-linejoin="round"/>
<path d="M2.7474 6.86163C2.7474 5.85557 2.7474 5.35254 3.00048 4.92802C3.25357 4.5035 3.71981 4.22447 4.65229 3.66641L5.83873 2.95636C7.30253 2.08032 8.03443 1.64231 8.59924 1.91367C9.16406 2.18502 9.16406 2.97467 9.16406 4.55397V20.1671H2.7474V6.86163Z" stroke="url(#paint4_linear_2734_16242)" stroke-width="1.375" stroke-linejoin="round"/>
<path d="M5.95941 7.33374L5.95117 7.33374M5.95941 11.0004H5.95117M5.95941 14.6671H5.95117" stroke="url(#paint5_linear_2734_16242)" stroke-width="1.83333" stroke-linecap="round" stroke-linejoin="round"/>
<path d="M16.0414 7.3335L16.0332 7.3335M16.0414 11.0002H16.0332M16.0414 14.6668H16.0332" stroke="url(#paint6_linear_2734_16242)" stroke-width="1.83333" stroke-linecap="round" stroke-linejoin="round"/>
<defs>
<linearGradient id="paint0_linear_2734_16242" x1="12.832" y1="11.0002" x2="19.2487" y2="11.0002" gradientUnits="userSpaceOnUse">
<stop stop-color="#347278"/>
<stop offset="1" stop-color="#1D5055"/>
</linearGradient>
<linearGradient id="paint1_linear_2734_16242" x1="1.83203" y1="20.6669" x2="20.1654" y2="20.6669" gradientUnits="userSpaceOnUse">
<stop stop-color="#347278"/>
<stop offset="1" stop-color="#1D5055"/>
</linearGradient>
<linearGradient id="paint2_linear_2734_16242" x1="9.16406" y1="8.75006" x2="12.8307" y2="8.75006" gradientUnits="userSpaceOnUse">
<stop stop-color="#347278"/>
<stop offset="1" stop-color="#1D5055"/>
</linearGradient>
<linearGradient id="paint3_linear_2734_16242" x1="9.16406" y1="14.2501" x2="12.8307" y2="14.2501" gradientUnits="userSpaceOnUse">
<stop stop-color="#347278"/>
<stop offset="1" stop-color="#1D5055"/>
</linearGradient>
<linearGradient id="paint4_linear_2734_16242" x1="9.16406" y1="11.0005" x2="2.7474" y2="11.0005" gradientUnits="userSpaceOnUse">
<stop stop-color="#347278"/>
<stop offset="1" stop-color="#1D5055"/>
</linearGradient>
<linearGradient id="paint5_linear_2734_16242" x1="5.95117" y1="11.0004" x2="5.95941" y2="11.0004" gradientUnits="userSpaceOnUse">
<stop stop-color="#347278"/>
<stop offset="1" stop-color="#1D5055"/>
</linearGradient>
<linearGradient id="paint6_linear_2734_16242" x1="16.0332" y1="11.0002" x2="16.0414" y2="11.0002" gradientUnits="userSpaceOnUse">
<stop stop-color="#347278"/>
<stop offset="1" stop-color="#1D5055"/>
</linearGradient>
</defs>
</svg>
