<svg width="42" height="42" viewBox="0 0 42 42" fill="none" xmlns="http://www.w3.org/2000/svg">
<path d="M15.2418 28.1195L9.31387 22.1916C8.99445 21.8722 8.56122 21.6927 8.10949 21.6927C7.65777 21.6927 7.22454 21.8722 6.90512 22.1916C6.5857 22.511 6.40625 22.9442 6.40625 23.3959C6.40625 23.6196 6.45031 23.8411 6.5359 24.0477C6.6215 24.2544 6.74696 24.4422 6.90512 24.6003L14.046 31.7412C14.7122 32.4074 15.7885 32.4074 16.4547 31.7412L34.5289 13.667C34.8483 13.3476 35.0277 12.9143 35.0277 12.4626C35.0277 12.0109 34.8483 11.5777 34.5289 11.2582C34.2094 10.9388 33.7762 10.7594 33.3245 10.7594C32.8728 10.7594 32.4395 10.9388 32.1201 11.2582L15.2418 28.1195Z" fill="white"/>
</svg>
