<svg width="22" height="22" viewBox="0 0 22 22" fill="none" xmlns="http://www.w3.org/2000/svg">
<path d="M6.41602 20.1663V11.3646C6.41602 10.3854 6.41602 9.8958 6.64021 9.48515C6.8644 9.0745 7.27624 8.80975 8.0999 8.28025L10.008 7.05364C10.4894 6.74414 10.7301 6.5894 10.9993 6.5894C11.2686 6.5894 11.5093 6.74414 11.9907 7.05364L13.8988 8.28025C14.7225 8.80975 15.1343 9.0745 15.3585 9.48515C15.5827 9.8958 15.5827 10.3854 15.5827 11.3646V20.1663" stroke="#347278" stroke-width="1.375" stroke-linecap="round" stroke-linejoin="round"/>
<path d="M11.002 11.9163H11.0102" stroke="#347278" stroke-width="1.83333" stroke-linecap="round" stroke-linejoin="round"/>
<path d="M19.2507 20.1666V14.8153C19.2507 12.7147 18.0964 12.5447 15.584 11.9166" stroke="#347278" stroke-width="1.375" stroke-linecap="round" stroke-linejoin="round"/>
<path d="M2.75195 20.1663V14.8151C2.75195 12.7144 3.90619 12.5444 6.41862 11.9163" stroke="#347278" stroke-width="1.375" stroke-linecap="round" stroke-linejoin="round"/>
<path d="M1.83398 20.1666H20.1673" stroke="#347278" stroke-width="1.375" stroke-linecap="round" stroke-linejoin="round"/>
<path d="M11.002 20.1667V16.5001" stroke="#347278" stroke-width="1.375" stroke-linecap="round"/>
<path d="M11.002 6.41652V4.56688M11.002 4.56688V2.72268C11.002 2.28799 11.002 2.07065 11.1362 1.93561C11.5575 1.5118 13.2936 2.5143 13.9539 2.92084C14.5114 3.26416 14.6686 3.9499 14.6686 4.56688H11.002Z" stroke="#347278" stroke-width="1.375" stroke-linecap="round" stroke-linejoin="round"/>
</svg>
