<svg width="22" height="22" viewBox="0 0 22 22" fill="none" xmlns="http://www.w3.org/2000/svg">
<path d="M4.58203 8.25C4.58203 5.21243 7.45487 2.75 10.9987 2.75C14.5425 2.75 17.4154 5.21243 17.4154 8.25" stroke="white" stroke-width="1.375" stroke-linecap="square" stroke-linejoin="round"/>
<path d="M17.416 15.5833V16.3166C17.416 17.9366 15.7744 19.2499 13.7493 19.2499H11.916" stroke="white" stroke-width="1.375" stroke-linecap="round" stroke-linejoin="round"/>
<path d="M15.582 9.90408C15.582 9.58727 15.582 9.42886 15.6297 9.28764C15.7683 8.8774 16.1337 8.7182 16.4997 8.55148C16.9112 8.36405 17.1169 8.27034 17.3208 8.25385C17.5522 8.23513 17.7841 8.285 17.9819 8.39601C18.2441 8.54319 18.427 8.82285 18.6142 9.05026C19.479 10.1006 19.9114 10.6258 20.0696 11.2049C20.1973 11.6723 20.1973 12.161 20.0696 12.6284C19.8388 13.4731 19.1098 14.1812 18.5702 14.8366C18.2941 15.1719 18.1561 15.3395 17.9819 15.4373C17.7841 15.5483 17.5522 15.5982 17.3208 15.5795C17.1169 15.563 16.9112 15.4693 16.4997 15.2819C16.1337 15.1151 15.7683 14.9559 15.6297 14.5457C15.582 14.4045 15.582 14.2461 15.582 13.9293V9.90408Z" fill="white" stroke="white" stroke-width="1.375"/>
<path d="M6.41602 9.90399C6.41602 9.50501 6.40481 9.14644 6.08227 8.86594C5.96495 8.76391 5.80941 8.69307 5.49835 8.55138C5.08686 8.36396 4.88111 8.27024 4.67725 8.25376C4.0656 8.20429 3.73653 8.62175 3.3838 9.05017C2.51904 10.1005 2.08666 10.6257 1.92844 11.2048C1.80076 11.6722 1.80076 12.1609 1.92844 12.6283C2.1592 13.473 2.88824 14.1811 3.42788 14.8365C3.76803 15.2497 4.09297 15.6266 4.67725 15.5794C4.88111 15.5629 5.08686 15.4692 5.49835 15.2818C5.80941 15.1401 5.96495 15.0692 6.08227 14.9672C6.40481 14.6867 6.41602 14.3281 6.41602 13.9292V9.90399Z" fill="white" stroke="white" stroke-width="1.375"/>
</svg>
