<svg width="20" height="18" viewBox="0 0 20 18" fill="none" xmlns="http://www.w3.org/2000/svg">
<path d="M6.87351 5.54963L9.25501 0.753634C9.32433 0.614837 9.43095 0.498095 9.56291 0.416501C9.69487 0.334907 9.84694 0.291687 10.0021 0.291687C10.1572 0.291687 10.3093 0.334907 10.4413 0.416501C10.5732 0.498095 10.6799 0.614837 10.7492 0.753634L13.1307 5.54963L18.4547 6.3233C18.6082 6.3446 18.7527 6.40863 18.8716 6.50811C18.9906 6.60759 19.0791 6.73849 19.1272 6.88588C19.1753 7.03327 19.1809 7.19121 19.1435 7.34167C19.1062 7.49213 19.0272 7.62905 18.9158 7.7368L15.0639 11.4676L15.9733 16.7385C16.0897 17.415 15.3747 17.9301 14.7633 17.6111L10.0021 15.1215L5.24001 17.6111C4.62951 17.9311 3.91451 17.415 4.03092 16.7376L4.94026 11.4667L1.08842 7.73589C0.977494 7.62806 0.899038 7.49128 0.861974 7.34109C0.824909 7.1909 0.830723 7.03332 0.878753 6.88627C0.926784 6.73922 1.01511 6.60859 1.13368 6.50923C1.25225 6.40987 1.39632 6.34578 1.54951 6.32422L6.87351 5.54963V5.54963Z" fill="#E9D2A1"/>
</svg>
