<svg width="20" height="20" viewBox="0 0 20 20" fill="none" xmlns="http://www.w3.org/2000/svg">
<path fill-rule="evenodd" clip-rule="evenodd" d="M10.2235 0.570801C10.5361 0.570801 10.8358 0.694978 11.0569 0.916015C11.2779 1.13705 11.4021 1.43684 11.4021 1.74944V2.92807C11.4021 3.24067 11.2779 3.54046 11.0569 3.76149C10.8358 3.98253 10.5361 4.10671 10.2235 4.10671C9.91092 4.10671 9.61114 3.98253 9.39012 3.76149C9.16909 3.54046 9.04492 3.24067 9.04492 2.92807V1.74944C9.04492 1.43684 9.16909 1.13705 9.39012 0.916015C9.61114 0.694978 9.91092 0.570801 10.2235 0.570801V0.570801ZM14.9378 9.99988C14.9378 11.2503 14.4411 12.4494 13.557 13.3336C12.6729 14.2177 11.4738 14.7144 10.2235 14.7144C8.97319 14.7144 7.77409 14.2177 6.88999 13.3336C6.00589 12.4494 5.50921 11.2503 5.50921 9.99988C5.50921 8.74951 6.00589 7.55035 6.88999 6.6662C7.77409 5.78205 8.97319 5.28534 10.2235 5.28534C11.4738 5.28534 12.6729 5.78205 13.557 6.6662C14.4411 7.55035 14.9378 8.74951 14.9378 9.99988V9.99988ZM14.3909 15.8341L15.2242 16.6674C15.4465 16.8821 15.7442 17.0009 16.0532 16.9982C16.3622 16.9956 16.6578 16.8716 16.8763 16.6531C17.0948 16.4345 17.2188 16.1389 17.2215 15.8299C17.2242 15.5209 17.1054 15.2231 16.8907 15.0008L16.0574 14.1675C15.8351 13.9528 15.5374 13.834 15.2284 13.8367C14.9194 13.8394 14.6238 13.9634 14.4053 14.1819C14.1868 14.4004 14.0628 14.696 14.0601 15.0051C14.0574 15.3141 14.1762 15.6118 14.3909 15.8341V15.8341ZM16.8895 3.33234C17.1104 3.55337 17.2346 3.85311 17.2346 4.16564C17.2346 4.47817 17.1104 4.77791 16.8895 4.99893L16.0574 5.83223C15.9487 5.9448 15.8187 6.03459 15.6749 6.09636C15.5311 6.15813 15.3764 6.19065 15.2199 6.19201C15.0634 6.19337 14.9082 6.16355 14.7634 6.10428C14.6186 6.04502 14.487 5.9575 14.3763 5.84684C14.2657 5.73617 14.1781 5.60458 14.1189 5.45973C14.0596 5.31488 14.0298 5.15967 14.0312 5.00318C14.0325 4.84668 14.065 4.69202 14.1268 4.54822C14.1886 4.40442 14.2784 4.27436 14.3909 4.16564L15.2242 3.33234C15.4452 3.11138 15.7449 2.98725 16.0574 2.98725C16.3699 2.98725 16.6697 3.11138 16.8907 3.33234H16.8895ZM18.4735 11.1785C18.7861 11.1785 19.0858 11.0543 19.3069 10.8333C19.5279 10.6123 19.6521 10.3125 19.6521 9.99988C19.6521 9.68729 19.5279 9.3875 19.3069 9.16646C19.0858 8.94543 18.7861 8.82125 18.4735 8.82125H17.2949C16.9823 8.82125 16.6826 8.94543 16.4615 9.16646C16.2405 9.3875 16.1164 9.68729 16.1164 9.99988C16.1164 10.3125 16.2405 10.6123 16.4615 10.8333C16.6826 11.0543 16.9823 11.1785 17.2949 11.1785H18.4735ZM10.2235 15.8931C10.5361 15.8931 10.8358 16.0172 11.0569 16.2383C11.2779 16.4593 11.4021 16.7591 11.4021 17.0717V18.2503C11.4021 18.5629 11.2779 18.8627 11.0569 19.0838C10.8358 19.3048 10.5361 19.429 10.2235 19.429C9.91092 19.429 9.61114 19.3048 9.39012 19.0838C9.16909 18.8627 9.04492 18.5629 9.04492 18.2503V17.0717C9.04492 16.7591 9.16909 16.4593 9.39012 16.2383C9.61114 16.0172 9.91092 15.8931 10.2235 15.8931V15.8931ZM4.38957 5.83223C4.49899 5.94174 4.62891 6.02862 4.77191 6.08791C4.91491 6.14721 5.06818 6.17775 5.22299 6.17781C5.37779 6.17786 5.53109 6.14742 5.67413 6.08823C5.81717 6.02904 5.94715 5.94225 6.05665 5.83282C6.16616 5.72339 6.25303 5.59346 6.31232 5.45045C6.37161 5.30745 6.40216 5.15416 6.40221 4.99935C6.40227 4.84454 6.37183 4.69123 6.31264 4.54818C6.25345 4.40513 6.16667 4.27515 6.05724 4.16564L5.22281 3.33234C5.00053 3.11765 4.70282 2.99885 4.39381 3.00153C4.08479 3.00422 3.78919 3.12817 3.57067 3.3467C3.35215 3.56523 3.22821 3.86085 3.22552 4.16988C3.22284 4.47891 3.34163 4.77664 3.55631 4.99893L4.38957 5.83223V5.83223ZM6.05607 15.8341L5.22281 16.6674C5.00053 16.8821 4.70282 17.0009 4.39381 16.9982C4.08479 16.9956 3.78919 16.8716 3.57067 16.6531C3.35215 16.4345 3.22821 16.1389 3.22552 15.8299C3.22284 15.5209 3.34163 15.2231 3.55631 15.0008L4.38957 14.1675C4.61185 13.9528 4.90956 13.834 5.21857 13.8367C5.52759 13.8394 5.82319 13.9634 6.04171 14.1819C6.26022 14.4004 6.38417 14.696 6.38686 15.0051C6.38954 15.3141 6.27075 15.6118 6.05607 15.8341V15.8341ZM3.15206 11.1785C3.46464 11.1785 3.76442 11.0543 3.98544 10.8333C4.20647 10.6123 4.33064 10.3125 4.33064 9.99988C4.33064 9.68729 4.20647 9.3875 3.98544 9.16646C3.76442 8.94543 3.46464 8.82125 3.15206 8.82125H1.97349C1.66092 8.82125 1.36114 8.94543 1.14012 9.16646C0.919092 9.3875 0.794922 9.68729 0.794922 9.99988C0.794922 10.3125 0.919092 10.6123 1.14012 10.8333C1.36114 11.0543 1.66092 11.1785 1.97349 11.1785H3.15206Z" fill="white"/>
</svg>
