<svg width="20" height="20" viewBox="0 0 20 20" fill="none" xmlns="http://www.w3.org/2000/svg">
<path d="M13.5031 15.8203C13.8062 17.1599 14.519 18.3332 15.8294 18.3332H4.13806C2.82772 18.3332 2.11489 17.1599 1.81183 15.8203C1.65681 15.1351 1.57929 14.7925 1.83003 14.4795C2.08076 14.1665 2.48816 14.1665 3.30296 14.1665H11.6539C12.3874 14.1665 12.7542 14.1665 12.9828 14.3489C13.2115 14.5313 13.3087 14.961 13.5031 15.8203Z" fill="url(#paint0_linear_5243_3591)"/>
<path d="M4.3763 14.1665C4.3763 14.5117 4.65612 14.7915 5.0013 14.7915C5.34648 14.7915 5.6263 14.5117 5.6263 14.1665H4.3763ZM17.6024 2.39874L18.0443 1.9568L18.0443 1.9568L17.6024 2.39874ZM13.5031 15.8203L14.1127 15.6824L14.1127 15.6824L13.5031 15.8203ZM1.81183 15.8203L1.20224 15.9582L1.20224 15.9582L1.81183 15.8203ZM1.83003 14.4795L2.31781 14.8703L2.31781 14.8703L1.83003 14.4795ZM10.0013 2.2915H13.3346V1.0415H10.0013V2.2915ZM17.7096 6.6665V14.9998H18.9596V6.6665H17.7096ZM5.6263 14.1665V6.6665H4.3763V14.1665H5.6263ZM10.0013 1.0415C8.84046 1.0415 7.90695 1.04018 7.17484 1.13861C6.42475 1.23945 5.79319 1.4552 5.29159 1.9568L6.17548 2.84068C6.40611 2.61004 6.72992 2.45967 7.3414 2.37746C7.97086 2.29283 8.80512 2.2915 10.0013 2.2915V1.0415ZM5.6263 6.6665C5.6263 5.47032 5.62763 4.63606 5.71226 4.0066C5.79447 3.39512 5.94484 3.07131 6.17548 2.84068L5.29159 1.9568C4.79 2.45839 4.57425 3.08995 4.4734 3.84004C4.37497 4.57216 4.3763 5.50566 4.3763 6.6665H5.6263ZM13.3346 2.2915C14.5308 2.2915 15.3651 2.29283 15.9945 2.37746C16.606 2.45967 16.9298 2.61004 17.1605 2.84068L18.0443 1.9568C17.5427 1.4552 16.9112 1.23945 16.1611 1.13861C15.429 1.04018 14.4955 1.0415 13.3346 1.0415V2.2915ZM18.9596 6.6665C18.9596 5.50566 18.961 4.57216 18.8625 3.84004C18.7617 3.08995 18.5459 2.45839 18.0443 1.9568L17.1605 2.84068C17.3911 3.07131 17.5415 3.39512 17.6237 4.0066C17.7083 4.63606 17.7096 5.47032 17.7096 6.6665H18.9596ZM17.7096 14.9998C17.7096 15.8628 17.5519 16.5557 17.2512 17.014C16.9771 17.432 16.5524 17.7082 15.8294 17.7082V18.9582C16.9512 18.9582 17.7791 18.4882 18.2964 17.6997C18.7871 16.9516 18.9596 15.9778 18.9596 14.9998H17.7096ZM15.8294 17.7082C15.3896 17.7082 15.0515 17.522 14.7708 17.1815C14.4754 16.8232 14.2521 16.2983 14.1127 15.6824L12.8935 15.9582C13.0573 16.6819 13.3419 17.4134 13.8063 17.9767C14.2853 18.5576 14.9588 18.9582 15.8294 18.9582V17.7082ZM4.13806 17.7082C3.69831 17.7082 3.36022 17.522 3.07945 17.1815C2.78407 16.8232 2.56077 16.2983 2.42143 15.6824L1.20224 15.9582C1.36596 16.6819 1.65059 17.4134 2.11498 17.9767C2.59397 18.5576 3.26746 18.9582 4.13806 18.9582V17.7082ZM4.13806 18.9582H15.8294V17.7082H4.13806V18.9582ZM3.30296 14.7915H11.6539V13.5415H3.30296V14.7915ZM2.42143 15.6824C2.33866 15.3166 2.29825 15.1264 2.29338 14.9883C2.29013 14.8961 2.30388 14.8876 2.31781 14.8703L1.34224 14.0887C1.10544 14.3843 1.03258 14.7037 1.04416 15.0323C1.05412 15.3151 1.12998 15.6389 1.20224 15.9582L2.42143 15.6824ZM3.30296 13.5415C2.91733 13.5415 2.55046 13.5395 2.25235 13.5891C1.92039 13.6444 1.59371 13.7748 1.34224 14.0887L2.31781 14.8703C2.32537 14.8608 2.32856 14.8588 2.33563 14.8552C2.34786 14.8489 2.3815 14.8348 2.45759 14.8221C2.62956 14.7935 2.8738 14.7915 3.30296 14.7915V13.5415ZM14.1127 15.6824C14.0183 15.265 13.9384 14.9092 13.8503 14.6377C13.7653 14.3763 13.6376 14.0718 13.3726 13.8603L12.5931 14.8375C12.5567 14.8085 12.5919 14.81 12.6614 15.0239C12.7276 15.2277 12.7936 15.5163 12.8935 15.9583L14.1127 15.6824ZM11.6539 14.7915C12.0348 14.7915 12.2701 14.7924 12.4408 14.8107C12.605 14.8284 12.6146 14.8547 12.5931 14.8375L13.3726 13.8603C13.1224 13.6607 12.8342 13.5958 12.5745 13.5679C12.3213 13.5406 12.0065 13.5415 11.6539 13.5415V14.7915Z" fill="url(#paint1_linear_5243_3591)"/>
<path d="M8.75195 5.83325H14.5853" stroke="url(#paint2_linear_5243_3591)" stroke-width="1.25" stroke-linecap="round"/>
<path d="M8.75195 9.1665H11.6686" stroke="url(#paint3_linear_5243_3591)" stroke-width="1.25" stroke-linecap="round"/>
<defs>
<linearGradient id="paint0_linear_5243_3591" x1="-15.9643" y1="46.6717" x2="19.5213" y2="45.7157" gradientUnits="userSpaceOnUse">
<stop stop-color="#E6E1D6"/>
<stop offset="1" stop-color="#044247"/>
</linearGradient>
<linearGradient id="paint1_linear_5243_3591" x1="-15.9643" y1="46.6717" x2="19.5213" y2="45.7157" gradientUnits="userSpaceOnUse">
<stop stop-color="#E6E1D6"/>
<stop offset="1" stop-color="#044247"/>
</linearGradient>
<linearGradient id="paint2_linear_5243_3591" x1="2.58067" y1="8.53356" x2="14.7101" y2="6.62752" gradientUnits="userSpaceOnUse">
<stop stop-color="#E6E1D6"/>
<stop offset="1" stop-color="#044247"/>
</linearGradient>
<linearGradient id="paint3_linear_5243_3591" x1="5.66631" y1="11.8668" x2="11.8427" y2="11.3815" gradientUnits="userSpaceOnUse">
<stop stop-color="#E6E1D6"/>
<stop offset="1" stop-color="#044247"/>
</linearGradient>
</defs>
</svg>
