<svg width="21" height="20" viewBox="0 0 21 20" fill="none" xmlns="http://www.w3.org/2000/svg">
<path d="M2.47408 11.23C2.52855 13.7846 2.55579 15.0619 3.4984 16.0081C4.44101 16.9543 5.75288 16.9873 8.37663 17.0532C9.9937 17.0938 11.5948 17.0938 13.2119 17.0532C15.8357 16.9873 17.1475 16.9543 18.0901 16.0081C19.0328 15.0619 19.06 13.7846 19.1145 11.23C19.132 10.4086 19.132 9.59206 19.1145 8.77065C19.06 6.21604 19.0328 4.93874 18.0901 3.99254C17.1475 3.04635 15.8357 3.01339 13.2119 2.94747C11.5948 2.90684 9.99369 2.90683 8.37662 2.94746C5.75288 3.01338 4.44101 3.04634 3.4984 3.99253C2.55579 4.93872 2.52855 6.21603 2.47407 8.77064C2.45656 9.59205 2.45656 10.4086 2.47408 11.23Z" fill="white" stroke="white" stroke-width="1.25" stroke-linejoin="round"/>
<path d="M2.46094 5.00049L8.22134 8.26437C10.345 9.46765 11.2423 9.46765 13.3659 8.26437L19.1263 5.00049" stroke="url(#paint0_linear_5249_2967)" stroke-width="1.25" stroke-linejoin="round"/>
<defs>
<linearGradient id="paint0_linear_5249_2967" x1="-15.1699" y1="16.2509" x2="19.931" y2="12.4686" gradientUnits="userSpaceOnUse">
<stop stop-color="#E6E1D6"/>
<stop offset="1" stop-color="#044247"/>
</linearGradient>
</defs>
</svg>
