<svg width="24" height="24" viewBox="0 0 24 24" fill="none" xmlns="http://www.w3.org/2000/svg">
<path d="M8.58821 8.236L11.1862 3.004C11.2618 2.85259 11.3782 2.72523 11.5221 2.63622C11.6661 2.54721 11.832 2.50006 12.0012 2.50006C12.1705 2.50006 12.3364 2.54721 12.4803 2.63622C12.6243 2.72523 12.7406 2.85259 12.8162 3.004L15.4142 8.236L21.2222 9.08C21.3897 9.10323 21.5474 9.17309 21.6771 9.28161C21.8068 9.39013 21.9034 9.53294 21.9559 9.69373C22.0083 9.85452 22.0145 10.0268 21.9737 10.191C21.9329 10.3551 21.8468 10.5045 21.7252 10.622L17.5232 14.692L18.5152 20.442C18.6422 21.18 17.8622 21.742 17.1952 21.394L12.0012 18.678L6.80621 21.394C6.14021 21.743 5.36021 21.18 5.48721 20.441L6.47921 14.691L2.27721 10.621C2.1562 10.5034 2.07061 10.3542 2.03018 10.1903C1.98974 10.0265 1.99609 9.85457 2.04848 9.69415C2.10088 9.53373 2.19723 9.39122 2.32658 9.28284C2.45594 9.17445 2.6131 9.10452 2.78021 9.081L8.58821 8.236V8.236Z" fill="#E9D2A1"/>
</svg>
