<svg width="20" height="20" viewBox="0 0 20 20" fill="none" xmlns="http://www.w3.org/2000/svg">
<path d="M13.5031 15.8208C13.8062 17.1604 14.519 18.3337 15.8294 18.3337H4.13806C2.82772 18.3337 2.11489 17.1604 1.81183 15.8208C1.65681 15.1356 1.57929 14.793 1.83003 14.48C2.08076 14.167 2.48816 14.167 3.30296 14.167H11.6539C12.3874 14.167 12.7542 14.167 12.9828 14.3494C13.2115 14.5318 13.3087 14.9615 13.5031 15.8208Z" fill="white"/>
<path d="M4.3763 14.167C4.3763 14.5122 4.65612 14.792 5.0013 14.792C5.34648 14.792 5.6263 14.5122 5.6263 14.167H4.3763ZM17.6024 2.39923L18.0443 1.95728L18.0443 1.95728L17.6024 2.39923ZM13.5031 15.8208L14.1127 15.6829L14.1127 15.6829L13.5031 15.8208ZM1.81183 15.8208L1.20224 15.9587L1.20224 15.9587L1.81183 15.8208ZM1.83003 14.48L2.31781 14.8707L2.31781 14.8707L1.83003 14.48ZM10.0013 2.29199H13.3346V1.04199H10.0013V2.29199ZM17.7096 6.66699V15.0003H18.9596V6.66699H17.7096ZM5.6263 14.167V6.66699H4.3763V14.167H5.6263ZM10.0013 1.04199C8.84046 1.04199 7.90695 1.04066 7.17484 1.13909C6.42475 1.23994 5.79319 1.45569 5.29159 1.95728L6.17548 2.84117C6.40611 2.61053 6.72992 2.46016 7.3414 2.37795C7.97086 2.29332 8.80512 2.29199 10.0013 2.29199V1.04199ZM5.6263 6.66699C5.6263 5.47081 5.62763 4.63655 5.71226 4.00709C5.79447 3.39561 5.94484 3.0718 6.17548 2.84117L5.29159 1.95728C4.79 2.45888 4.57425 3.09044 4.4734 3.84053C4.37497 4.57264 4.3763 5.50615 4.3763 6.66699H5.6263ZM13.3346 2.29199C14.5308 2.29199 15.3651 2.29332 15.9945 2.37795C16.606 2.46016 16.9298 2.61053 17.1605 2.84117L18.0443 1.95728C17.5427 1.45569 16.9112 1.23994 16.1611 1.13909C15.429 1.04066 14.4955 1.04199 13.3346 1.04199V2.29199ZM18.9596 6.66699C18.9596 5.50615 18.961 4.57264 18.8625 3.84053C18.7617 3.09044 18.5459 2.45888 18.0443 1.95728L17.1605 2.84117C17.3911 3.0718 17.5415 3.39561 17.6237 4.00709C17.7083 4.63655 17.7096 5.47081 17.7096 6.66699H18.9596ZM17.7096 15.0003C17.7096 15.8633 17.5519 16.5561 17.2512 17.0145C16.9771 17.4324 16.5524 17.7087 15.8294 17.7087V18.9587C16.9512 18.9587 17.7791 18.4887 18.2964 17.7002C18.7871 16.9521 18.9596 15.9783 18.9596 15.0003H17.7096ZM15.8294 17.7087C15.3896 17.7087 15.0515 17.5225 14.7708 17.182C14.4754 16.8237 14.2521 16.2988 14.1127 15.6829L12.8935 15.9587C13.0573 16.6824 13.3419 17.4139 13.8063 17.9771C14.2853 18.5581 14.9588 18.9587 15.8294 18.9587V17.7087ZM4.13806 17.7087C3.69831 17.7087 3.36022 17.5225 3.07945 17.182C2.78407 16.8237 2.56077 16.2988 2.42143 15.6829L1.20224 15.9587C1.36596 16.6824 1.65059 17.4139 2.11498 17.9771C2.59397 18.5581 3.26746 18.9587 4.13806 18.9587V17.7087ZM4.13806 18.9587H15.8294V17.7087H4.13806V18.9587ZM3.30296 14.792H11.6539V13.542H3.30296V14.792ZM2.42143 15.6829C2.33866 15.3171 2.29825 15.1269 2.29338 14.9888C2.29013 14.8966 2.30388 14.8881 2.31781 14.8707L1.34224 14.0892C1.10544 14.3848 1.03258 14.7042 1.04416 15.0328C1.05412 15.3156 1.12998 15.6394 1.20224 15.9587L2.42143 15.6829ZM3.30296 13.542C2.91733 13.542 2.55046 13.54 2.25235 13.5896C1.92039 13.6449 1.59371 13.7753 1.34224 14.0892L2.31781 14.8707C2.32537 14.8613 2.32856 14.8593 2.33563 14.8556C2.34786 14.8494 2.3815 14.8353 2.45759 14.8226C2.62956 14.794 2.8738 14.792 3.30296 14.792V13.542ZM14.1127 15.6829C14.0183 15.2655 13.9384 14.9097 13.8503 14.6382C13.7653 14.3768 13.6376 14.0723 13.3726 13.8608L12.5931 14.838C12.5567 14.809 12.5919 14.8105 12.6614 15.0244C12.7276 15.2282 12.7936 15.5168 12.8935 15.9587L14.1127 15.6829ZM11.6539 14.792C12.0348 14.792 12.2701 14.7928 12.4408 14.8112C12.605 14.8289 12.6146 14.8552 12.5931 14.838L13.3726 13.8608C13.1224 13.6612 12.8342 13.5963 12.5745 13.5684C12.3213 13.5411 12.0065 13.542 11.6539 13.542V14.792Z" fill="white"/>
<path d="M8.75195 5.8335H14.5853" stroke="white" stroke-width="1.25" stroke-linecap="round"/>
<path d="M8.75195 9.16699H11.6686" stroke="white" stroke-width="1.25" stroke-linecap="round"/>
</svg>
