<svg width="21" height="20" viewBox="0 0 21 20" fill="none" xmlns="http://www.w3.org/2000/svg">
<path d="M18.8956 15.2753C18.8956 15.5753 18.8289 15.8837 18.6872 16.1837C18.5456 16.4837 18.3622 16.767 18.1206 17.0337C17.7122 17.4837 17.2622 17.8087 16.7539 18.017C16.2539 18.2253 15.7122 18.3337 15.1289 18.3337C14.2789 18.3337 13.3706 18.1337 12.4122 17.7253C11.4539 17.317 10.4956 16.767 9.54557 16.0753C8.58724 15.3753 7.67891 14.6003 6.81224 13.742C5.95391 12.8753 5.17891 11.967 4.48724 11.017C3.80391 10.067 3.25391 9.11699 2.85391 8.17533C2.45391 7.22533 2.25391 6.31699 2.25391 5.45033C2.25391 4.88366 2.35391 4.34199 2.55391 3.84199C2.75391 3.33366 3.07057 2.86699 3.51224 2.45033C4.04557 1.92533 4.62891 1.66699 5.24557 1.66699C5.47891 1.66699 5.71224 1.71699 5.92057 1.81699C6.13724 1.91699 6.32891 2.06699 6.47891 2.28366L8.41224 5.00866C8.56224 5.21699 8.67057 5.40866 8.74557 5.59199C8.82057 5.76699 8.86224 5.94199 8.86224 6.10033C8.86224 6.30033 8.80391 6.50033 8.68724 6.69199C8.57891 6.88366 8.42057 7.08366 8.22057 7.28366L7.58724 7.94199C7.49557 8.03366 7.45391 8.14199 7.45391 8.27533C7.45391 8.34199 7.46224 8.40033 7.47891 8.46699C7.50391 8.53366 7.52891 8.58366 7.54557 8.63366C7.69557 8.90866 7.95391 9.26699 8.32057 9.70033C8.69557 10.1337 9.09557 10.5753 9.52891 11.017C9.97891 11.4587 10.4122 11.867 10.8539 12.242C11.2872 12.6087 11.6456 12.8587 11.9289 13.0087C11.9706 13.0253 12.0206 13.0503 12.0789 13.0753C12.1456 13.1003 12.2122 13.1087 12.2872 13.1087C12.4289 13.1087 12.5372 13.0587 12.6289 12.967L13.2622 12.342C13.4706 12.1337 13.6706 11.9753 13.8622 11.8753C14.0539 11.7587 14.2456 11.7003 14.4539 11.7003C14.6122 11.7003 14.7789 11.7337 14.9622 11.8087C15.1456 11.8837 15.3372 11.992 15.5456 12.1337L18.3039 14.092C18.5206 14.242 18.6706 14.417 18.7622 14.6253C18.8456 14.8337 18.8956 15.042 18.8956 15.2753Z" fill="white" stroke="white" stroke-width="1.25" stroke-miterlimit="10"/>
<path d="M16.0046 7.50016C16.0046 7.00016 15.6129 6.2335 15.0296 5.6085C14.4962 5.0335 13.7879 4.5835 13.0879 4.5835" stroke="white" stroke-width="1.25" stroke-linecap="round" stroke-linejoin="round"/>
<path d="M18.9212 7.50033C18.9212 4.27533 16.3129 1.66699 13.0879 1.66699" stroke="white" stroke-width="1.25" stroke-linecap="round" stroke-linejoin="round"/>
</svg>
