<svg width="20" height="20" viewBox="0 0 20 20" fill="none" xmlns="http://www.w3.org/2000/svg">
<path d="M18.3096 15.2753C18.3096 15.5753 18.243 15.8837 18.1013 16.1837C17.9596 16.4837 17.7763 16.767 17.5346 17.0337C17.1263 17.4837 16.6763 17.8087 16.168 18.017C15.668 18.2253 15.1263 18.3337 14.543 18.3337C13.693 18.3337 12.7846 18.1337 11.8263 17.7253C10.868 17.317 9.90964 16.767 8.95964 16.0753C8.0013 15.3753 7.09297 14.6003 6.2263 13.742C5.36797 12.8753 4.59297 11.967 3.9013 11.017C3.21797 10.067 2.66797 9.11699 2.26797 8.17533C1.86797 7.22533 1.66797 6.31699 1.66797 5.45033C1.66797 4.88366 1.76797 4.34199 1.96797 3.84199C2.16797 3.33366 2.48464 2.86699 2.9263 2.45033C3.45964 1.92533 4.04297 1.66699 4.65964 1.66699C4.89297 1.66699 5.1263 1.71699 5.33464 1.81699C5.5513 1.91699 5.74297 2.06699 5.89297 2.28366L7.8263 5.00866C7.9763 5.21699 8.08464 5.40866 8.15964 5.59199C8.23464 5.76699 8.2763 5.94199 8.2763 6.10033C8.2763 6.30033 8.21797 6.50033 8.1013 6.69199C7.99297 6.88366 7.83464 7.08366 7.63464 7.28366L7.0013 7.94199C6.90964 8.03366 6.86797 8.14199 6.86797 8.27533C6.86797 8.34199 6.8763 8.40033 6.89297 8.46699C6.91797 8.53366 6.94297 8.58366 6.95964 8.63366C7.10964 8.90866 7.36797 9.26699 7.73464 9.70033C8.10964 10.1337 8.50964 10.5753 8.94297 11.017C9.39297 11.4587 9.8263 11.867 10.268 12.242C10.7013 12.6087 11.0596 12.8587 11.343 13.0087C11.3846 13.0253 11.4346 13.0503 11.493 13.0753C11.5596 13.1003 11.6263 13.1087 11.7013 13.1087C11.843 13.1087 11.9513 13.0587 12.043 12.967L12.6763 12.342C12.8846 12.1337 13.0846 11.9753 13.2763 11.8753C13.468 11.7587 13.6596 11.7003 13.868 11.7003C14.0263 11.7003 14.193 11.7337 14.3763 11.8087C14.5596 11.8837 14.7513 11.992 14.9596 12.1337L17.718 14.092C17.9346 14.242 18.0846 14.417 18.1763 14.6253C18.2596 14.8337 18.3096 15.042 18.3096 15.2753Z" fill="url(#paint0_linear_5249_2951)" stroke="url(#paint1_linear_5249_2951)" stroke-width="1.25" stroke-miterlimit="10"/>
<path d="M15.4186 7.50016C15.4186 7.00016 15.027 6.2335 14.4436 5.6085C13.9103 5.0335 13.202 4.5835 12.502 4.5835" stroke="url(#paint2_linear_5249_2951)" stroke-width="1.25" stroke-linecap="round" stroke-linejoin="round"/>
<path d="M18.3353 7.50033C18.3353 4.27533 15.727 1.66699 12.502 1.66699" stroke="url(#paint3_linear_5249_2951)" stroke-width="1.25" stroke-linecap="round" stroke-linejoin="round"/>
<defs>
<linearGradient id="paint0_linear_5249_2951" x1="-15.9378" y1="46.6721" x2="19.4946" y2="45.7191" gradientUnits="userSpaceOnUse">
<stop stop-color="#E6E1D6"/>
<stop offset="1" stop-color="#044247"/>
</linearGradient>
<linearGradient id="paint1_linear_5249_2951" x1="-15.9378" y1="46.6721" x2="19.4946" y2="45.7191" gradientUnits="userSpaceOnUse">
<stop stop-color="#E6E1D6"/>
<stop offset="1" stop-color="#044247"/>
</linearGradient>
<linearGradient id="paint2_linear_5249_2951" x1="9.41631" y1="12.4594" x2="15.6263" y2="12.2921" gradientUnits="userSpaceOnUse">
<stop stop-color="#E6E1D6"/>
<stop offset="1" stop-color="#044247"/>
</linearGradient>
<linearGradient id="paint3_linear_5249_2951" x1="6.33067" y1="17.4188" x2="18.7506" y2="17.0842" gradientUnits="userSpaceOnUse">
<stop stop-color="#E6E1D6"/>
<stop offset="1" stop-color="#044247"/>
</linearGradient>
</defs>
</svg>
