<svg width="24" height="24" viewBox="0 0 24 24" fill="none" xmlns="http://www.w3.org/2000/svg">
<path d="M8.58821 8.23601L11.1862 3.00401C11.2618 2.8526 11.3782 2.72525 11.5221 2.63623C11.6661 2.54722 11.832 2.50007 12.0012 2.50007C12.1705 2.50007 12.3364 2.54722 12.4803 2.63623C12.6243 2.72525 12.7406 2.8526 12.8162 3.00401L15.4142 8.23601L21.2222 9.08001C21.3897 9.10324 21.5474 9.17311 21.6771 9.28163C21.8068 9.39014 21.9034 9.53295 21.9559 9.69374C22.0083 9.85453 22.0145 10.0268 21.9737 10.191C21.9329 10.3551 21.8468 10.5045 21.7252 10.622L17.5232 14.692L18.5152 20.442C18.6422 21.18 17.8622 21.742 17.1952 21.394L12.0012 18.678L6.80621 21.394C6.14021 21.743 5.36021 21.18 5.48721 20.441L6.47921 14.691L2.27721 10.621C2.1562 10.5034 2.07061 10.3542 2.03018 10.1903C1.98974 10.0265 1.99609 9.85458 2.04848 9.69416C2.10088 9.53374 2.19723 9.39124 2.32658 9.28285C2.45594 9.17446 2.6131 9.10453 2.78021 9.08102L8.58821 8.23601V8.23601Z" stroke="#E9D2A1" stroke-linecap="round" stroke-linejoin="round"/>
</svg>
