<svg width="32" height="32" viewBox="0 0 32 32" fill="none" xmlns="http://www.w3.org/2000/svg">
<g clip-path="url(#clip0_2734_14354)">
<path d="M16.0074 0.242981C9.42771 0.242981 7.50341 0.249769 7.12936 0.280798C5.7791 0.393037 4.93888 0.605637 4.02351 1.06138C3.31808 1.41167 2.76173 1.81772 2.21266 2.38692C1.21269 3.42495 0.606648 4.702 0.387261 6.22001C0.280597 6.95696 0.249568 7.10726 0.243265 10.8715C0.240841 12.1263 0.243265 13.7776 0.243265 15.9926C0.243265 22.5669 0.250537 24.4893 0.282052 24.8626C0.391139 26.1765 0.597194 27.0031 1.03354 27.9074C1.86746 29.6382 3.46014 30.9376 5.33644 31.4224C5.98612 31.5897 6.70368 31.6818 7.62486 31.7254C8.01515 31.7424 11.9932 31.7545 15.9737 31.7545C19.9542 31.7545 23.9347 31.7497 24.3153 31.7303C25.3819 31.6801 26.0013 31.5969 26.6861 31.42C28.5745 30.9327 30.1381 29.6528 30.989 27.8977C31.4169 27.0153 31.6338 26.1571 31.732 24.9118C31.7533 24.6403 31.7623 20.3115 31.7623 15.9884C31.7623 11.6647 31.7526 7.34386 31.7313 7.07235C31.6319 5.80693 31.4149 4.95605 30.9732 4.05668C30.6108 3.32046 30.2084 2.77066 29.6242 2.2085C28.5816 1.21265 27.3064 0.606606 25.787 0.387461C25.0508 0.28104 24.9041 0.249526 21.1369 0.242981H16.0074Z" fill="url(#paint0_radial_2734_14354)"/>
<path d="M16.0074 0.242981C9.42771 0.242981 7.50341 0.249769 7.12936 0.280798C5.7791 0.393037 4.93888 0.605637 4.02351 1.06138C3.31808 1.41167 2.76173 1.81772 2.21266 2.38692C1.21269 3.42495 0.606648 4.702 0.387261 6.22001C0.280597 6.95696 0.249568 7.10726 0.243265 10.8715C0.240841 12.1263 0.243265 13.7776 0.243265 15.9926C0.243265 22.5669 0.250537 24.4893 0.282052 24.8626C0.391139 26.1765 0.597194 27.0031 1.03354 27.9074C1.86746 29.6382 3.46014 30.9376 5.33644 31.4224C5.98612 31.5897 6.70368 31.6818 7.62486 31.7254C8.01515 31.7424 11.9932 31.7545 15.9737 31.7545C19.9542 31.7545 23.9347 31.7497 24.3153 31.7303C25.3819 31.6801 26.0013 31.5969 26.6861 31.42C28.5745 30.9327 30.1381 29.6528 30.989 27.8977C31.4169 27.0153 31.6338 26.1571 31.732 24.9118C31.7533 24.6403 31.7623 20.3115 31.7623 15.9884C31.7623 11.6647 31.7526 7.34386 31.7313 7.07235C31.6319 5.80693 31.4149 4.95605 30.9732 4.05668C30.6108 3.32046 30.2084 2.77066 29.6242 2.2085C28.5816 1.21265 27.3064 0.606606 25.787 0.387461C25.0508 0.28104 24.9041 0.249526 21.1369 0.242981H16.0074Z" fill="#347278"/>
<path d="M23.4224 12.5957V15.4627C22.9334 15.4143 22.3005 15.3003 21.5978 15.0359C20.6812 14.6911 19.9987 14.2193 19.5526 13.8538V19.6501L19.5417 19.632C19.5493 19.7469 19.5526 19.8635 19.5526 19.9819C19.5526 22.8611 17.2718 25.2036 14.4667 25.2036C11.6616 25.2036 9.38086 22.8602 9.38086 19.9819C9.38086 17.1036 11.6616 14.7593 14.4667 14.7593C14.7411 14.7593 15.0104 14.7818 15.2738 14.825V17.6515C15.0205 17.5581 14.7495 17.508 14.4667 17.508C13.1387 17.508 12.0572 18.6175 12.0572 19.9819C12.0572 21.3463 13.1387 22.4558 14.4667 22.4558C15.7948 22.4558 16.8763 21.3455 16.8763 19.9819C16.8763 19.9309 16.8754 19.88 16.8721 19.829V8.56467H19.6637C19.6738 8.80748 19.6839 9.05201 19.6932 9.29482C19.7117 9.77267 19.8775 10.2315 20.1662 10.6074C20.5053 11.0489 21.0053 11.5622 21.7089 11.9718C22.367 12.3546 22.9847 12.5188 23.4224 12.5965V12.5957Z" fill="#FF004F"/>
<path d="M22.4634 10.2674V13.1345C21.9744 13.0861 21.3415 12.972 20.6388 12.7076C19.7222 12.3628 19.0397 11.891 18.5936 11.5255V17.3219L18.5827 17.3037C18.5903 17.4186 18.5936 17.5353 18.5936 17.6537C18.5936 20.5328 16.3129 22.8754 13.5078 22.8754C10.7026 22.8754 8.42188 20.532 8.42188 17.6537C8.42188 14.7754 10.7026 12.4311 13.5078 12.4311C13.7821 12.4311 14.0514 12.4536 14.3149 12.4968V15.3232C14.0615 15.2299 13.7905 15.1798 13.5078 15.1798C12.1797 15.1798 11.0982 16.2893 11.0982 17.6537C11.0982 19.0181 12.1797 20.1276 13.5078 20.1276C14.8358 20.1276 15.9173 19.0172 15.9173 17.6537C15.9173 17.6027 15.9165 17.5517 15.9131 17.5007V6.23642H18.7047C18.7148 6.47923 18.7249 6.72377 18.7342 6.96658C18.7527 7.44442 18.9185 7.90325 19.2072 8.27913C19.5464 8.72069 20.0463 9.23396 20.7499 9.64354C21.408 10.0263 22.0258 10.1905 22.4634 10.2683V10.2674Z" fill="#00F7EF"/>
<path d="M23.0747 11.5206V14.3876C22.5857 14.3393 21.9528 14.2252 21.2501 13.9608C20.3336 13.616 19.651 13.1442 19.205 12.7787V18.575L19.194 18.5569C19.2016 18.6718 19.205 18.7885 19.205 18.9068C19.205 21.786 16.9242 24.1286 14.1191 24.1286C11.314 24.1286 9.0332 21.7851 9.0332 18.9068C9.0332 16.0286 11.314 13.6843 14.1191 13.6843C14.3935 13.6843 14.6628 13.7067 14.9262 13.7499V16.5764C14.6729 16.4831 14.4019 16.433 14.1191 16.433C12.791 16.433 11.7095 17.5424 11.7095 18.9068C11.7095 20.2712 12.791 21.3807 14.1191 21.3807C15.4472 21.3807 16.5286 20.2704 16.5286 18.9068C16.5286 18.8559 16.5278 18.8049 16.5244 18.7539V7.48959H19.3161C19.3262 7.7324 19.3363 7.97694 19.3455 8.21975C19.364 8.6976 19.5298 9.15643 19.8185 9.53231C20.1577 9.97386 20.6576 10.4871 21.3612 10.8967C22.0193 11.2795 22.6371 11.4437 23.0747 11.5214V11.5206Z" fill="white"/>
</g>
<defs>
<radialGradient id="paint0_radial_2734_14354" cx="0" cy="0" r="1" gradientUnits="userSpaceOnUse" gradientTransform="translate(8.61476 34.1816) rotate(-90) scale(31.2303 29.0545)">
<stop stop-color="#FFDD55"/>
<stop offset="0.1" stop-color="#FFDD55"/>
<stop offset="0.5" stop-color="#FF543E"/>
<stop offset="1" stop-color="#C837AB"/>
</radialGradient>
<clipPath id="clip0_2734_14354">
<rect width="32" height="31.999" fill="white" transform="translate(0 0.000488281)"/>
</clipPath>
</defs>
</svg>
