<svg width="32" height="32" viewBox="0 0 32 32" fill="none" xmlns="http://www.w3.org/2000/svg">
<g clip-path="url(#clip0_2734_14347)">
<path d="M16.0074 0.242981C9.42771 0.242981 7.50341 0.249769 7.12936 0.280798C5.7791 0.393037 4.93888 0.605637 4.02351 1.06138C3.31808 1.41167 2.76173 1.81772 2.21266 2.38692C1.21269 3.42495 0.606648 4.702 0.387261 6.22001C0.280597 6.95696 0.249568 7.10726 0.243265 10.8715C0.240841 12.1263 0.243265 13.7776 0.243265 15.9926C0.243265 22.5669 0.250537 24.4893 0.282052 24.8626C0.391139 26.1765 0.597194 27.0031 1.03354 27.9074C1.86746 29.6382 3.46014 30.9376 5.33644 31.4224C5.98612 31.5897 6.70368 31.6818 7.62486 31.7254C8.01515 31.7424 11.9932 31.7545 15.9737 31.7545C19.9542 31.7545 23.9347 31.7497 24.3153 31.7303C25.3819 31.6801 26.0013 31.5969 26.6861 31.42C28.5745 30.9327 30.1381 29.6528 30.989 27.8977C31.4169 27.0153 31.6338 26.1571 31.732 24.9118C31.7533 24.6403 31.7623 20.3115 31.7623 15.9884C31.7623 11.6647 31.7526 7.34386 31.7313 7.07235C31.6319 5.80693 31.4149 4.95605 30.9732 4.05668C30.6108 3.32046 30.2084 2.77066 29.6242 2.2085C28.5816 1.21265 27.3064 0.606606 25.787 0.387461C25.0508 0.28104 24.9041 0.249526 21.1369 0.242981H16.0074Z" fill="url(#paint0_radial_2734_14347)"/>
<path d="M16.0074 0.242981C9.42771 0.242981 7.50341 0.249769 7.12936 0.280798C5.7791 0.393037 4.93888 0.605637 4.02351 1.06138C3.31808 1.41167 2.76173 1.81772 2.21266 2.38692C1.21269 3.42495 0.606648 4.702 0.387261 6.22001C0.280597 6.95696 0.249568 7.10726 0.243265 10.8715C0.240841 12.1263 0.243265 13.7776 0.243265 15.9926C0.243265 22.5669 0.250537 24.4893 0.282052 24.8626C0.391139 26.1765 0.597194 27.0031 1.03354 27.9074C1.86746 29.6382 3.46014 30.9376 5.33644 31.4224C5.98612 31.5897 6.70368 31.6818 7.62486 31.7254C8.01515 31.7424 11.9932 31.7545 15.9737 31.7545C19.9542 31.7545 23.9347 31.7497 24.3153 31.7303C25.3819 31.6801 26.0013 31.5969 26.6861 31.42C28.5745 30.9327 30.1381 29.6528 30.989 27.8977C31.4169 27.0153 31.6338 26.1571 31.732 24.9118C31.7533 24.6403 31.7623 20.3115 31.7623 15.9884C31.7623 11.6647 31.7526 7.34386 31.7313 7.07235C31.6319 5.80693 31.4149 4.95605 30.9732 4.05668C30.6108 3.32046 30.2084 2.77066 29.6242 2.2085C28.5816 1.21265 27.3064 0.606606 25.787 0.387461C25.0508 0.28104 24.9041 0.249526 21.1369 0.242981H16.0074Z" fill="#347278"/>
<path d="M22.5101 22.186L17.1489 14.3975L16.5428 13.5166L12.708 7.94523L12.3901 7.48352H7.67773L8.82703 9.15366L13.9261 16.5624L14.5322 17.4423L18.6291 23.395L18.947 23.8563H23.6594L22.5101 22.1862V22.186ZM19.5072 22.7901L15.2507 16.6059L14.6446 15.7255L9.70561 8.54945H11.8302L15.8245 14.3529L16.4306 15.2333L21.6319 22.7901H19.5073H19.5072Z" fill="white"/>
<path d="M14.6454 15.7255L15.2515 16.6059L14.5329 17.4421L9.0197 23.856H7.66016L13.9268 16.5622L14.6454 15.7255Z" fill="white"/>
<path d="M23.0919 7.48352L17.1489 14.3975L16.4303 15.2333L15.8242 14.3529L16.5428 13.5166L20.5685 8.83095L21.7323 7.48352H23.0919Z" fill="white"/>
</g>
<defs>
<radialGradient id="paint0_radial_2734_14347" cx="0" cy="0" r="1" gradientUnits="userSpaceOnUse" gradientTransform="translate(8.61476 34.1816) rotate(-90) scale(31.2303 29.0545)">
<stop stop-color="#FFDD55"/>
<stop offset="0.1" stop-color="#FFDD55"/>
<stop offset="0.5" stop-color="#FF543E"/>
<stop offset="1" stop-color="#C837AB"/>
</radialGradient>
<clipPath id="clip0_2734_14347">
<rect width="32" height="31.999" fill="white" transform="translate(0 0.000488281)"/>
</clipPath>
</defs>
</svg>
