<svg width="22" height="22" viewBox="0 0 22 22" fill="none" xmlns="http://www.w3.org/2000/svg">
<path d="M6.02944 14.1914C4.73257 14.9636 1.33225 16.5404 3.40327 18.5134C4.41495 19.4773 5.5417 20.1666 6.9583 20.1666H15.0417C16.4583 20.1666 17.5851 19.4773 18.5967 18.5134C20.6678 16.5404 17.2674 14.9636 15.9706 14.1914C12.9294 12.3805 9.07059 12.3805 6.02944 14.1914Z" fill="white" stroke="white" stroke-width="1.375" stroke-linecap="round" stroke-linejoin="round"/>
<path d="M15.125 5.95825C15.125 8.23643 13.2782 10.0833 11 10.0833C8.72183 10.0833 6.875 8.23643 6.875 5.95825C6.875 3.68008 8.72183 1.83325 11 1.83325C13.2782 1.83325 15.125 3.68008 15.125 5.95825Z" fill="white" stroke="white" stroke-width="1.375"/>
</svg>
