<svg width="22" height="22" viewBox="0 0 22 22" fill="none" xmlns="http://www.w3.org/2000/svg">
<path d="M11.0026 20.167C16.0652 20.167 20.1693 16.063 20.1693 11.0003C20.1693 5.93774 16.0652 1.83368 11.0026 1.83368C5.93999 1.83368 1.83594 5.93774 1.83594 11.0003C1.83594 12.2643 2.09176 13.4685 2.55444 14.564C2.81015 15.1695 2.93801 15.4722 2.95384 15.701C2.96967 15.9298 2.90233 16.1815 2.76765 16.6848L1.83594 20.167L5.31815 19.2353C5.8215 19.1006 6.07317 19.0333 6.30196 19.0491C6.53074 19.0649 6.83347 19.1928 7.43892 19.4485C8.53443 19.9112 9.73864 20.167 11.0026 20.167Z" stroke="white" stroke-width="1.375" stroke-linejoin="round"/>
<path d="M7.87378 11.346L8.67213 10.3545C9.00862 9.93657 9.42458 9.54749 9.45714 8.99105C9.46537 8.8505 9.36648 8.21949 9.1687 6.95752C9.09097 6.46155 8.62793 6.41681 8.22685 6.41681C7.70418 6.41681 7.44285 6.41681 7.18334 6.53535C6.85535 6.68517 6.51861 7.10642 6.44471 7.45936C6.38624 7.73861 6.42969 7.93102 6.51659 8.31586C6.88568 9.95039 7.75155 11.5647 9.09416 12.9073C10.4368 14.2499 12.0511 15.1158 13.6856 15.4849C14.0704 15.5718 14.2628 15.6152 14.5421 15.5567C14.895 15.4828 15.3163 15.1461 15.4661 14.8181C15.5846 14.5586 15.5846 14.2973 15.5846 13.7746C15.5846 13.3735 15.5399 12.9105 15.0439 12.8327C13.782 12.635 13.1509 12.5361 13.0104 12.5443C12.454 12.5769 12.0649 12.9928 11.647 13.3293L10.6554 14.1277" stroke="white" stroke-width="1.375"/>
</svg>
