<svg width="34" height="34" viewBox="0 0 34 34" fill="none" xmlns="http://www.w3.org/2000/svg">
  <rect width="34" height="34" rx="6" fill="#3D7A7C"></rect>
  <path d="M12.249 13.249H8.749V25.249H12.249V13.249Z" fill="white"></path>
  <path d="M10.499 9.749C11.7426 9.749 12.749 8.74264 12.749 7.499C12.749 6.25536 11.7426 5.249 10.499 5.249C9.25536 5.249 8.249 6.25536 8.249 7.499C8.249 8.74264 9.25536 9.749 10.499 9.749Z" fill="white"></path>
  <path d="M18.999 13.249C16.242 13.249 14.749 14.992 14.749 17.999V25.249H18.249V18.749C18.249 17.499 18.749 16.499 19.999 16.499C21.249 16.499 21.749 17.499 21.749 18.749V25.249H25.249V18.499C25.249 15.499 23.749 13.249 20.749 13.249C19.749 13.249 18.999 13.749 18.499 14.499H18.499L18.999 13.249Z" fill="white"></path>
</svg>
